<mxfile host="65bd71144e">
    <diagram id="0fNNy-cb8tXyupwU00dv" name="Page-1">
        <mxGraphModel dx="249" dy="206" grid="0" gridSize="10" guides="0" tooltips="1" connect="0" arrows="0" fold="1" page="1" pageScale="1" pageWidth="827" pageHeight="1169" math="1" shadow="0">
            <root>
                <mxCell id="0"/>
                <mxCell id="1" parent="0"/>
                <mxCell id="2" value="" style="rounded=0;whiteSpace=wrap;html=1;fillColor=#fff2cc;strokeColor=#000000;strokeWidth=2;" parent="1" vertex="1">
                    <mxGeometry x="268" y="237" width="120" height="120" as="geometry"/>
                </mxCell>
                <mxCell id="3" value="" style="rounded=0;whiteSpace=wrap;html=1;fillStyle=hachure;fillColor=#000000;strokeColor=none;recursiveResize=0;fixedWidth=1;strokeWidth=2;shadow=0;perimeterSpacing=0;absoluteArcSize=0;arcSize=2;hachureGap=6;collapsible=0;dropTarget=0;container=1;fixDash=0;snapToPoint=0;allowArrows=1;connectable=1;portConstraintRotation=0;noLabel=0;perimeter=none;backgroundOutline=0;enumerate=0;comic=0;treeMoving=0;treeFolding=0;deletable=1;cloneable=1;rotatable=1;resizeHeight=0;resizeWidth=0;expand=1;editable=1;movable=1;resizable=1;locked=0;metaEdit=0;movableLabel=0;autosize=0;moveCells=0;gradientColor=none;glass=0;sketch=1;curveFitting=1;jiggle=0;" parent="1" vertex="1">
                    <mxGeometry x="248" y="217" width="20" height="160" as="geometry"/>
                </mxCell>
                <mxCell id="4" value="" style="endArrow=none;html=1;strokeWidth=2;" parent="1" edge="1">
                    <mxGeometry width="50" height="50" relative="1" as="geometry">
                        <mxPoint x="268" y="217" as="sourcePoint"/>
                        <mxPoint x="267.46" y="377" as="targetPoint"/>
                    </mxGeometry>
                </mxCell>
                <mxCell id="KC83Han23VEneGRMz_ao-5" value="" style="html=1;whiteSpace=wrap;shape=isoCube2;backgroundOutline=1;isoAngle=15;fillColor=#f5f5f5;fontColor=#333333;strokeColor=#666666;" parent="1" vertex="1">
                    <mxGeometry x="40" y="454" width="255" height="200" as="geometry"/>
                </mxCell>
                <mxCell id="KC83Han23VEneGRMz_ao-19" value="" style="html=1;whiteSpace=wrap;shape=isoCube2;backgroundOutline=1;isoAngle=15.395683453237437;fillColor=#fff2cc;strokeColor=#000000;" parent="1" vertex="1">
                    <mxGeometry x="105" y="453" width="125" height="62" as="geometry"/>
                </mxCell>
                <mxCell id="KC83Han23VEneGRMz_ao-47" value="" style="group" parent="1" vertex="1" connectable="0">
                    <mxGeometry x="125" y="476" width="2375" height="2527" as="geometry"/>
                </mxCell>
                <mxCell id="KC83Han23VEneGRMz_ao-21" value="" style="html=1;whiteSpace=wrap;shape=isoCube2;backgroundOutline=1;isoAngle=15.395683453237437;fillColor=#FF0000;strokeColor=none;opacity=20;" parent="KC83Han23VEneGRMz_ao-47" vertex="1">
                    <mxGeometry y="20" width="125" height="62" as="geometry"/>
                </mxCell>
                <mxCell id="KC83Han23VEneGRMz_ao-27" value="" style="endArrow=blockThin;html=1;rounded=0;endSize=4;startFill=0;endFill=1;flowAnimation=0;" parent="KC83Han23VEneGRMz_ao-47" edge="1">
                    <mxGeometry width="50" height="50" relative="1" as="geometry">
                        <mxPoint x="104" y="41" as="sourcePoint"/>
                        <mxPoint x="104" y="61" as="targetPoint"/>
                    </mxGeometry>
                </mxCell>
                <mxCell id="KC83Han23VEneGRMz_ao-28" value="" style="endArrow=blockThin;html=1;rounded=0;endSize=4;startFill=0;endFill=1;flowAnimation=0;" parent="KC83Han23VEneGRMz_ao-47" edge="1">
                    <mxGeometry width="50" height="50" relative="1" as="geometry">
                        <mxPoint x="84" y="51" as="sourcePoint"/>
                        <mxPoint x="84" y="71" as="targetPoint"/>
                    </mxGeometry>
                </mxCell>
                <mxCell id="KC83Han23VEneGRMz_ao-29" value="" style="endArrow=blockThin;html=1;rounded=0;endSize=4;startFill=0;endFill=1;flowAnimation=0;" parent="KC83Han23VEneGRMz_ao-47" edge="1">
                    <mxGeometry width="50" height="50" relative="1" as="geometry">
                        <mxPoint x="125" y="31" as="sourcePoint"/>
                        <mxPoint x="125" y="51" as="targetPoint"/>
                    </mxGeometry>
                </mxCell>
                <mxCell id="KC83Han23VEneGRMz_ao-30" value="" style="endArrow=blockThin;html=1;rounded=0;endSize=4;startFill=0;endFill=1;flowAnimation=0;" parent="KC83Han23VEneGRMz_ao-47" edge="1">
                    <mxGeometry width="50" height="50" relative="1" as="geometry">
                        <mxPoint x="62" y="62" as="sourcePoint"/>
                        <mxPoint x="62" y="82" as="targetPoint"/>
                    </mxGeometry>
                </mxCell>
                <mxCell id="KC83Han23VEneGRMz_ao-34" value="" style="endArrow=blockThin;html=1;rounded=0;endSize=4;startFill=0;endFill=1;flowAnimation=0;" parent="KC83Han23VEneGRMz_ao-47" edge="1">
                    <mxGeometry width="50" height="50" relative="1" as="geometry">
                        <mxPoint x="84" y="30" as="sourcePoint"/>
                        <mxPoint x="84" y="50" as="targetPoint"/>
                    </mxGeometry>
                </mxCell>
                <mxCell id="KC83Han23VEneGRMz_ao-35" value="" style="endArrow=blockThin;html=1;rounded=0;endSize=4;startFill=0;endFill=1;flowAnimation=0;" parent="KC83Han23VEneGRMz_ao-47" edge="1">
                    <mxGeometry width="50" height="50" relative="1" as="geometry">
                        <mxPoint x="62" y="40" as="sourcePoint"/>
                        <mxPoint x="62" y="60" as="targetPoint"/>
                    </mxGeometry>
                </mxCell>
                <mxCell id="KC83Han23VEneGRMz_ao-36" value="" style="endArrow=blockThin;html=1;rounded=0;endSize=4;startFill=0;endFill=1;flowAnimation=0;" parent="KC83Han23VEneGRMz_ao-47" edge="1">
                    <mxGeometry width="50" height="50" relative="1" as="geometry">
                        <mxPoint x="104" y="21" as="sourcePoint"/>
                        <mxPoint x="104" y="41" as="targetPoint"/>
                    </mxGeometry>
                </mxCell>
                <mxCell id="KC83Han23VEneGRMz_ao-37" value="" style="endArrow=blockThin;html=1;rounded=0;endSize=4;startFill=0;endFill=1;flowAnimation=0;" parent="KC83Han23VEneGRMz_ao-47" edge="1">
                    <mxGeometry width="50" height="50" relative="1" as="geometry">
                        <mxPoint x="41" y="51" as="sourcePoint"/>
                        <mxPoint x="41" y="71" as="targetPoint"/>
                    </mxGeometry>
                </mxCell>
                <mxCell id="KC83Han23VEneGRMz_ao-38" value="" style="endArrow=blockThin;html=1;rounded=0;endSize=4;startFill=0;endFill=1;flowAnimation=0;" parent="KC83Han23VEneGRMz_ao-47" edge="1">
                    <mxGeometry width="50" height="50" relative="1" as="geometry">
                        <mxPoint x="62" y="20" as="sourcePoint"/>
                        <mxPoint x="62" y="40" as="targetPoint"/>
                    </mxGeometry>
                </mxCell>
                <mxCell id="KC83Han23VEneGRMz_ao-39" value="" style="endArrow=blockThin;html=1;rounded=0;endSize=4;startFill=0;endFill=1;flowAnimation=0;" parent="KC83Han23VEneGRMz_ao-47" edge="1">
                    <mxGeometry width="50" height="50" relative="1" as="geometry">
                        <mxPoint x="41" y="29" as="sourcePoint"/>
                        <mxPoint x="41" y="49" as="targetPoint"/>
                    </mxGeometry>
                </mxCell>
                <mxCell id="KC83Han23VEneGRMz_ao-40" value="" style="endArrow=blockThin;html=1;rounded=0;endSize=4;startFill=0;endFill=1;flowAnimation=0;" parent="KC83Han23VEneGRMz_ao-47" edge="1">
                    <mxGeometry width="50" height="50" relative="1" as="geometry">
                        <mxPoint x="83" y="11" as="sourcePoint"/>
                        <mxPoint x="83" y="31" as="targetPoint"/>
                    </mxGeometry>
                </mxCell>
                <mxCell id="KC83Han23VEneGRMz_ao-41" value="" style="endArrow=blockThin;html=1;rounded=0;endSize=4;startFill=0;endFill=1;flowAnimation=0;" parent="KC83Han23VEneGRMz_ao-47" edge="1">
                    <mxGeometry width="50" height="50" relative="1" as="geometry">
                        <mxPoint x="19" y="40" as="sourcePoint"/>
                        <mxPoint x="19" y="60" as="targetPoint"/>
                    </mxGeometry>
                </mxCell>
                <mxCell id="KC83Han23VEneGRMz_ao-42" value="" style="endArrow=blockThin;html=1;rounded=0;endSize=4;startFill=0;endFill=1;flowAnimation=0;" parent="KC83Han23VEneGRMz_ao-47" edge="1">
                    <mxGeometry width="50" height="50" relative="1" as="geometry">
                        <mxPoint x="42" y="10" as="sourcePoint"/>
                        <mxPoint x="42" y="30" as="targetPoint"/>
                    </mxGeometry>
                </mxCell>
                <mxCell id="KC83Han23VEneGRMz_ao-43" value="" style="endArrow=blockThin;html=1;rounded=0;endSize=4;startFill=0;endFill=1;flowAnimation=0;" parent="KC83Han23VEneGRMz_ao-47" edge="1">
                    <mxGeometry width="50" height="50" relative="1" as="geometry">
                        <mxPoint x="22" y="20" as="sourcePoint"/>
                        <mxPoint x="22" y="40" as="targetPoint"/>
                    </mxGeometry>
                </mxCell>
                <mxCell id="KC83Han23VEneGRMz_ao-44" value="" style="endArrow=blockThin;html=1;rounded=0;endSize=4;startFill=0;endFill=1;flowAnimation=0;" parent="KC83Han23VEneGRMz_ao-47" edge="1">
                    <mxGeometry width="50" height="50" relative="1" as="geometry">
                        <mxPoint x="62" as="sourcePoint"/>
                        <mxPoint x="62" y="20" as="targetPoint"/>
                    </mxGeometry>
                </mxCell>
                <mxCell id="KC83Han23VEneGRMz_ao-45" value="" style="endArrow=blockThin;html=1;rounded=0;endSize=4;startFill=0;endFill=1;flowAnimation=0;" parent="KC83Han23VEneGRMz_ao-47" edge="1">
                    <mxGeometry width="50" height="50" relative="1" as="geometry">
                        <mxPoint y="31" as="sourcePoint"/>
                        <mxPoint y="51" as="targetPoint"/>
                    </mxGeometry>
                </mxCell>
                <mxCell id="6" value="" style="shape=image;verticalLabelPosition=bottom;labelBackgroundColor=default;verticalAlign=top;aspect=fixed;imageAspect=0;image=data:image/png,iVBORw0KGgoAAAANSUhEUgAADIAAAAyACAYAAAAOhJl4AAAAAXNSR0IB2cksfwAAAAZiS0dEAP8A/wD/oL2nkwAAAAlwSFlzAACxKgAAsSoBYacs7wAAACB0RVh0U29mdHdhcmUAR1BMIEdob3N0c2NyaXB0IDEwLjA1LjHGEMIMAAAgAElEQVR4nOzdT4xlV34f9u8jGkgXJJBTzkhyVWRCKAEauzv2GK6EC3UDUoAaSAOQwBhGj2ahmYUXzUWCBMiGs8ySXCaAgLAXXsxoQalheAASoIQpIBLQrQXjMjK2u+MRoPKAVrpiaZwnEjKqnTRws7j1+h+7ul69eu+dc+79fIAGm5xmv8Ope7vOn+/vdyZd12UdJpPJWj5nWLqdk5/M/rqRZPPk55eTbF/gN3+Q5OHJz6dJjk9+ftj/ZXJ4gd8bAAAA1qzbSLKVfu28dfIPN0/+fvbzzRf8i/N6ep384OSvD/N4fT158MV/BQAAAGr1wnX00+fPF1lHHyc5eurvZ2vm6ZMfk+mCvzcAAACMiCx5a9ZRmzFRAFLa4421nTx5KWcbbTU4zJOX+jDJUTI5fvm/AgAAAKvSzQIoO3lS4LHz0n9lfWYBl9lG2QObYgAAAJTVbefJGfR2Lh4OWaZZQciDJz+3jgYAAGBsXpglr+UMPJElPxcFIIPzzAu6nboKPc7j6UCLFxkAAIAV6WbFHbOQSk2bXOcxC7OcrKWFWQAAAFiFbhYQmZ1F11LocV6zNfQ0yaFbNwEAABgOWfKhUwDSvGeCKrMXdahmL/A0yX0vMQAAAOf3TFBldsPHUB3mcaBlcq/0YAAAAGhRN1s/P90ldIieDpXcVxACAABAO7qNJFfy5FaPMWTJj/q/jjNLrgCkSY832WY/xmr2EtuAAwAA4CW6p9fQQ97sOsu99Bth95LJtPRgAAAAqNHjBoSzH0NunPAyx0nu50lByCgDJQAAANSq205f9DH2M/BZU8RRZckVgDSju5r+Jb2S4XZVuYjZBtyhrqYAAACcrKNnG17W0V80TV8QMqqNMAAAAF7kcafQnSRXCw+mVidhEk0VAAAAKEWW/AyjyZIrAKna4+qsqxlvZ5VFjOYFBgAA4Gk2vBakGAQAAGB0FH1cgGIQAAAA1qSbrdudgZ/PcZKDDPQMXAFIdbrNJLtR9LEssxDLgc03AACAIeq206+jbXgtxyzEcpBMjksPBgAAgGV73Dxht/RIBuIwfSHIQemBAAAAMBSy5Es2uCy5ApBqdLPqLN1VVude+ltBbL4BAAA07XGX0t0k24UHM2QH6UMsh6UHAgAAwEUIjqzBrLPoYMIkAAAArFu3Gzd1rtq99LeC3Cs9kItQAFJUt5HkWmy0rdts8+2ubqYAAAAt6TaTXI/bPtZtmuSOhgoAAACt6WY3fQiOrNdh+kKQpsMkAAAArMPjLPlunIGvU9NZcgUgRQisVOQgfYhFFxYAAIBqdbMuJ7ulRzJyTW+CAQAAjEc3K/rYKT2SkdNQAQAAgFM8zpI7Ay/rOMn9NJYlVwCyVgIrFbuXvgvLYemBAAAAMNPtpN/0ElipS5ObYAAAAMPX7aZfR2+WHgnP0FABAACAE27rrNhBknstZMkVgKyFKq2GHCbZTyYPSg8EAABgvBR+NMTNmgAAAMUp/GiEQhAAAIDR6raT7MUZeAvupc+SV3sGrgBkpRR+NEyABQAAYO0UfjTsTgRYAAAA1kzhR6MUggAAAIyGLHnDqs2SKwBZiW4jfZWWl7V9B+mruGy8AQAArIxuJwMhwAIAALAW3U6St6Lwo3XT9EGSg9IDAQAAYNlkyQekuiy5ApCl62Yv60bpkbA0JwGWyX7pgQAAAAxLt5HkWvqOJwyHAAsAAMBKdJvpCz80UBiWw/Tr6MPSAwEAAGAZZMkHqKosuQKQpemupq/U0mVluKbpK7julR4IAABA+7rr6Ys/bHoNlwALAADAUmigMBIH6dfR09IDAQAAYBGy5CNQRZZcAciFdZvpX9arBT6cMg6TfGjjDQAAYBHdTvp19HbpkbA2d5LcrelKXAAAgHZ0V5O8GQ0UxuI4/Rr6TumBAAAAMC83do5Q0Sy5ApAL0a10xGy8AQAAnItupSNXRScUAACAdmhEOHIPknyUTB6UHggAAAAvI0s+YsWy5ApAFtJtp99sU6mFjTcAAIAzdTvpO5646pZ76dfRbgMBAAA4lfAIj91JJvulBwEAAMDzuu30N3Zulx4JxR2mb4a4tiy5ApBz666nL/6Ap9l4AwAA+IJuI/0aerf0SKjKcfoiELeBAAAAPKPbTN9AQSNCnqYpIQAAQFW6vSTXS4+C6uyv6zYQBSBz6zaS3IjNNk53mOTDZDItPRAAAIDyuu3062i3fnCag/SbYG4DAQAASHc1fedQt35wmrUFSQAAAHgRjRs401qy5ApA5mKzjbnpYgoAAKDjCfObJrmtiykAADBebs/kXA7Tr6M1UwAAAFgrWXLmtvIsuQKQM3VvxWYb56eLKQAAMEJuz2RhupgCAAAj5PZMFqIpIQAAwNpo3MDCDpLJh6v4jRWAnKrbTL/Ztr3E35RxeZC++8pKr/EBAACoQ7ed5NvR8YTF3UsfYNFMAQAAGIFuN8lbpUdB0+4kk/3SgwAAABguWXIubCVZcgUgL9TtpH9hhVa4KN1XAACAEeiup+96Ahf1IP06+kHpgQAAAKxO91Z0DmU5NFMAAABYie5qkjcjS87FHacvAjlc1m+oAOQLhFZYCd1XAACAAXLdLSuhmQIAADBQOoeyEtP0QRLNFAAAAJai20tyvfQoGJz9ZHJnGb+RApBn6LTCSh2kf3l1XwEAAAag20jy7QitsDpL2wADAAAor9tOv47WOZRV0EwBAADgwjRAZOUOksmHF/1NFIAkEVphjR4k+b4iEAAAoG3ddvqOpZulR8LgLWUDDAAAoKzuapI3o/iD1fswmRyUHgQAAEB7ZMlZmwtnyRWAuGb3JT7dTP7vp8I8D7aSh2dsSu4cPvn535wmr09XM7amPUjffcUVvAAAnGU3zwbs98749dP0N8/NHJz8M1iibif9OlpohXU5THJbMwUACnl6Dr6Zszu/PT8H31/6iABoTLeb5K3So2BUNFNgSJ6fgz+/Z/4iT8/Bn98zBwCAF+i20zdukCX/guez5Ic7L//1l4+T7aMnfy9LfooH6c/AF/r/ZuQFIK7ZTe5vJX+90b+Q/+ly8tebyV9tJ48uL/dzvnyY/Ow0+c8eJlsPkp+bJleOzv73Bus4ffWWIhAAAPby5BBr5+TnZxV6nNfhyY/ZQdf+U/8MzkFohWLcqAnAqszm4rtP/XyeQo/zmhWGPP1XBdsAg9e9leV/T4F5HCTZt46mETsnP2b74rtP/bNl2k8//57tlU+jYBsAAFny9Fnyv9xMjrZXlyW/9DD50oMnWfKdw+Rnj2XJF8uSj7gAZIwv7P2t5E93kr/YTv5qKzk+qyvCGmxMky8dJT//IPmVw5G9yIpAAADGZ+/kx9MBs9IOnvoxKwyBF1D8QXFu1ATgombF1rP5+LILrxe1n2fn5IpCAAZB8QfFaaZAjWaFHrtP/Sjt6QLt/SgKAQAYEVlyWfLiFsqSj7QApNtJciODf2Gffkn/cmf5t3qswqWHyc8djuwl/jCZuHIUAGCYni74qCVcdpbDPAmgKQjhhOIPqqGZAgDn8XTBx+yvLZjNxRWEADRL8QfVUARCaU8XfOxl+bd6rMrT83EFIQAAgzSWM3BZ8gYcp2+EeG/ef2GEBSBDf2E/3k3+Yiv586ttvKRnmb3Ef+sw+dV7yWsPS49oRRSBAAAMw2aSm+kPs24UHsuyzApC9pPcLjwWiuj2klwvPQp4iiIQAF5mJ/2cvKWCj7PMgme3okAboHLdRob1PYhhUATCut3Ik+ZIrRR8nOV2+nn5rSjQBgAYgCFnyT+7nPzJ1eTf7bRT8HGWSw+TX7yX/PxR8vUhZ63nzpKPrABkqC/sJzvJ/3llOEUfp5m9wH/nfvLGEA+5FIEAALRrFjAbStHHaQ7TH3QJno2GjqVUSxEIAE+bFWLfyPDnLgd5MicXPAOoSreR5NtJtkuPBF5AEQirNivEvpHhFH2c5naeFGgDANAcWfK2yZInoyoAGdoL++lm8ie7yadXkuPN0qNZv41p8vr95FcPkteHdMilCAQAoB2zgo8b6QNnYyN4NniKP6ieIhAAxlKIfRrBM4CqdDeSXC09CngJRSAs25gKsV9kmn5OPpuXAwBQPVnyYRlvlnwkBSDdTpLvrGUQK/fxbvJvdpPPt0qPpB6vHiV/+2BA1/ooAgEAqNdmkncyji5m5zErBHHINRhD2/hiwBSBAIzPTp7MyUd4oPVCs+DZe3FTH0AhmijQDEUgLMNenhR+0Jvdnv1eNEwCAKjUkM7AZcm/aHBZ8tvJ5N5p/+MICkC67fRX7W6sZRAr8/Fu8q+ujbNCa14b0+RXDpL/5iB57WHp0VzQLeEVAICqzAo/bkbI7GVm3Ydvlx4IFzGkjS9GQhEIwDjspp+P3yw9kMrdOvkxlEMugAYo/qA5ikBY1I08uYWPF5umn48rBAEAqEq3neb3lj+7nPxvu8mf7sqSv8zGNPm7dwdQCPLSM/CBF4C0Xvzx2eXk4+vJn+0mjy6XHk07Lj1Mfvkg+fqdhgtBhFcAAOow6y7c+EbA2h2mP+C6VXognJfiD5olvAIwXHvp5+RCZuezn35O7pY+gJVS/EGzDpPJ90oPgmbcTD8ndyv2+cwKQdzSBwBQlCz5OA07Sz7gApBuM/0itMEX1su6HM2/vIpAAADKUfixHApBmtJdTd/FD1qlCARgWBR+LIdCEICV6faSXC89CriAg2TyYelBUDWFH8uhEAQAoJiWiz9kyZdjEFnyW8nkmRsGB1oA0m2kf2G31/LBS/XBnpd12WYv77daPOASXgEAWK/NJO9G4ceyHSb5bpLbpQfCaVre+IJn3Esm/qwBaNtu+jm5wo/l2k8/J2/92nuASrhBk8G4k0xaPEdntW6kn5Mr/FiuW+nn5NOzfiEAAMsgS87ThpUlH2oByM0098J+spP80ZvJ8WbpkQzXxjT59Y+SN1rrqqAIBABgPd45+WFOvjr7Sd6OTmeV6TaS/PdR/MFw6GAK0KbNPJmTszrvnfwQOgNYWLcdzUMYlg+TiSJRkr7g4/0oxl6laZ7MyQEAWJlWiz9kyVev5Sz55NbsbwZYANK9lb5DWCM+u5z8YC/5SUNjbt3W/eQ395PXWzrgEl4BAFid3fSHWubk6yN0Vo1WN77gTPvJ5E7pQQAwtxvp5+QOtdZjmr4w261ZAOfmBk0G63vJpLXwC8ujGHv93NAHALBSrWXJP91M/mAvObpSeiTj8UsHyTf2k9celh7JOTzOkg+sACTX01Qngh9cS+5dd0VPCZceJlfvJN+4W3ok5+D6XQCA5XKoVdZh+tCZOW5R3Y0kV0uPAlbkdjK5V3oQALyUDsNluaEP4Fw0UWDQjpPcSiYatozPXvo5+U7pgYyUZkkAAEvX7SW5XnoU85MlL6fJLPl+Mrmz1gKQ/oaOVel2knxnhR+wRPe3kj98K/l8q/RIePUo+Y0PkytHpUcyJ+EVAIDl0GG4HrfTh84ccK1daxtfcG7CKwB1ezeKsWvxXvruwwC8lCYKDN6DJN9PJselB8JabKbfI79ReiC4oQ8AYHm6q2lmjitLXo/msuQru8Xz6cKSNRSAdJtJbqaJq3Z/cC35kW5m1fnqfiMVXMIrAAAXs5k+aHaz9EB4xjTJN+M2kDVqqYkCXIjwCkB9dpL8fpLd0gPhGQfp5+RuAwF4IU0UGI2DZPJh6UGwcnvp5+QaJNXlVvrCbHkQAICFyJJzUbLkTxeAvLLs3/wFbqT6F/azy8mtG17YWv1or//6fFb7FUobSW6cXDENAMD57Cb5YRR/1Ggz/dfm3dIDGYduM810PYEL204fagCgDjeS/PMo/qjRbvqvjXkiwBd0O1H8wXjsJp252rC9m34vVvFHfW6m/9p4BwEAzq07ydbKknMRrWXJV2vFN4C00G3l/lby0Y3k2AK6epceJl+7nbxRe5cznVcAAM7nZvqDLXPy+u2n7zysy9nKdDfTh+JhTPaTyZ3SgwAYuXeTvFN6EMzlvfSdhwFoqnsoLNWtZPKg9CBYqs30t34ImtVvmn4+fqv0QAAA2tG9leoLaT/ZSX54I3lUe3EB2Zgmb95OrhyVHskZlp4lf/oGkBUWgHRXU303Ktf0tOkrd5Nv7ZcexRluJ5N7pQcBAFC5zfRBM7d+tGWavgik9jl5g1poogArcZzk+8IrAEXspA+aVX74xnMO0s/Ja2+WBLBi3XfSfy+DsZmmLwI5Lj0QlmIv/Zxcg6S23EpfCKJZEgDAS7WQJf9gL/nxtdKj4Ly+up98427pUZxhqVnypwtAXlnWb/rcR2wkeXM1v/cyuKanbT++lvzOtyu/xufNk65DAAC82G7669IVf7RnM/3X7t3SAxmWbieKPxivyveRAAbrRpJ/HsUfLdpN/7Wr/OAUYJW6vSj+YLw246aIoXg3/V6rbEF7bqb/2llPAQCcqttM1WeAn13us8iKP9r0o72+FqD6LPlKbq5dUQFIbqTaq3Y/u5z8k+8kR1dKj4SL+OlO/3X8tNaNkI0kb5UeBABApWbFHw5G2vZOkvdLD2IYuo0I78H2SYALgPW4GV2GW7eZ/muoqB4YoW47mijA7kknXdr1fvo9VtrlrAMA4OXeSrVZ8k83+wzyTzWXaNrRlf7rWG0RyMqyICsoAOmup9puK/e3kvdvJp9vlR4Jy/D5VvL9m/3XtUo7wisAAF9wM32nWkGzYfD1XI43U+3GF6zV9ZPbcABYrfejkHdIfD2BkdFEAZ7y5klHXdqymX5PVSHvMPh6AgC8UM03d94/yR7Lkg/D5ye1AVVnyZfeyGTJBSDddqq9avT+VvLPvpMc2wAZlEeX+69rtS/u9ZP3AgCA/gBEMGl4Zl3OrLUW0l1NolsjPPHWqq7BBSBJPx8XTBoeay1gTK7FHgTMbKTvqEs7NuPGiKGy1gIAeKzmmztnWfJHtd4YwUKONyvPku8tO0u+7BtAKi3++GTHCztksyKQj2vdJHmz9AAAACrwbgSShmw3fZezWufkleo2Yr0Az9tMH+gCYLk2k/x+BJKG7Gb6r7FQNDBg3U6qDZBAMTtJZ0+uDbNGOr5ew/V++rMQAICxq/QM/ONdWfIhm2XJP6n05pnl1lgssQCku54qr+v5eDf5+Nte2KF7dDn55M1Ki0C2V3F9DwBAQ95P8k7pQbByO3GAeV5vpu/UCDzr+kmwC4DlmHUZvlF6IKzcjbidDxi2SpsRQnF7btOsnuKP8XgnmmEBAKPWXU+y1JsOluPj3T5jLEs+bI8u9zUDVWbJd5aZJV9SAUhXaXfG2QvLeFRbBHLt5D0BABgb156PyyxcWOOcvDLdTpKrpUcBFXur9AAABsL8bHxm4UL70cDAdHupMkACVXDLbN3Mz8bnZhSBAACjJEtOLYafJV/WDSB7qa5rqRd2vKp8cTcivAIAjI/ij3ESMjxTZ30AZ9s8CXgBsDjzsvESMgQGpttOsrQOiTBQV92mWSXzsvFSBAIAjNFbkSWnGtVmyZdyBr6EApAau5Z+suOFHbsqX9ydpKvsXQEAWJl3o/hjzIQNX+5aHPrCPK67TRPgQszHxm0WNgQYAsXhMB8NR+qyE8UfY3cz/VkJAMAIdFfTz4EroviDT97sawqqcnUZWfJl3ABS2SbC/a3khzdKj4Ia/Iu9/nmoyt5Jt18AgCG7meSd0oOguM30Hc4ccD6j24yupXAegl4Ai3k/ij/onwFdh4HG1RgggWq5TbMem0l+P/ZG6c9KNMsCAAauW9qtBstzf6vPEMMPb9SZJb+YCxaAdHupasF6fyv5Z99JHl0uPRJq8Ohy/zxU9eJupu/2CwAwVK4152mzrsMVrRuLs8kE53P15PZZAOb3fgSMeMIaDWiddTScz66GhMW5HZnnWaMBAEN3LVVlAmTJeVqtWfKLNXC4QAFIt5GqFqyfXU4+uuGF5VmzF/fTir65ZPek6y8AwNDsRbCIL5oVgdCH2C98lSeMkMAXwPzejWARX3Qz/bMB0JjamhFCEyrsvDs6v5+qsjRU4v14NwGAQeo2U9X899NNxR980aOTGoPPanouLtTA4SI3gOyl3zyowGeXk3/yneTYBiAv8Ohy8k9renE3klwvPQgAgCXbTX+wBS+yG8VBiQM+WNR20llHA5ztZpJ3Sg+Car0TxUFAU2prRghN2U267dKDGCkhf15GcRAAMETXU1WW/J+6SIBTHG/2tQZVZckXXj8uWABSW8XW772VfF7T1SxU5/Ot5HdvlB7FU9wCAgAMyWb6gwvzG15m5F2Hu90kDt5hcdcu0gEFYAQU3DKP91PV2Q7AS1XUjBCapAhh/dzGx1mcpQAAA1Nblvx3b8iS83Kfb/U1B9VYOEu+6A0gFXVd/MG15OhK6VHQgp/uJB/UtNFV01gAAC7i/SQ7pQdBE97JeOfBFa2joUkbSa6VHgRApWYhIpiHwBnQgNoCJNCknaSzZ7s+u3EbH/PZieJ9AGA4Kjr7/2CvzwjDWY6u9LUH1VgoS7JAAUhNG273t5IfVfQHCPX78bXkk1r+kL9q0w0AGIB3ktR00xr1G2HgrNvN6P6bYSV23QIC8EIKsjkPgTOgBZoowHJ4l9ZDQTbndSMKhgCA5nU7Sa6WHkXvk50+Gwzz+tFeX4NQhYVuAVnkBpBKNgk+u5x8JGjGAn54o39+qlDJ+wQAsJDd9Nfaw3lsZnyBM/N+WA63gAB8kYJsFiFwBlSspmaE0Dy3gKyHgmwW8W58vwMA2lbJGfhnl/tMMJzXR01nyc9ZANJtp5oFyO+9lRzroMoCHl1OfreWP/BtugEArdLVjIsYUeDM7R+wZG4BAXhCQTYXIXAG1KqSAAkMhndqtRRkcxEjvC0bABiGbifVFEH/7o0+EwzndbzZ1yJUYfekRmNu570BpJLDgB9cS46ulB4FLfvpTvLBXulRnKjkvQIAOBddzbiosQTOHLLDcrkFBKCnIJtlEDgDKuP2D1gBDQlXR0E2F7WT8d2WDQAMQyVn4B/s9VlgWNTRlb4moQrn2hM7RwFILRtu97eSH9US3KdpP76WfFLDH/5XT94vAIBW6GrGsgw8cOb2D1iRCvanAIpTkM0yCJwBtTHXh9WoJJw1KAqyWZYR3ZYNAAxDt5kq9qY/2ekzwHBRP9rraxOK2z1Plvw8N4BUsinwh7Vct8Ig3K2lmKiS9wsA4Ew7cRjB8gz9eRJcgdXYOCmwAhirG1GQzfJ4noBKdBuxjoZV2dGQcOneSRWhNwbC8wQAtKSSrOsfvVl6BAxJNbUJc79fcxaAdBtJriw4mCX6wbXk8xqqbBiMz7f6a6CK2z15zwAAavdu3GjAcr2TpIY5+ZJ1O0m2S48CBqySzWWAtdtMPyeHZbLOA2pwLYmzMlgd6+jl2c2wm9qwftZ5AEAjamne8MFecmw/kyX6fKuvUSjuyrxZ8nlvAKlgw+2zy8k9mxKswJ/tJp/W8M2ghj88AABeZi86w7IaQzzcqmDjCwZt86TQCmBsdIZlFYZ+Mx/QhqulBwADt+sWkKV5v/QAGKQbGWSjJABgYCrIuH662Wd+YdnuXe9rFYrayJzv2bwFIBVsuP1gL3lU+v9YBunR5eQPalhI+6YEANRsMw62WJ2Bdc3rNlPFOhoGzzoaGJuBzZmozDvxvRUoptuNm4hgHXyvvzhzJlbJGQwAULsK5sJ/IEvOijy63NcqFDdX1mSOApDuaopvuH2yk/ykgj84GK6jK/1zVtTGyQY3AECNdBpm1d5J8bXn0pjXw3pc1b0UGJkh3ppGXTxjQCmaKMB6eNcuZjMKslmtnZiTAwDV6nbT305Q0Cc7fdYXVuUnuxVkyTdPajdeap4bQCp4We7WUFHD4P3Rm6VHEJtuAECdduJgi9XbzHAOtxSAwPp434CxuJnEPjmrtpf+WQNYo24zmo7AuswVIuFU72Y4DWyol2ZcAECtKlhLVJHxZfCqqFk4s3bjjAKQbjPFX9oP9pLPt8qOgXE43uyft6J2dC8FACrk2nHWZQDBxu5qinc+gVGpYLMZYOWGVChL/QQbgXVT1A3rVUED0CYplGWdnMkAAJWpoXnDB3t9xhdW7fOtCrLkV8/Kkp91A0jhDbfPLid/ZtOPNfqz3f65K8ozDwDUZC/NB/JpTOu3zThEh/XSvRQYg3cikM/6bKb9OTnQFudisF5nhkh4IfMj1sm5DABQG1lyRqb+LPlZBSCFD9A/vp48Kv1/IKPy6HL/3BUluAIA1MTBFuvW8OFWDbdowigpvAKGbDM6DbN+N6PoCFiLbjdu0YQS7F+dT8P7lTTM2QwAUBNZckam/iz5SwpAuu0U3eBXsUUpxSu3dC8FAGrhYItSWj3cMo+HMq4mndAYMFRu/6AEt4AA67JTegAwUhopnI95ESU4nwEAKtFdjSw5o1RFlnz7tP/xZTeAFF70q9iilCoqt2x4AwA1cLBFKa0ebjk8h3K8f8AQuf2DktwCAqxYtxGNFKCU7ZObbDlbq/uUDIMzGgCgBoWzrLLklFJFlvzUM/CXFYAU3nD71ME9BRWv3PL8AwClOdiitMYOt7rNJKd2XwBWTiMFYIjc/kFJCpCAVXMWBmXpoDufxvYoGZi9eFcBgPIKrt/d/kFpxWsZTq3lOKUApNtO0YOlj3eTYwdbFFS8cmvj5OosAIBSbpQeAKPXWhGS+TuUdfWkgzDAkJiTU5oCEGCVFHFDWfayzrabtvYnGSZzcgCgoO5qkoLnb27/oLTjzb6moZjNk5qOLzjtBpDCFVP/6lrZz4ekgsotG98AQCk7cahAHVoKPZZePwDeQ2BYbsb+IOVZGwIr0m1E+BxKOzVEwmPmQdTA2hAAKKnwPKR4hhdSQU3DC2s6TisAKfjSuv2DWhSv3PLNCwAoxbX21KKRw61uM4kDcyivgT8vAOZmTk4tPIvAKjgDgzp4F0+nEJaamJMDAKUUXDPIklOL4lnyF56Bv6AApNtOUvCl+TeFbx+BpxV9Hjd0XQEACjYr6j0AACAASURBVNiMgy3q0sLzqGsp1MG7CAzFjShqox47aetmPqANzr+gDuacp2thT5LxuJmiOS4AYJy67SQb5T5flpyaFH0eX3iD54tuACm4yP90M/l8q9znw/M+30rul3wmdV0BANZNsIfatHDYah0L1egUgQBDsFd6APAczySwbM6/oA7bSVcw0FU1++TUxjMJAKxbwbX7/S1Zcury+VZf41DMF2o7KisA+RMVW1ToX5YMj+i6AgCsWwthe8ZlM/Ufbpm3Qz1sBgOtcyMfNdJxGFii0h1EgecoyPoiN/JRI+tEAGDdCs6Ji2Z24RRFaxzOKgDpNl70i9bnU5sLVKjoc6nrCgCwTjtJFGVTo4o7Dnc7EVyBmtgQBlpXe+Er4+XZBJbFeTDUZbv0ACpU8V4kI7YbhUkAwNp0Gym6VpAlp0ZFn8ud57Pkr0wmk0wmk6d+QSn3t5JjHaSo0PFm8sclX1zfzACAddFBilrV3HHYoRvUZTPpav3zAmAeQvbUyrMJLIuwOdTFWfSz3MhHzTybAMC6FFwn/PEVWXLqdLzZ1zoUszOr+ZhMJs/fAJKCA/vfdRqmYj8pGeqyEQ4ArItADzWr9flUAAL18V4CrdqJbsPUay++xwLL4c8SqMtG0jmPfqLWPUhIPJ8AwPoUXCMUzerCGYrWOjxT4/F8AUjBF+fPr5b7bDjLn19NPrtc6MNLVowBAOPh+nBqV+vhlgNyqI/3EmiVbq7UrtY5OdCMzt4T1Ml59BPmO9RsJ/1ZDgDAqhVaI3x2WZacuhV9Pp/ZV3u+AKTQAfnHu8mjUuF6mMOjy8mflHpxt5Nuo9BnAwDjIWxG7SrsOCy4ApUSXAFaJWxG7awbgYuyjoY6aaTQcyMfLTAnBwBWrNtIsTXCn1yVJadujy73NQ9FPPNePlUAUjK48hcO5mnAvyu5KW1DHABYNQdbtKC2UKR5OtRJIwWgRW7kowU78ZwCF7NZegDAC/n+3qtt7xFexFkOALBqBdcHRTO6MKeSNQ9Paj2evgGk4Ivz7720NOAvSz6niqQAgFUSNqMVtV1vrzsi1Mv3NaA1Qjy0QjASuAjzdKjTpkYKSerbe4QX2YlnFQBYrYJZ1aIZXZhT0ZqHFxaAFAqufLqZHOv2QgMeXU7ul/rmJlgGAKySsBmtqO1ZVagN9fJ+Aq0R4KEVnlVgQd12EgFzqJegVX17j3AazyoAsEqFsqr3t/qMLtTueLOvfSji8fv5dAFIoYPxf3GlzOfCIv601MaX4AoAsEoCPLRiM9U8r91mBFegZhopAK0R4KEVnlVgURoCQt3Gfh69G39O0Y5K9sgBgIEqtDYols2FBRSrfXj8fp4UgHQbKRZc+QsH8jSk2PO6cRIwAwBYBQEeWlLL82p+DnXzjgItETajJRUVZQONGXu4HGo39vloLXuOMA/PKwCwIiWbIMqS05KiWfKN5MkNIAU33P5S1RYNKfq8jn3TDQBYDWEzWlNL2MxaFuq2Odv8AmiA8A6t8cwCixDkgLqNfY+4lj1HmIeibABgVQquC2TJaUnR53UreVIAUmjD7f5W8uhymc+GRTy63D+3RfgGBwCsguAOranlmR37oTi0QIdhoBWCO7TGMwsswjoa6jb2Iq1a9hxhXp5ZAGAVCmVUP9mRJactRbPk28mTApBCG25/KtBOg/7l1UIfrHMpALAKgju0ZjN1HG4JrkD9xh5eAdpRw9wGzsMzC5xTtxHraGhAN9b8hluyaZGzHQBgFQrNiw/HuhahacVqIDaT4gUgf+Egngb9h1JVWzadAIBVENyhRTU8t9azUD+dgoAWCJvRos0InAHn43Y+aMNY56U3Sg8AFlDDHjkAMDyFmpQXy+TCBRSrgXimAKTQy/Mfx7qBQNOKPbeqHAGAZdvJeA/1aFvh57bz3kAbFGoBLRCip1WeXeA83HIPbRjrntdY/7tp22ZkSACA5Ss0v5Alp0XFntut5EkBSKFNt89VbdGgY99sAIChcDhAq0o/u9YE0AY3gAAtKD2vgUV5doHzcCYMbRhrsZZ5Da3y7AIAAyGTS4uK1UBsJMkrSVeoG+J9G3007JNCC+nOAh4AWCYdW2lV6evtbUBBG9wAArTAfh+t8uwC5zHWUDm0Zqx7XvbJaZVnFwBYolLZ1FJZXFiGUrUQ3fYrKdYN8a9t9NGwY11EAYAhGOuBHsNQ8vn17kAzOvtPQO0cbtEqc2LgPPyZAW0Y47u6mXH+dzMMnl0AYJkKnanJ4tKyYrUQl19JsW6Ihw62aNhRqS6i3hsAYJl0h6JlJZ9fB2vQDjfQArUzJ6dVpW/lA9piHQ1tGOO7aj5Oyzy/AMAyFTpTK5bFhSUoVguxfSnFbgD5T6q2aNi//fvJ7xT4hvfHbyX5f9b/uQDAQF0rPQC4gP8lyf9V5qP/x63kl90qAE34X/eSHJceBcApzCdo3Z34PgvM5Xc0OINm/MKvJ//+/ys9ijX6L0oPAC7gWpIflh4EADAU3/wbya99af2f+/kvrP8zYVmK1UJcvlTog5P89Ri7RzAY/+/PJD+1WQ0AAOX8nZMfBfyHJK+V+WjgnP7mTvKvSw8CAIZKUwFgTj8tPQBgbj/jDBzasRE38wEAS2X9DudTrhbilSSFrs/5K9f2wLlpCggAAOU5BwcAAID56AkIAAAA9ZNNhfMrVgux/UqhD07yqNS1JwAAAAAAAACsnAIQaIvQFwAAAMynXC1EoQKQzxR/wEJskgMAAMD8rKMBAABgflulBwAAABThTA0WU6Ym4pUkO+v/2B+XuvIEGuebLAAAlGU5C23RuRQAAMoyJwcAAID6yabCYorUROwUugEEAAAAWuRCSwAAAJif2wQAAAAAYJkUgAAAAAAAAAAAAAAAAFSuUAHIA61eAAAAAAAAAACqsV16AAAAANCQMjURhQpAHm6U+VwYAq8PAAAAzGen9AAAAAAAAACgYjKpsLgyNRGFCkCAxblABwAAAAAAAAAAAICLkkmF1igAAQAAAAAAAAAAAAAAqJwCEAAAAAAAAAAAAAAAgMopAAEAAAAAAAAAAAAAAKicAhAAAAAAAAAAAAAAAIDKKQCB5hyVHgAAAAAAAAAAAAAAzZNJhdYUKgC5fFzmc2EIvD4AAAAwn8PSAwAAAAAAAICKyaTC4srURBQqANlWLgYAAAAAAAAAUI0HpQcAAAAADSlTE1GoAAQAAAAAAAAAAAAAAIB5KQABAACAuT0sPQAAAABoSJEmiAAAAAAwWK8kOVz/x37FvaGwkGnpAQAAwMhZzkJbjksPAAAARs6cHAAAAOonmwqLKVITcVjoBpDXtEyFhfgmCwAAAPOzjgYAAID5ubUHAADGyZkaLKZMTUShApAkuaQIBAAAAAAAAGCwBEigLW7tAQAAgPmUq4V4JUmJq0eSfKnQ50LLbLgBAEB5h6UHAAAAAI1QAAIAAAD1k02F8ytWC/HgUqEPTvKz0+Sn5T4eLuRnfpr84o/X/7lHf57kJ+v/XABgoN5O8qXSg4AF/WGS/6PMR3/lv0x2vDvQhD/810n+qvQoAE7xpfRzcmjV+/F9FpjLV66XHgEwr0f/PEmxDqYF/P0kv1F6ELCgv0o/JwcAWIK/8UvJV35x/Z/7519J/uOX1/+5sAw/W6zzySTprifZW/9Hf7CX/Pja+j8XluErd5Nv7Rf44DvJpMTnAgDD9MMUWQvAUnwtSaG5cXcjydUynw2c0/eSiWt7gJp1pQcAFzApPQCgFd3/kGSz9CiAeUz+p9IjWLO99Pvk0KL99PvkAABL0O0lKdDAQZaclhXLku+/kqTQ9SM7Dt9p2Fapa3u8NwDAMh2UHgBcQMnnt1gXB+DcjkoPAOAM5uS0SqMi4Dyso6ENY3xXzcdpmecXAFimQmdqxbK4sATFaiEevJJi13f+7HGZz4Vl2BjTtbcAwHCN8UCP4Sj5/Hp3oBkT+09A7TR8oVXmxMB5+DMD2jDGd3Wacf53MwyeXQBgmQqdqcni0rJitRAPX0kmhaqnrujASMPeKHQwO3EgDAAsk+5QtKp0t2EHa9AGHYOAFtjvo1WeXeA8FGZDG8a652WfnFZ5dgGAJSqVTS2VxYVlKFULMXnwysnPCm26vaoIhAZtjHXjCwAYHgtpWlX62bUmgDboGAS0oPS8Bhbl2QXOw5kwtGGsxVrmNbTKswsADIRMLi0qVgNxnCSzApBCg/gZLy0NKvbcWrwDAMt2GEF22lT4uZ14b6ANbgABWqBjK63y7ALnMdZQObRmrHteY/3vpm3TyJAAAMtXaH4hS06Lij23R8mTApBCg/h5B/E06D8vVbXlmxwAsAr7pQcAC6jhubWehfq5AQRowUHs+9GeaRSAAOfjBhBow1jnpbdLDwAWUMMeOQAwPIUaOBTL5MIFFKuBmCbFC0B+RTU6Dfp79wp9sO5IAMAqCO3QmmnqONwa64E4tEShFtCKGuY2cB6eWeCcJsexjoYGTMaa31CUTYuc7QAAq1BoXrwz1rUITStWA/FMAUihA/ErR8kl3RhpyKWH/XNbhG9yAMAqCO7QmlqeWYfCUD/dgoBWCO7QGs8ssAjraKjb2Jso1LLnCPPyzAIAq1Aoo/rGoSw5bSmaJX+QPCkAKXgg/nNC7TSk6PNqYxwAWAXdzWhNLWEza1mo2/SkyzBACwR3aI1nFljE2MPlULux7xHXsucI85jGMwsArEbBdYEsOS0p+rweJY8LQEpeu/vzNvtoSLHn9TiZjH3TDQBYHeEdWlLL82p+DnXzjgItUZRNS4TNgEW5oQ/qNvb5aC17jjAPzysAsCKTaZJCDdZkyWlJsef1cRPEV579hyX8g/tlPhcW8SulqrZsigMAqyS8QysqCpuV3PwC5mCTGGiNAA+t8KwCixp7uBxqN/bzaEXZtKSSPXIAYKAKrQ2KZXNhAcVqHx6vW58uACl0MP76NNmwkKYBlx4mV0ptfAmuAACrJMBDK2p7Vsd+MA41834CrRHgoRWeVWBBkwfRSAFqJmxV394jnMazCgCsUqGs6pWjPqMLtduY9rUPRTx+P58uACm4oP8Fmwk04OdKPqeCKwDAKh3EAR9tqC1splAb6uX7GtAaAR5acbv0AICmmadDnabJRIFWfXuP8CKH8awCAKtVMKtaNKMLcypa8/D4s58qAJkUHNDPC7fTgL9VxUsLALAiAme0oLawmXk61OmB4ArQIEXZtOAwnlPgYkp1RwRezvf3Xm17j/AiznIAgFUruD4omtGFOZWseZi8qAAkSbHupV8/cHUPdbv0MPnVe4U+XHAFAFiHW6UHAGfYT3WH0SUbKQAvodEI0CqBM2pn3QhclHU01Mktt73DCNdTP3NyAGDFJscptkb41Xuy5NTt0sO+5qGIZ97L5wtACm66/WKpcD3M4RfvJa+V+sYiuAIArIOOw9Su1kCkA3Koj/cSaJUgD7WrdU4ONEMjBaiU8+gnzHeo2WH6sxwAgFUrtEZ47aEsOXUr+nw+s6/2fAFIwYX9f22RQsV+qeSGtOAKALAuDreoWa3Pp/AK1Md7CbRKx2FqVuGNfECj/FkCdTlOJs6jn6h1DxISzycAsD4F1whFs7pwhqK1Ds/UeFR0A8iVo2RjWu7z4TQb0+TX7hccQMnPBgDGRcdhanUrSa3rRRtQUJdpMqn1zwuAeQj0UCvPJrAsguZQF2fRz5rGPjn18mwCAOtScJ3wa/dlyanTxrSvdSjmZTeATI6f/wXr9brNBSpU9Ll8cPJeAgCsg+vDqVXFnbAnh0nM2aEeroUGWidkT608m8CyOA+GuijK+qKK9yIZsYNoRgQArM3kOEXXCrLk1Kjoc3n4fJb8+RtATn5RKb8qbEaF/l7J8IgFPACwbjpIUZtp6g+bmbdDPUp2XQFYBh2HqVHNN/IBzZk8iEYKUBPBqi+6Hft91Mc6EQBYt4Jz4qKZXThF0RqHL7yPlRWAvD5NXnVQT0VePSp8ZY8NNwBg3WoP2jM+LRxsWcdCNSY2hIEh0HGY2ngmgWVz/gV1ePB8B1Ees09ObTyTAMC6FVy7XzmSJacurx71NQ7FzFMAMnmQop2c/rZbQKhI0efx+OR9BABYJx2HqU0Lz6PAOdTBuwgMhY7D1OQwwmbA8jn/gjqYc56uhT1JxsONfABAAaVv8JQlpyZFn8fpi7LkL7oBJCl6YP71g2TDwoUKbEz757EY3Y8AgFLeKz0AOHErTRxET6YRXoEaNPDnBcDczMmphWcRWAVnYFAH7+LpDqMIhHqYkwMApRRcM8iSU4viWfIX1nScVgBSeKH/d++W/XxIktdLb3gJrgAApTjcohYtdRouvX4AvIfAsDRSCMvAWRsCKzI5jhv8oLQXdhDlGeZB1MDaEAAoqfA8pHiGF1JBTcML34NTCkAmD1L0+kCVW5R26WHy9TsFB3CcTGx8AwAltRS8Z5j2T360wvwdyrp3EiIDGBJzckoTegRWSZgVyrKXdbaDtLU/yTCZkwMABU3uJSl4/vb1O32WF0opfvvHqc0bTrsBJCm+4Fe5RUm/fJC8VvIbh+cfACittfA9w9PYtfaTaRJdE6Ec4TFgiN5L0UZNjNw0wmbAajkLg7JKBlha0tgeJQOzH+8qAFBewfX7aw/7LC+UUryW4dRajpcVgBQetMotSil++0ciuAIA1MHhFqW0WoBUevEPY+b9A4ZIAJ+SbkUBErBSk+MUb0gIo/XgpJkJZ2t1n5JhcEYDANSgcJZVlpxSqsiSn3oG/pICkMmDFN3cV7lFKcVv/5ieXJ0FAFCawy1KafVgyzweyrh3Eh4DGCK3gFDCNO3OyYG2aIgGZWiicD7mRZTgfAYAqMTkXmTJGaUqsuQPTvsfX3YDSFI8vKJyi3WromJLaAwAqInDLdat4YOtyTTm81CC4AowZG4BoQS3fwBrMjlIopgb1s/+1fk0vF9Jw5zNAAA1kSVnZOrPkp9VAFK4akrlFutWvGIrKf7eAQA8w+EW69b6wZYgOqyXWzSBMXALCOvk9g9g3ZyLwXrdO2liwvmYH7FOzmUAgNrIkjMy9WfJzygAqaF76bf2k1ePyo6BcdiY9s9bUYc23ACACr1degCMxq00f7A1uRfdS2GdFH8AYzBN8t3Sg2A0vhsFR8B6CXDAemlespj9uJmP9XEmAwBUZjJNclh2DN/a7zO+sGqvHlWQJT+zecNZN4AkVWwAXCv9fySj8OsflR5BBFcAgDodRoczVm9IwUbhFVgf7xswFgMolKUBgo1AATWESGA03KJ5MQplWYf34vsiAFCnCtYSVWR8GbwqahbOrN2YowBkci/FF7FvHCa/5ECfFdq63z9nRR0nE885AFArhw6s2nspvvZcGvN6WI8zO58ADMxQimWpl2cMKKWCEAmMgnftYqbRKInV0owLAKjY5CDJcdkxvHHYZ31hVX7poIIs+VzNG+a5ASSpYiPgG/vJpYelR8EQXXqY/GYNFVtCYgBAzaZx7Tirc5BBHWxNpqliHQ2DZx0NjM3A5kxU5r343goUMznIcJpCQM3ulh7AAJgzsUpvx/dDAKBuFcyFf1OWnBW59LCvVShurqzJvAUgd1O8cuu1h8nVO2XHwDD98kHyeg2LaBtuAEDt9pPcLj0IBmmInYYr2PyCQZsmk9LdVwBKcDMfq6DTMFADjRRgtQ6SSeHMx2BolMQq3E5/BgMAULMKMq6vT/vMLyzb1Tt9rUJRx5nzPZuzAGRynKSCa3O+cTd59aj0KBiSjWnyrRoW0TbcAIBWfDc6ULFc72WQB1uTwyQPSo8CBkyTEGCsphlm8SxlWecBNaigISEMmnX08riZj2WzzgMAGjE5ThWNEL+132d/YVlePeprFIq7P2+WfN4bQJJqNgR+48PSI2BIfv2j0iM4Ucn7BQBwJp1hWaahP08VbH7BIE2TifcLGLPbcTMfy+N5AipRS4gEBukwmQhHLZeb+VgmzxMA0JJKsq7VZH8ZhGpqE+Z+v85RADKZpopNtytHyVcH2B2W9fvK3eSNGhbR92y4AQCNeS8CQizHNzPoTsOTgwz6vw+KuVd6AAAVeDsCQlzcYfpnCaAWFZxFwyBVEtAalGn6vU24qNsZdpMkAGBwJtNUcVb3xmGfAYaL+up+X5tQ3MF5suTnuQHk5DevwTfuJlv3S4+Cln35sL8GqgqVvFcAAOcicMZFvZdxzIUdsMNyHSexmQsgcMZyDLwgG2hPLQ0JYVAOk4l93NU4SPLd0oOgaQqyAYBWVbJ2/9Z+nwWGRW3d72sSqnCu9+qcBSCTB+f9gNX5rQ+TDQcTLODSw+S3a+lYbcMNAGiVwBkXsZ/RHI66BQSW7CCZHJceBEAlBM64iO+mmvMegGdopADL5Z1aLbdlcxEKsgGARk0OU03D0N++3WeC4bw2pn0tQhUOTmo05nbeG0CSajYIXnuYvGkhzQK+drt/fqpQyfsEALAQgTMWMcbiIfN+WA63fwB8kcAZi7id/tkBqJBbQGCJNCNcj7cjxM/5KcgGAFpXyRn4aw/7TDCc15tNZ8kXKACpadPtylHy1f3So6AlX7mbvFHLJteBDTcAYAAEzjivEXY1cwsILInbPwBe7O1U022NBhymf2YAalZJiASa511ajzE2vOFiFGQDAAMwOUxyr/Qoem8c9tlgmNdX9/sahCocnNRmnMsiN4AkVW0UfONusnW/9ChowZcPk2/VVDBU0XsEAHAhAmfM670kNc3J18n8Hy7G7R8ApxM44zxGWJANtKemhoTQLLd/rNd+BPqZj4JsAGBIKjr7/9Z+nxGGs2zd72sPqrFQlmTBApDaNt1+68Pk1VoqcajSq0fJb9fUmXqhii0AgErNAmfmN7zMrfTX2o/U5CDJg9KjgIbddfsHwEsdRIiIs72dqs52AF5qP30hOLCYioJYo/Hd9HugcBpnKQDAwNSWJf/t27LkvNyrR33NQTUWzpK/0nVdFvmRqjbdXnuY/OPvJRsWSbzApYfJP7rdPydVOI7uvwDA8BxE12FOJ5DYc/AOi3mQTKyjAc52K7oOc7r3IpAINGVynKpCJNCUg2SiEUkZCm55mW/G8wEADM+dVJUl/0e3+8wwPG9j2tcaVJUl30+yUB3HgjeAJPVtur32MHnTi8tzLj1M/uH3ktdrKg5y+wcAMFT7EfLniw6SfK30IOowOUxyr/QooEGKpwDmp+swLzLy2/iAdk32o0s6nNfjAAnFfC1VZWmoxNvxbgIAg1TbLSCvT/vMsCw5T7t0UmNQTfFH0mfJFy6eukABSFLfptuVIy8uT8yKP67UdKXTNMnd0oMAAFihW1EEwhOz4o+K1o3FOeSD87l3UjwFwPzejiIQnrBGA1pnHQ3nc6EACUsxjSIQnmWNBgAM3d1UlQmQJedptWbJJxfa87pgAUiS5MMl/B5LdOUo+drt0qOgBv9gv7IXNkn2bbgBACNwK8l7pQdBcdP0B1sVbfTUYDJNfw0uMB9hL4DFvB2BM/pnQPEH0LjJvSSKwmE+Fw6QsDT2Rpl5L4o/AIDBm1R4E+GVoz5DDF+7XWGW/MK1F0soAJkcJrl38d9nmd44TN74qPQoKOmNj5Kv13bAeXiySQ0AMAbfjUONMdPl7uUq64AC1bpzUjQFwGLMx8ZtdhsfwBAIbMB8KmveOXpuR+ZW+rMSAIARqLGBw9cPZMnH7o2P+pqCqtw7qb24kGXcAJL0m26V3WrgxR2vKos/jmPDDQAYH9eaj5PijzNNrA/gbLqWAlycedl4CRsCAzN5ELdpwlmWEiBh6czLxutW3MYHAIzPh5ElpxrVZsmXcga+pAKQyTR9B9PKeHHHp8oXNknu6loKAIyUIpBxETKcW423aUJVFEkBLIf52fgIGQIDNdlP8qD0KKBSx0nkIuplfjY+ij8AgJGSJacWw8+SL+sGkCSTO6nu+p6k/wL++u3k0sPSI2GVLj2s+IV9cPJ+AACM1dtJ3is9CFbuMMKF5/VRquuAAlW4o2spwFLNikBulx4IK3c7woXAsLklEF5s/+TGWeo1KwKx3zF870XxBwAwapM7qbKBw6wIRJZ82C497GsGqsySHy4zS77EApAk1XZn/LX7yT/8nhd3qC497L++Vb6wiW4rAABJ8t049BiygyT/VRR/nNNEd0b4oko7AwE0b5rkm3E735DdSv81VvwBDNjkMImma/Csw2RiT64N9lCH7+30ZyEAAGNX6Rn41w9kyYdsliX/tfulR3KKpdZYLLkAZDJNtZ1Xrhx5cYdo9sJeOSo9klPcSSYVVjMCABTh2vNhmnWvEzRbyOReknulRwEV+VDXUoCVejuKQIbIWgsYk7uxBwEzx6m2SSenmN3OpwhkeKy1AAAemzxItQ0cZMmHqfos+f5JjcXSLPsGkJxcT1LptZVXjpL/7n9OXq31C8y5vHqUfPtWxS/sYTKptCAKAKCYW+m7nDmoH4ZbUfyxDB+lP7CHsbtz0tEXgNV6O4oFhsTXExiZyXGS26VHAZX4aNkBEtZiVgSiWGAYpunPPHw9AQCeMdlP1Vnyb9+SJR+KV09qA6rOki+9IGoFBSBJ+k23SsMrrz1M/vH3kq1ar3hhLl8+7L+Or9e6oaXbCgDA6WY3Ruhy1rb30gfNap2TN0R4BZI80EQBYK1uJflmzOVaNk3/NRQ0A0ao5k6isDYHJzfL0qZp+r3V90oPhAtx1gEA8HIfptos+evTPoP85UqLVJjP1v3+6/harTe6rCwLsqICkMlx+g6mlXrtYXLzdvJVwYImfeVu8t9+v+IXNtFtBQDgLLODEWGl9syCZt8tPZBhmRxGeIXxqnwfCWCwbqfvVCus1J6D9F87RcTAiNXcSRRWbppE1mEYvhuF2a2a3Y5tPQUAcKrJNFWfAb72sM8if+Vu6ZGwiK/u97UA1WfJV1IENem6brF/cTKZ41d1e0muL/QBa3N/K/noRnK8WXoknOXSw+Rrt5M3at/MPUgmbv8AAJjfAJriPAAAIABJREFUzSTvJjEnr99++s50tc/JG9bdTLJdehSwZh8mE4flAGW9m+Sd0oNgLu9FMTbAiW4z/b7SRumRwJrdOrkJh+HYSfJ+kr3SA+FM0/Tzcc2tAADm1r2VZLf0KF7uk53khzeSR5dLj4SzbEyTN28nV45Kj+QMd04amJxpkVqOFReAJG2EVz67nPzeW8nRldIj4TRfPkx+u/ZKrSR5kOT7q6rYAgAYsN30B1yVL/pHTdBsLYRXGB1NFADqcSP9nFxhdp2m6Yux3foB8IxuJ8l3So8C1kgThWFTmF23g/Rzcu8gAMC5dBtJvp0msuS/eyP56U7pkXCarfvJb33YRpZ8MnfReK0FIA2FV35wLfmRjgrV+crd5FstXGF7nL7biutZAQAWs5n+gOtm6YHwjGmSb6a//YO1EF5hNDRRAKjPTpLfj8Ls2hykn5O7iQ/ghbq9JNdLjwLWQBOFcdhLPydXmF2XW+kbJMmDAAAspKUs+Qd7yY+vlR4Fz/vqfvKNu6VHMYdzZ8krLQBJ2gqv3N9K/vCt5POt0iPh1aPkNz5s4JqemdvJ5F7pQQAADIDOw/W4nb6jmUOttRNeYfA0UQCom87D9XATH8BcuhtJrpYeBayQJgrjspl+j/xG6YHgJj4AgOXprqaZOe4nO8ndPVnyGjSXJf9eMjlXM6eKC0CSpLuevlNBI35wLbl3PXl0ufRIxufSw+SXDxq59WPmTjJpabwAALXbTB84Ezor4zD9oZY5blHCKwzauTe+AFi7nfShs4b29QdlP/2c3PdLgLl0G0m+nWS79EhgBTRRGK+99HPyndIDGan3Tn549wAAlqa1Rogf7CV/titLXsKlh8nVO43c+jGzn0zunPdfqrwAJEm6t9LU1fGfXU5+sJf8pKExt27rfvKb+8nrLS2gXbULALA6u+kPuMzJ18ehVjWEVxishTa+ACjmZvobQdzQtx46DAMsrNtOv47eKD0SWDJNFMZNs6T1O8j/z979vFiW3nUc/5ww4BQSY4FRu9QQKhBjN7opCJJpiEK5CGSWjdlEXM0m4Nb8CWap4MJeycxG6GUPjGCBCdQECdyNUq0GvIQYq9VIbmKQakG4Lk6dqlvd0931697zPee8XtBMM9BVz0z3mbnnnO/7edrP5LO+FwIAME5DmyX//nby1/vJ07t9r2Q67jxJfv9x8olnfa/kCq49Sz6AACRJlu9kcMMr39lNvvnl5MQLrrXZWiS/837y+aE9uHLULgDAZnQvuHwmXx87DJe03EryRzG8wnjYRAFgmAydbYYYG+DGljtp40UYi8dJYwidxAl9m7DI+WdyAADWZqgbIZolX78hz5I3D6/7i4cSgAz0wk0c5bMObzxLPjNLvnLQ90quQfwBALBZ22l3HvYS/3bNk3w9dhguzA6mjMZR0vhvDcCw7aX9TG7o7HYdpP1MbrgT4FYs95K83fcq4BYcJs0Q36OzXg/Sfibf7XshI/Mw7WdyMTYAwEaYJWfVtGfJBxKAJMlyO+3Q1gCHV37yZvLBfRfvTXUX65cOB3ZET+ck7QV73PdCAAAmaDftzsNCkJuZp93J7Nq7ELBJy3tpX+7CUNlEAWBc9tN+JheC3MxB2s/kQ3ypBVDccj/J/b5XATfgBE1e5520n8mFIDfzMO1n8qHtMAwAMAJD3gjRLPntGMUs+cOkuVFIPqAAJBn2hZu4eK9r8BdrIv4AAKhCCHI9wo/BsoMpgyX+ABgvIcj1CD8ANmL5dtrTq2Bo5knzbt+LYDCEINcj/AAAKMEs+TSZJV81sAAkGf6F2/lgL/mHt5KT7b5XUtfWIvnsLPnd2YAv1s5D8QcAQCm7aV9yvZPEZ/KXO0jyKMKPgROBMDg2UQCYhr2cfybn5R6e/pj1vRCA6RCBMDg2UeC63kl7grA4++UWOf9MLvwAAChjuZPBP1v+yZvJ3+4l390zS/4qW4vkNz9MvnA08FnyW30HPsAAJEmWu0n+4Ja+WM8+2Ev+aS/57zt9r6SOn3uafG6WfGksL7QeJ81Y/lkAAMZmO+1OZw9it7NVXfRhd+HREIEwGOIPgOnpTul7EHF2Z5H2M7ndhQF6IwJhMMQf3Ib9nMcgtOY5/0y+6HktAAB8pDG9AzdL/qLRzZK/mzS39rx/oAFIMq4LN0m+v518ey/5/t1pllxbi+RTT5IvzJJPjenmWfwBADAc+2lfcE118GyW8/BjTJ/JOWN4hfLEHwC8k/PP5VP0KG2E7QQ+gBKWD5Lc63sV8AriD27bds5DkCk+R+xC7O5zOQAA5ZklHxez5Jc14AAkGd+F2/nObvKPd5Mf3Ev+782+V7M+bzxLfvUo+fQ8+eKTvlezBuIPAIDhmsrgWbeL2aO0AQijJwKhLPEHAKumNHgmxAYoa7mV5KtJdvpeCXwE8QfrtpfzDZPGfnq2EBsAYNDGOkv+rbvJ93anM0v+G0+Sz4/xROy1zJIPPABJxnvhdj7YS/51N/nh7jgu4DeeJZ+cJ782T75wlHziWd8rWhPxBwDAOOymfcG1f/pjDOZpX2YdpH2xxeQs95Pc73sVsEL8AcCrdINn+xlPDDLL+edxz5EBSltuZVz/D2IcxB9s2uoz8rHEIN0zciE2AMAojHmW/CdvJt++N95Z8i+N+Rn52mbJRxCAJMmyG8raWtM3KOLJneS7u8l/7gznIu4u0l88Tj47T+4+7XtFGyD+AAAYr+4l116GE4R0wUc3ZDbGHRO4sjE/AGNgxB8AXMV2Ln4eH8owbvdZvPurATOAwXGiJmWIP+jbbi5+Jh9KELL6efyg57UAALAWU3kHbpZ8AE6SvJ80R+v6BiMJQJJkuZP2CN6RRyCrVi/iH99JTrb7XlGytUh+dpH8ynwiF+kqQysAANOzGoTspR1I69ssF0/5EHzwElN5AEZhx2kffLmPBuC6VoOQSpF2N1wm+AAYFREIvRN/UFEXhHQxSIX/Ti5y8fO44AMAYDKmPEv+b7vJ/2zXmSX/+acTCj5WbWSWfEQBSDLNC/d5T+4kP9xOnu4kx59JfvrL6/teP/PT5NN/n9w5Tj65mNgF+jzxBwAAne5F126SP0zyS2v8Xn+X5Fs5Dz3EHlyRCITeGFoBYF22czHQ/uM1f79v5OKAmdgDYNREIPTmdJDdfTSD0D0f30/yxSS/vcbv9R9J/jLnz8fFHgAAk2eW/OIs+fd+K/nfj6/ve33835OdfzFLnmSDs+QjC0CSZLmd5EGSnQ18s+L+aj/557fW9/V/YZ587b31ff3BsGMpAAAv8zdZ7y7E30jy9TV+fSZhuZv2PnrCD8DYsHmSR4ZWANiQ673QuLxNvPgAoBSbKbBxs6R53Pci4Jr+JOuNsg+S/N4avz4AAIO03Eny5ZglT/LnX03+a3d9X//XP0y+IsRuZ8kfJc1GNom6TsvxsTWs4xY1iyTvpf0XCevW7VjqzxsAADBQzTztfbTdqtmEWdK8K/4AAACGq5kleZR2V0dYt8fiDwAAgKtqTmd7zZKzEd0seemZi+IBSNIOETQP0x6DCusyS3vBergLAAAMXHOc5GE8AGO9DgytAAAA49AcpR0k8Z6QdTlJu3OomQcAAIBraU7S3ru7r2KdZm2zUH+WfAABSKd5nPa4R7hth+2fr/oXLAAAwOV4AMbadEMrh30vBAAA4PbYTIG1WaTdiPCo74UAAAAMW3NyOkvuPSXrMKgNEN/oewFX0xwmy+MkD5Js9b0aBu8kyfsetgEAAOPUnCR5nCwXSfb7Xg2jcJz2PtpAFAAAMELNIsnDZPl2kr2+V8MozNNuomAjQgAAgFvTHCTLp0m+HLPk3Fy3AeK874VcxYBOAOk089h9hZs73cVH/AEAAIxdc5j2PtqwATdxlHbHUs9jAACAkWseJxnMjo+UdZg074o/AAAA1qE5illybq6bJR9U/JEMMgBJ2t1XmodJZn2vhEGapR1aWfS9EAAAgM1ojpP8WdqdJ+GqDpLGjqUAAMCENLO0gyTeJ3JV3c6hB30vBAAAYNyaRZL3Ypac6xn0LPkbfS/gZprHyXIex/hwOSdJ3nfqBwAAME3NSZJ3k+V+kvt9r4ZBWKQdWrFzDgAAMEHNcbJ8mGQ/yV7fq2EQ5mnvo22gAAAAsBHNSRKz5FzFKGbJBx6AJO1vwHKe5EGS3b5XQ1nzJI+HWmoBAADcnuYgWT5Jex+93fdqKGuW9uQPQysAAMCEGSTh0g6S5rDvRQAAAExTc5Qsj5O8HbPkvNxoZslHEIAkK7uY3k+7AwusOnTELgAAwCq7mPJSo9jxBAAA4HYZJOGljtPeRzs9EwAAoFfNIu0s+X6S+32vhnJGtXHDSAKQTnN4uvvKfjx4w8M2AACAVzjbxfQo7QCL00A4Snsf7dQPAACAF5wNktxP8lacBoKNCAEAAApqDpLlk7Qnee70vRp6N08bf4xqlnxkAUhy+hvkwdu0nST5cEylFgAAwPo089PTQN6KnVCmapH2oZdTPwAAAF6rOVzZTMGmhNNkI0IAAIDSmuMkD82ST9qoZ8lHGIB0PHibqHmSx6c78AAAAHApzUmSg5VTNe2EMh2HaR98OfUDAADg0s5OA7mXdkdRgyTTMOrhEQAAgPExSz5Ro58lv3YAslwub3Md67JomqZ78LafZLvvBbE2disFAAC4sWYeO6FMxTzJ4envOQAAANfSHJ1upuBUzfGbpb2PHu3wCAAAwDhd2MTBLPm4LZIcLJc5nSUfROtwLSM+AWRVc5TkKFnuJ9mLAZYxOUkyS5qDvhcCAAAwHs1hspylfQC21/dquFWLtAMrs74XAgAAMA5np2rOYkfRMTpOuxGhDRQAAAAGzSz5iD03Sz7e8KMzkQCk0xwkyw9jgGUs7LICAACwNs1JkscrIYgBlmE7feiVD09/bwEAALhVZzuK7qYNQewoOmynYY8NFAAAAMal6TZxuB+z5GMwS3v/Pql34BMLQJKVAZbDuHiHSvgBAACwMc1xzgdY7kcIMkSHEX4AAABsSDNP8qfJci/tfbQQZFhsoAAAADB6zSJmyYdu0rPkEwxAOhcu3v0k93peEK83T3uxOl4XAABg45p5krkQZFAm/dALAACgX80syUwIMhjCDwAAgMk5myU/infgQ3GU9sSPSb8Dn3AA0mkWSR6dHudzLyquio6SzIQfAAAAFZyFIN09tIdg9Qg/AAAAyhCCFCf8AAAAmLwLmyHuxaECFZklXyEAOXN28XbH+dxNstXvmibPwAoAAEBZzVGSIw/ByjCwAgAAUNqFEORebKjQt0Xad9GzvhcCAABAFWez5AdpZ8kdKtCvkyRPYpb8BQKQF5wd53OQ5K20F68QZHMMrAAAAAzKCw/BbKiwWQZWAAAABuUsBLGhQj/maXcMPep7IQAAAFRllrxnZslfQwDyUs1JkoP2x/Je2gEWD9/WZ57kyMAKAADAUF14CHY37UOwnX7XNGqztPfRjrgFAAAYpAsbKnQhyHa/axqtbnBkZsdQAAAALu/CLLkTPdfvKMkTmza8ngDkUpqjJEcevt26RdqL1YM2AACA0WhWhiqWO2nvo50KcjuO0x5xO7PTCQAAwFg0i9iYcF1sQggAAMAtOTvRcztmyW+TWfJrEIBcyYWHb4ZYruck7bDKXKEFAAAwds1x2mjh8ekQy27cR19V98Dryem/TwAAAEbrbGPC99PeP+9GDHJV3eYJRwZHAAAAuH0vbOTgHfjVdbPkM+/Ar0cAcm2GWK5A9AEAADB5F07XNMTyaqIPAACASbtwuqYY5PVEHwAAAPSgewdulvwSzJLfIgHIrbhwAe/k/AHcTq/L6tdx2iN1DasAAACwYnWIJY+S5W7ae+ip30cfJXkawyoAAABc8EIMsnofvd3nynrUDY2chh/NSc/rAQAAYPLMkn8Es+RrIgC5dWcngyRZbqW9eO9k/Bdxd5Eu4iEbAAAAl9bM095PJllu5/z+eeyDLPO099JP7XACAADA5TQnaYdJTu8jl939c/c+eqw7jJ6k3TShCz4MjQAAAFDYC7Pkd9O++zZLzq0QgKzVCw/gtnIxBrmTYT6EW33ANm9/7iIFAADgpppFzk8HyWkQ0t0/d0MtQ7RIew+9SHuk7bzn9QAAADAKqwMlyXMbK3T30kN0umHC2X204AMAAICBOjvZ85RZcm5OALJRzUnaP+Qrgx4XLuStnBdeVXQlVrd2FygAAAAb0izS3pOunJBxIQrZPv1RZaBl9SHXs5yf8OE+GgAAgA14fmOF5PSUkO2cByFvps59dHfff3z+c5smAAAAMGZmybk5AUjvPupC7iy7i3c3+ebn2ude26d/66bP5bpZlKS9Jt/8cfK1w/N1eLAGAABARR8VhSQrD8W6vybtTfTWys+3c32r98ndzqNd5PHMbqQAAADUdHZKyPP30d198ur98uoL6JvsQNptkNDp7pkX5z+axTW/NgAAAIzMZWfJv/V2+4p6XbPkT3+QfMUs+QAIQEo7u3DmSfYv92u6TVs63SzKa/0oaQ6usDgAAAAo5OyhWPLCUMurLJ/fOUXMAQAAwAScbbBwBcvVTRc6Yg4AAABYmwuz5D+63K+59iz595K/MEs+AAKQ0TGjAgAAAJdn1xIAAAC4nAubLwAAAAAlmSUfu4/1vQAAAAAAAAAAAAAAAABeTQACAAAAAAAAAAAAAABQnAAEAAAAAAAAAAAAAACgOAEIAAAAAAAAAAAAAABAcQIQAAAAAAAAAAAAAACA4gQgAAAAAAAAAAAAAAAAxQlAAAAAAAAAAAAAAAAAihOAAAAAAAAAAAAAAAAAFCcAAQAAAAAAAAAAAAAAKE4AAgAAAAAAAAAAAAAAUJwABAAAAAAAAAAAAAAAoDgBCAAAAAAAAAAAAAAAQHECEAAAAAAAAAAAAAAAgOIEIAAAAAAAAAAAAAAAAMUJQAAAAAAAAAAAAAAAAIoTgAAAAAAAAAAAAAAAABQnAAEAAAAAAAAAAAAAAChOAAIAAAAAAAAAAAAAAFCcAAQAAAAAAAAAAAAAAKA4AQgAAAAAAAAAAAAAAEBxAhAAAAAAAAAAAAAAAIDiBCAAAAAAAAAAAAAAAADFCUAAAAAAAAAAAAAAAACKE4AAAAAAAAAAAAAAAAAUJwABAAAAAAAAAAAAAAAo7o2+F7Buy+Wy7yXcWNM0fS8BAAAAAAAAAAAAAIARG8Ps/dg5AQQAAAAAAAAAAAAAAKA4AQgAAAAAAAAAAAAAAEBxAhAAAAAAAAAAAAAAAIDiBCAAAAAAAAAAAAAAAADFCUAAAAAAAAAAAAAAAACKE4AAAAAAAAAAAAAAAAAUJwABAAAAAAAAAAAAAAAoTgACAAAAAAAAAAAAAABQnAAEAAAAAAAAAAAAAACgOAEIAAAAAAAAAAAAAABAcQIQAAAAAAAAAAAAAACA4gQgAAAAAAAAAAAAAAAAxQlAAAAAAAAAAAAAAAAAihOAAAAAAAAAAAAAAAAAFCcAAQAAAAAAAAAAAAAAKE4AAgAAAAAAAAAAAAAAUJwABAAAAAAAAAAAAAAAoDgBCAAAAAAAAAAAAAAAQHECEAAAAAAAAAAAAAAAgOIEIAAAAAAAAAAAAAAAAMUJQAAAAAAAAAAAAAAAAIoTgAAAAAAAAAAAAAAAABQnAAEAAAAAAAAAAAAAAChOAAIAAAAAAAAAAAAAAFCcAAQAAAAAAAAAAAAAAKA4AQgAAAAAAAAAAAAAAEBxAhAAAAAAAAAAAAAAAIDiBCAAAAAAAAAAAAAAAADFCUAAAAAAAAAAAAAAAACKE4AAAAAAAAAAAAAAAAAUJwABAAAAAAAAAAAAAAAoTgACAAAAAAAAAAAAAABQnAAEAAAAAAAAAAAAAACgOAEIAAAAAAAAAAAAAABAcQIQAAAAAAAAAAAAAACA4gQgAAAAAAAAAAAAAAAAxQlAAAAAAAAAAAAAAAAAihOAAAAAAAAAAAAAAAAAFCcAAQAAAAAAAAAAAAAAKE4AAgAAAAAAAAAAAAAAUJwABAAAAAAAAAAAAAAAoDgBCAAAAAAAAAAAAAAAQHECEAAAAAAAAAAAAAAAgOIEIAAAAAAAAAAAAAAAAMUJQAAAAAAAAAAAAAAAAIoTgAAAAAAAAAAAAAAAABQnAAEAAAAAAAAAAAAAAChOAAIAAAAAAAAAAAAAAFCcAAQAAAAAAAAAAAAAAKA4AQgAAAAAAAAAAAAAAEBxAhAAAAAAAAAAAAAAAIDiBCAAAAAAAAAAAAAAAADFCUAAAAAAAAAAAAAAAACKE4AAAAAAAAAAAAAAAAAUJwABAAAAAAAAAAAAAAAoTgACAAAAAAAAAAAAAABQnAAEAAAAAAAAAAAAAACgOAEIAAAAAAAAAAAAAABAcQIQAAAAAAAAAAAAAACA4gQgAAAAAAAAAAAAAAAAxQlAAAAAAAAAAAAAAAAAihOAAAAAAAAAAAAAAAAAFCcAAQAAAAAAAAAAAAAAKE4AAgAAAAAAAAAAAAAAUJwABAAAAAAAAAAAAAAAoDgBCAAAAAAAAAAAAAAAQHECEAAAAAAAAAAAAAAAgOIEIAAAAAAAAAAAAAAAAMUJQAAAAAAAAAAAAAAAAIoTgAAAAAAAAAAAAAAAABQnAAEAAAAAAAAAAAAAAChOAAIAAAAAAAAAAAAAAFCcAAQAAAAAAAAAAAAAAKA4AQgAAAAAAAAAAAAAAEBxAhAAAAAAAAAAAAAAAIDiBCAAAAAAAAAAAAAAAADFCUAAAAAAAAAAAAAAAACKE4AAAAAAAAAAAAAAAAAUJwABAAAAAAAAAAAAAAAoTgACAAAAAAAAAAAAAABQnAAEAAAAAAAAAAAAAACgOAEIAAAAAAAAAAAAAABAcQIQAAAAAAAAAAAAAACA4gQgAAAAAAAAAAAAAAAAxQlAAAAAAAAAAAAAAAAAihOAAAAAAAAAAAAAAAAAFCcAAQAAAAAAAAAAAAAAKE4AAgAAAAAAAAAAAAAAUJwABAAAAAAAAAAAAAAAoDgBCAAAAAAAAAAAAAAAQHECEAAAAAAAAAAAAAAAgOIEIAAAAAAAAAAAAAAAAMUJQAAAAAAAAAAAAAAAAIoTgAAAAAAAAAAAAAAAABQnAAEAAAAAAAAAAAAAAChOAAIAAAAAAAAAAAAAAFCcAAQAAAAAAAAAAAAAAKA4AQgAAAAAAAAAAAAAAEBxAhAAAAAAAAAAAAAAAIDiBCAAAAAAAAAAAAAAAADFCUAAAAAAAAAAAAAAAACKE4AAAAAAAAAAAAAAAAAUJwABAAAAAAAAAAAAAAAoTgACAAAAAAAAAAAAAABQnAAEAAAAAAAAAAAAAACgOAEIAAAAAAAAAAAAAABAcQIQAAAAAAAAAAAAAACA4gQgAAAAAAAAAAAAAAAAxQlAAAAAAAAAAAAAAAAAihOAAAAAAAAAAAAAAAAAFCcAAQAAAAAAAAAAAAAAKE4AAgAAAAAAAAAAAAAAUJwABAAAAAAAAAAAAAAAoDgBCAAAAAAAAAAAAAAAQHECEAAAAAAAAAAAAAAAgOIEIAAAAAAAAAAAAAAAAMUJQAAAAAAAAAAAAAAAAIoTgAAAAAAAAAAAAAAAABQnAAEAAAAAAAAAAAAAAChOAAIAAAAAAAAAAAAAAFCcAAQAAAAAAAAAAAAAAKA4AQgAAAAAAAAAAAAAAEBxAhAAAAAAAAAAAAAAAIDiBCAAAAAAAAAAAAAAAADFCUAAAAAAAAAAAAAAAACKE4AAAAAAAAAAAAAAAAAUJwABAAAAAAAAAAAAAAAoTgACAAAAAAAAAAAAAABQnAAEAAAAAAAAAAAAAACgOAEIAAAAAAAAAAAAAABAcQIQAAAAAAAAAAAAAACA4gQgAAAAAAAAAAAAAAAAxQlAAAAAAAAAAAAAAAAAihOAAAAAAAAAAAAAAAAAFCcAAQAAAAAAAAAAAAAAKE4AAgAAAAAAAAAAAAAAUJwABAAAAAAAAAAAAAAAoDgBCAAAAAAAAAAAAAAAQHECEAAAAAAAAAAAAAAAgOIEIAAAAAAAAAAAAAAAAMUJQAAAAAAAAAAAAAAAAIoTgAAAAAAAAAAAAAAAABQnAAEAAAAAAAAAAAAAAChOAAIAAAAAAAAAAAAAAFCcAAQAAAAAAAAAAAAAAKA4AQgAAAAAAAAAAAAAAEBxAhAAAAAAAAAAAAAAAIDiBCAAAAAAAAAAAAAAAADFCUAAAAAAAAAAAAAAAACKE4AAAAAAAAAAAAAAAAAUJwABAAAAAAAAAAAAAAAoTgACAAAAAAAAAAAAAABQnAAEAAAAAAAAAAAAAACgOAEIAAAAAAAAAAAAAABAcQIQAAAAAAAAAAAAAACA4gQgAAAAAAAAAAAAAAAAxQlAAAAAAAAAAAAAAAAAihOAAAAAAAAAAAAAAAAAFCcAAQAAAAAAAAAAAAAAKE4AAgAAAAAAAAAAAAAAUJwABAAAAAAAAAAAAAAAoDgBCAAAAAAAAAAAAAAAQHECEAAAAAAAAAAAAAAAgOIEIAAAAAAAAAAAAAAAAMUJQAAAAAAAAAAAAAAAAIoTgAAAAAAAAAAAAAAAABQnAAEAAAAAAAAAAAAAAChOAAIAAAAAAAAAAAAAAFCcAAQAAAAAAAAAAAAAAKA4AQgAAAAAAAAAAAAAAEBxAhAAAAAAAAAAAAAAAIDiBCAAAAAAAAAAAAAAAADFCUAAAAAAAAAAAAAAAACKE4AAAAAAAAAAAAAAAAAUJwABAAAAAAAAAAAAAAAoTgACAAAAAAAAAAAAAABQnAAEAAAAAAAAAAAAAACgOAEIAAAAAAAAAAAAAABAcQIQAAAAAAAAAAAAAACA4gQgAAAAAAAAAAAAAAAAxQlAAAAAAAAAAAAAAAAAihOAAAAAAAAAAAAAAAAAFCcAAQAAAAAAAAAAAAAAKE4AAgAAAAAAAAAAAAAAUJwABAAAAAAAAAAAAAAAoDgBCAAAAAAAAAAAAAAAQHECEADOLSYWAAAgAElEQVQAAAAAAAAAAAAAgOIEIAAAAAAAAAAAAAAAAMUJQAAAAAAAAAAAAAAAAIoTgAAAAAAAAAAAAAAAABQnAAEAAAAAAAAAAAAAAChOAAIAAAAAAAAAAAAAAFCcAAQAAAAAAAAAAAAAAKA4AQgAAAAAAAAAAAAAAEBxAhAAAAAAAAAAAAAAAIDiBCAAAAAAAAAAAAAAAADFCUAAAAAAAAAAAAAAAACKE4AAAAAAAAAAAAAAAAAUJwABAAAAAAAAAAAAAAAoTgACAAAAAAAAAAAAAABQnAAEAAAAAAAAAAAAAACgOAEIAAAAAAAAAAAAAABAcQIQAAAAAAAAAAAAAACA4gQgAAAAAAAAAAAAAAAAxQlAAAAAAAAAAAAAAAAAihOAAAAAAAAAAAAAAAAAFCcAAQAAAAAAAAAAAAAAKE4AAgAAAAAAAAAAAAAAUJwABAAAAAAAAAAAAAAAoDgBCAAAAAAAAAAAAAAAQHECEAAAAAAAAAAAAAAAgOIEIAAAAAAAAAAAAAAAAMUJQAAAAAAAAAAAAAAAAIoTgAAAAAAAAAAAAAAAABQnAAEAAAAAAAAAAAAAAChOAAIAAAAAAAAAAAAAAFCcAAQAAAAAAAAAAAAAAKA4AQgAAAAAAPw/e3eMHMdWhmH4EwUBGcqIFZMNGQGJWIJZgrdglmCWIJYgliAnBDeTM1I5JpLJCAhE0Oq64l7Zksczc77ufp6qv27dSG3LU3V6+rynAQAAAAAAoJwABAAAAAAAAAAAAAAAoJwABAAAAAAAAAAAAAAAoJwABAAAAAAAAAAAAAAAoJwABAAAAAAAAAAAAAAAoJwABAAAAAAAAAAAAAAAoJwABAAAAAAAAAAAAAAAoJwABAAAAAAAAAAAAAAAoJwABAAAAAAAAAAAAAAAoJwABAAAAAAAAAAAAAAAoJwABAAAAAAAAAAAAAAAoJwABAAAAAAAAAAAAAAAoJwABAAAAAAAAAAAAAAAoJwABAAAAAAAAAAAAAAAoJwABAAAAAAAAAAAAAAAoJwABAAAAAAAAAAAAAAAoJwABAAAAAAAAAAAAAAAoJwABAAAAAAAAAAAAAAAoJwABAAAAAAAAAAAAAAAoJwABAAAAAAAAAAAAAAAoJwABAAAAAAAAAAAAAAAoJwABAAAAAAAAAAAAAAAoJwABAAAAAAAAAAAAAAAoJwABAAAAAAAAAAAAAAAoJwABAAAAAAAAAAAAAAAoJwABAAAAAAAAAAAAAAAoJwABAAAAAAAAAAAAAAAoJwABAAAAAAAAAAAAAAAoJwABAAAAAAAAAAAAAAAoJwABAAAAAAAAAAAAAAAoJwABAAAAAAAAAAAAAAAoJwABAAAAAAAAAAAAAAAoJwABAAAAAAAAAAAAAAAoJwABAAAAAAAAAAAAAAAoJwABAAAAAAAAAAAAAAAoJwABAAAAAAAAAAAAAAAoJwABAAAAAAAAAAAAAAAoJwABAAAAAAAAAAAAAAAoJwABAAAAAAAAAAAAAAAoJwABAAAAAAAAAAAAAAAoJwABAAAAAAAAAAAAAAAoJwABAAAAAAAAAAAAAAAoJwABAAAAAAAAAAAAAAAoJwABAAAAAAAAAAAAAAAoJwABAAAAAAAAAAAAAAAoJwABAAAAAAAAAAAAAAAoJwABAAAAAAAAAAAAAAAoJwABAAAAAAAAAAAAAAAoJwABAAAAAAAAAAAAAAAoJwABAAAAAAAAAAAAAAAoJwABAAAAAAAAAAAAAAAoJwABAAAAAAAAAAAAAAAoJwABAAAAAAAAAAAAAAAoJwABAAAAAAAAAAAAAAAoJwABAAAAAAAAAAAAAAAoJwABAAAAAAAAAAAAAAAoJwABAAAAAAAAAAAAAAAoJwABAAAAAAAAAAAAAAAoJwABAAAAAAAAAAAAAAAoJwABAAAAAAAAAAAAAAAoJwABAAAAAAAAAAAAAAAoJwABAAAAAAAAAAAAAAAoJwABAAAAAAAAAAAAAAAoJwABAAAAAAAAAAAAAAAoJwABAAAAAAAAAAAAAAAoJwABAAAAAAAAAAAAAAAoJwABAAAAAAAAAAAAAAAoJwABAAAAAAAAAAAAAAAoJwABAAAAAAAAAAAAAAAoJwABAAAAAAAAAAAAAAAoJwABAAAAAAAAAAAAAAAoJwABAAAAAAAAAAAAAAAoJwABAAAAAAAAAAAAAAAoJwABAAAAAAAAAAAAAAAoJwABAAAAAAAAAAAAAAAoJwABAAAAAAAAAAAAAAAoJwABAAAAAAAAAAAAAAAoJwABAAAAAAAAAAAAAAAoJwABAAAAAAAAAAAAAAAoJwABAAAAAAAAAAAAAAAoJwABAAAAAAAAAAAAAAAoJwABAAAAAAAAAAAAAAAoJwABAAAAAAAAAAAAAAAoJwABAAAAAAAAAAAAAAAoJwABAAAAAAAAAAAAAAAoJwABAAAAAAAAAAAAAAAoJwABAAAAAAAAAAAAAAAoJwABAAAAAAAAAAAAAAAoJwABAAAAAAAAAAAAAAAoJwABAAAAAAAAAAAAAAAoJwABAAAAAAAAAAAAAAAoJwABAAAAAAAAAAAAAAAoJwABAAAAAAAAAAAAAAAoJwABAAAAAAAAAAAAAAAoJwABAAAAAAAAAAAAAAAoJwABAAAAAAAAAAAAAAAoJwABAAAAAAAAAAAAAAAoJwABAAAAAAAAAAAAAAAoJwABAAAAAAAAAAAAAAAoJwABAAAAAAAAAAAAAAAoJwABAAAAAAAAAAAAAAAoJwABAAAAAAAAAAAAAAAoJwABAAAAAAAAAAAAAAAoJwABAAAAAAAAAAAAAAAoJwABAAAAAAAAAAAAAAAoJwABAAAAAAAAAAAAAAAoJwABAAAAAAAAAAAAAAAoJwABAAAAAAAAAAAAAAAoJwABAAAAAAAAAAAAAAAoJwABAAAAAAAAAAAAAAAoJwABAAAAAAAAAAAAAAAoJwABAAAAAAAAAAAAAAAoJwABAAAAAAAAAAAAAAAoJwABAAAAAAAAAAAAAAAoJwABAAAAAAAAAAAAAAAoJwABAAAAAAAAAAAAAAAoJwABAAAAAAAAAAAAAAAoJwABAAAAAAAAAAAAAAAoJwABAAAAAAAAAAAAAAAoJwABAAAAAAAAAAAAAAAoJwABAAAAAAAAAAAAAAAoJwABAAAAAAAAAAAAAAAoJwABAAAAAAAAAAAAAAAoJwABAAAAAAAAAAAAAAAoJwABAAAAAAAAAAAAAAAoJwABAAAAAAAAAAAAAAAoJwABAAAAAAAAAAAAAAAoJwABAAAAAAAAAAAAAAAoJwABAAAAAAAAAAAAAAAoJwABAAAAAAAAAAAAAAAoJwABAAAAAAAAAAAAAAAoJwABAAAAAAAAAAAAAAAoJwABAAAAAAAAAAAAAAAoJwABAAAAAAAAAAAAAAAoJwABAAAAAAAAAAAAAAAoJwABAAAAAAAAAAAAAAAoJwABAAAAAAAAAAAAAAAoJwABAAAAAAAAAAAAAAAoJwABAAAAAAAAAAAAAAAoJwABAAAAAAAAAAAAAAAoJwABAAAAAAAAAAAAAAAoJwABAAAAAAAAAAAAAAAoJwABAAAAAAAAAAAAAAAoJwABAAAAAAAAAAAAAAAoJwABAAAAAAAAAAAAAAAoJwABAAAAAAAAAAAAAAAoJwABAAAAAAAAAAAAAAAoJwABAAAAAAAAAAAAAAAoJwABAAAAAAAAAAAAAAAoJwABAAAAAAAAAAAAAAAoJwABAAAAAAAAAAAAAAAoJwABAAAAAAAAAAAAAAAoJwABAAAAAAAAAAAAAAAoJwABAAAAAAAAAAAAAAAoJwABAAAAAAAAAAAAAAAoJwABAAAAAAAAAAAAAAAoJwABAAAAAAAAAAAAAAAoJwABAAAAAAAAAAAAAAAoJwABAAAAAAAAAAAAAAAoJwABAAAAAAAAAAAAAAAoJwABAAAAAAAAAAAAAAAoJwABAAAAAAAAAAAAAAAoJwABAAAAAAAAAAAAAAAoJwABAAAAAAAAAAAAAAAoJwABAAAAAAAAAAAAAAAoJwABAAAAAAAAAAAAAAAoJwABAAAAAAAAAAAAAAAoJwABAAAAAAAAAAAAAAAoJwABAAAAAAAAAAAAAAAoJwABAAAAAAAAAAAAAAAoJwABAAAAAAAAAAAAAAAoJwABAAAAAAAAAAAAAAAoJwABAAAAAAAAAAAAAAAoJwABAAAAAAAAAAAAAAAoJwABAAAAAAAAAAAAAAAoJwABAAAAAAAAAAAAAAAoJwABAAAAAAAAAAAAAAAoJwABAAAAAAAAAAAAAAAoJwABAAAAAAAAAAAAAAAoJwABAAAAAAAAAAAAAAAoJwABAAAAAAAAAAAAAAAoJwABAAAAAAAAAAAAAAAoJwABAAAAAAAAAAAAAAAoJwABAAAAAAAAAAAAAAAoJwABAAAAAAAAAAAAAAAoJwABAAAAAAAAAAAAAAAoJwABAAAAAAAAAAAAAAAoJwABAAAAAAAAAAAAAAAoJwABAAAAAAAAAAAAAAAoJwABAAAAAAAAAAAAAAAoJwABAAAAAAAAAAAAAAAoJwABAAAAAAAAAAAAAAAoJwABAAAAAAAAAAAAAAAoJwABAAAAAAAAAAAAAAAoJwABAAAAAAAAAAAAAAAoJwABAAAAAAAAAAAAAAAoJwABAAAAAAAAAAAAAAAoJwABAAAAAAAAAAAAAAAoJwABAAAAAAAAAAAAAAAoJwABAAAAAAAAAAAAAAAoJwABAAAAAAAAAAAAAAAoJwABAAAAAAAAAAAAAAAoJwABAAAAAAAAAAAAAAAoJwABAAAAAAAAAAAAAAAoJwABAAAAAAAAAAAAAAAoJwABAAAAAAAAAAAAAAAoJwABAAAAAAAAAAAAAAAoJwABAAAAAAAAAAAAAAAoJwABAAAAAAAAAAAAAAAoJwABAAAAAAAAAAAAAAAoJwABAAAAAAAAAAAAAAAoJwABAAAAAAAAAAAAAAAoJwABAAAAAAAAAAAAAAAoJwABAAAAAAAAAAAAAAAoJwABAAAAAAAAAAAAAAAoJwABAAAAAAAAAAAAAAAoJwABAAAAAAAAAAAAAAAoJwABAAAAAAAAAAAAAAAoJwABAAAAAAAAAAAAAAAoJwABAAAAAAAAAAAAAAAoJwABAAAAAAAAAAAAAAAoJwABAAAAAAAAAAAAAAAoJwABAAAAAAAAAAAAAAAoJwABAAAAAAAAAAAAAAAoJwABAAAAAAAAAAAAAAAoJwABAAAAAAAAAAAAAAAoJwABAAAAAAAAAAAAAAAoJwABAAAAAAAAAAAAAAAoJwABAAAAAAAAAAAAAAAoJwABAAAAAAAAAAAAAAAoJwABAAAAAAAAAAAAAAAoJwABAAAAAAAAAAAAAAAoJwABAAAAAAAAAAAAAAAoJwABAAAAAAAAAAAAAAAoJwABAAAAAAAAAAAAAAAoJwABAAAAAAAAAAAAAAAoJwABAAAAAAAAAAAAAAAoJwABAAAAAAAAAAAAAAAoJwABAAAAAAAAAAAAAAAoJwABAAAAAAAAAAAAAAAoJwABAAAAAAAAAAAAAAAoJwABAAAAAAAAAAAAAAAoJwABAAAAAAAAAAAAAAAoJwABAAAAAAAAAAAAAAAoJwABAAAAAAAAAAAAAAAoJwABAAAAAAAAAAAAAAAoJwABAAAAAAAAAAAAAAAoJwABAAAAAAAAAAAAAAAoJwABAAAAAAAAAAAAAAAoJwABAAAAAAAAAAAAAAAoJwABAAAAAAAAAAAAAAAoJwABAAAAAAAAAAAAAAAoJwABAAAAAAAAAAAAAAAoJwABAAAAAAAAAAAAAAAoJwABAAAAAAAAAAAAAAAoJwABAAAAAAAAAAAAAAAoJwABAAAAAAAAAAAAAAAoJwABAAAAAAAAAAAAAAAoJwABAAAAAAAAAAAAAAAoJwABAAAAAAAAAAAAAAAoJwABAAAAAAAAAAAAAAAoJwABAAAAAAAAAAAAAAAoJwABAAAAAAAAAAAAAAAoJwABAAAAAAAAAAAAAAAoJwABAAAAAAAAAAAAAAAoJwABAAAAAAAAAAAAAAAoNwvR1/AqZ2dnY2+BAAAAAAAAAAAAAAAqLLUvfYPDw+jL+FkvAEEAAAAAAAAAAAAAACgnAAEAAAAAAAAAAAAAACgnAAEAAAAAAAAAAAAAACgnAAEAAAAAAAAAAAAAACgnAAEAAAAAAAAAAAAAACgnAAEAAAAAAAAAAAAAACgnAAEAAAAAAAAAAAAAACgnAAEAAAAAAAAAAAAAACgnAAEAAAAAAAAAAAAAACgnAAEAAAAAAAAAAAAAACgnAAEAAAAAAAAAAAAAACgnAAEAAAAAAAAAAAAAACgnAAEAAAAAAAAAAAAAACgnAAEAAAAAAAAAAAAAACgnAAEAAAAAAAAAAAAAACgnAAEAAAAAAAAAAAAAACgnAAEAAAAAAAAAAAAAACgnAAEAAAAAAAAAAAAAACgnAAEAAAAAAAAAAAAAACgnAAEAAAAAAAAAAAAAACgnAAEAAAAAAAAAAAAAACgnAAEAAAAAAAAAAAAAACg3NnDw8Poazips7Oz0ZfwGhePs0ty/vjf3yf5zRF/5n+S/JDk4+P/f0jy6XEAAGBr5rX45eN/L5L8Mcmvjvgz/5Xkn5nW5PNa/GOSz0f8mQAA0Gpei+8yrcfn9fkxfci0/n66Fv9w5J8JAACN5rX4030rv0vy2yP+zP8m+Uem9fi8Fv+cH/exAADAlsx7yefvxXdJ/pDk10f8mf9Ocpsfvx9/un+l3paaCAFIh12mD+guyZvB1/KcD0/GjTUAAGt0+WR2g6/lp+YHXfMs4sYaAAC+wRx3zN+RX4y9nJ/5lOTvmb4fnzehAQDAmswby+Y5H3s5PzOvxecBAIC1mfeSz9Pm6XfklXvJt9RECEDGeBp8NN44f828+az6QwwAAC94Gns03jh/zaf8/5pcEAIAwNI8DT4aI+yXPP1+XBACAMASzcHHvCZvi7Bf8nQ9LggBAGCJ7CU/sE01EQ8PD5uagS6TXCW5T/Kworl//HMtbdMcAADb8zbJdcavoQ89d0neZ3kP6AAA2JbzJO8yvT5+9Br60HP7+Gdb0gM6AAC25yLTd8l3Gb+GPvRcZ3oGAAAAzewlP6LRjcJJe4jRF7DyAGTNN8/PjY1nAAC02WWdN89fGhvPAABos9YQ+0tj4xkAAE3WHGI/N/PGs6W9ZRAAgPWyl/xERjcKApBlByDnmR7ubOXm+Utj4xkAAKNs7eb5S3Od5M13/l0CAMA+thZiPzc2ngEAMNLWQuznxiGmAACMsrUQ+0tzm+ne5CR7yUc3CgKQZQYgF5ke5oz+sDTOVdxQAwBwfJdJbjJ+/ds295kecomzAQA4trcRYj83d/FWEAAAju8803fBWw6xvzQ3mZ4hAADAMdlL/uU5+l7y0Y2CAGRZAchlfFhfO26oAQA4Bm/ge/2IswEAOLR5k5nw4+WZTyAWZwMAcEg2mb1+biLOBgDg8BxY+vq5ypH2ko9uFAQgywhAfFj3HyEIAACH4HTh/UcIAgDA93K68P7jLX0AAByC8GP/8ZY+AAAOwV7y/efge8lHNwoCkO4AxIe1+MMLAMAmCD8ON0IQAAC+lfDjcCMEAQBgH8KPw40QBACAfdhLfrg52F7y0Y2CAKQzALmID+sxP7w2nQEA8JLLCD+ONTadAQDwGu8i/DjG3D/+3QIAwNfMMfbo9esa5y4OMAUA4GX2kh9vvnsv+ehGQQDSFYC4gT7d2HQGAMBzLpJcZ/x6de1zHyedAQDwvMsktxm/Zl373MamMwAAnvc2YuxTzHUcYAoAwM/ZS3662Xsv+ehGQQDSE4A4Yfj0c5fkzWt+OQAAbML7eKh16rlJsnvNLwcAgNU7T3KV8WvUrc1VHJYEAMBkFycMn3q8oQ8AgKfexF7yU89eb+gb3SgIQMYHIE4YHj/f/SofAAAWzQnD48cb+gAAts0Jw2PHG/oAALbNCcPjxxv6AAC27SJi7NHzTW/oG90oCEDGBiDv4qFWy9xn+kIDAIDt8FCra/Y6VQEAgEXzUKtrHJYEALA9l3HCcNM4LAkAYHvex17ylnn1G/pGNwoCkDEByHm89aN1buJmGgBgC3bx1o/WEWYDAGzDm3io1Tj3j78bAADWzwFJnXOb6RkGAADrdh4HJLXOdV7YSz66URCAnD4A2cXpCe1zHycPAwCs2dvYaNY+t3HyMADAmtlo1j/CbACA9bqIA5La5z7TswwAANbpMvattM9dvhJmj24UBCCnDUDeFfyDNK8fD7gAANblPMlVxq8zzevGycMAAOtjo9myRpgNALA+3sS3rLnKCycPAwCwOA5IWta8e+6XOLpREICcJgA5z/Q6mNH/CM23z03cTAMArMEuNpotdYTZAADrYKPZMkeYDQCwHjaaLXNu85WThwEAWIzzTHuSR68vzbfPdX6yl3x0o3DKOftJFLF6Z2dnyXQTdh2nZC3Z5yR/SvJx9IUAALCXt5kebAl7l+tjpjX559EXAgDAXq4yrctZrr8m+cvoiwAAYC/zRjMRwXJ9zrQe/9voCwEAYC+7OJB+6T4l+XMe95JvqYn4xegLGOAy0wdW/LFs85chTjkDAFied/GK9DWYvwzxgBIAYFnOI/5YC/dWAADL5LvVdZjvrd6NvhAAAL7Zm4g/1uAi0+/xcvSFnNzoV5Cc2NuMf+WMOfx4UAkAsBxXGb9+NIed+3hQCQCwFOdJbjN+DWkOO7fxoBIAYCl2mb5THb2GNIedqwAAsBT2kq9zTr6XfGh/saEAxAd23SMCAQDoJ/5Y74hAAAD6iT/WPSIQAIB+4o91jwgEAKCfveTrnpPuJReAHN/7jP9HZY4/bqYBADqdZ3rl4uj1ojn+CLMBADrtktxl/HrRHHfuIswGAGhlo9k25ibCbACAVg4t3ca8z4kIQI7LB3ZbIwIBAOjilOHtjQgEAKCLU4a3Nd7OBwDQR/yxrfF2PgCAPvaSb2tOspdcAHI8PrDbHBEIAEAH8cd2RwQCANBB/LHNEYEAAPQQf2xzRCAAAD3sJd/mHH0vuQDkOHxgtz0iEPgfe3esW1eypQf4P40JnfAVKPgJ2LEjKnLkgP0IJODIGTtx5ETKHBmQHkEMPImBAcRoYhG4gWEYuBAxDpyKiXM62DojSi2Rhzxn71pV+/uAQl9g7m3WtIrotavWXwUAbQl/GEIgAABtCX+sewiBAAC0J/yx7iEEAgDQnl7ydY9Ze8kFQA7vMu0XjdF+vAkAAK18TPt60Gg/zgIAQAtHEf4wpjWg4QwAoI2ztK8HjfbjYwAAaOVN2teDRvsxWy+5AMhhuUHBeDjcOgwAsDw3KBjb4dZhAIDleY3PeDjcOgwAsDyv8RkPx6y3DgMA8FN6yY2HY5ZecgGQw/ELa/xsCIEAACxH+MP4cQiBAAAsR/jD+NkQAgEAWI7wh/GzIQQCALAcveTGz8bBe8lb5i82M73CsbPNZnOov9VJpqcTHWLwM6+TXLeeBADA4C4z49OJdO0uyauvfwUAYD4fkpy1ngQlXSX5o/UkAAAGd5Tkc/St8HN/JnnbehIAAIM7zdRLDj+6y9RLfnOov2HLDMZvzX7yYQl/8JQPceswAMCcziP8wa8dxTcbAMDc3kX4g187i1uHAQDmZA+Up7zJDLcOAwDwr04y9QrDz2y/2YboJR/hBZCh/kCY1W2S3+PWYQCAQxPIZlduHQYAmMd5NPezm4sk71tPAgBgQF7jYxcHv3UYAIAkU7/KpyTHrSdCeTeZavK9e8m9ALKfNxH+YDfHcQgKAHBoR5lqLOEPdnGW5LL1JAAABnMSr/GxO2cqAACHdxnhD3bjTAUAYB7vIvzBboY4U+k9AHIezyPyPBrOAAAOS/MQz2XNAAAcjuYhnsuaAQA4rCGah1iUNQMAcFgC2TxX9/mDTcvnR5Jks9m89H96kuRjHFLwMr/Hk5oAAPs6jxfWeJnbTDX53k9qAgCs3Lt0fkhBM++TXLSeBABA544y9a248IaXuMhUlwMA8HInST61ngRdukvyOnv0krfMYPT6AogbqtjXh1g/AAD7cEMV+ziO8BAAwL66v6GKpqwfAID9ee2YfVg/AAD7OcrUCwwv0XUWodcAiI8g9qXhDADg5br+CKKMs2g4AwB4KYFsDsFZCwDAywnUsi9nLQAA+3mXqRcYXqrbs5YeAyCahDiUsySXrScBANChy2gS4jDexIYMAMBLaBLiELYNZwAAPM9xOm0SopyT6FsBAHiJy0w9wLCv83S4ljb39/dtJ7DZPOe/fpTkcxxscTh3SV59/SsAAE87TfKx9SQYynWS160nAQDQkTfRIMRhvU3yZ+tJAAB05GOmvXI4lNeZ9soBAHiaXnIO7UW95C0zGL29AHIZv7Ac1lHczAEA8BxqJw7tNF55BADY1XHUThzeebzMBwCwq7MIf3B4zl4AAHb3JnrJOayjdHbxVk8vgJwk+TTjVFg3tykAADztMg4hmIeX+QAAdvMhHT5FTheukvzRehIAAMW5aZg5/ZnpdT4AAH7tNNOLfDCH35Pc7Ppf9gLIbjSaMSfrCwDgccfpLO1OV7q7TQEAoIGzCH8wH+sLAOBplxH+YD6X8TIfAMBT9Poyp27WVy8BkPN4QpN5nUTDGQDAYzyhydwuM9XlAAD81VE6OnigW777AAB+TU8Bc/PdBwDwOD0FzO00U2ahvE3L50eSZLPZPPVf8YQmS7lL8urrXwEA+MYTmizlOsnr1pMAACjoTTSbsYy3Sf5sPQkAgII+xsWlLON1pr1yAAC+0UvOUnbuJW+ZwejhBRA3TrEUtykAAPzcu9YTYDW6uU0BAGBBxxH+YDmXmdYcAADfnEf4g+U4kwEA+Cu95Cyli17y6i+AHGdKbMGSXiW5bT0JAIAizuOwgWXdZqrJAQCYvIuQLMt6n+Si9SQAAAr5HCFZlqtvwtUAACAASURBVHWRqS4HAEAvOW082UvuBZBfc6sZLVh3AADfqI1Y2nE0OAIAbKmNaOE8GhwBALbURrTgbAYA4Bu1ES2UXneVXwCR2KIlr4AAAHj9g3a8AgIAMPH6B614BQQAYOL1D1rxCggAgF5y2nq0l9wLID9XOjnD8Kw/AAA1Ee246RoAQE1EW266BgBQE9GWMxoAADURbZVdf1UDIEdJzlpPglWzkQMArJ16iNbKfkgDACxEPURrAkgAwNqpyWnpOHqnAIB1c0kSrZ1lyjSUUzUAcpmi/8BYFZs5AMCaOVSgNZs5AMCauSSJCs7jrAYAWK+zuCSJ9uyRAwBrpoeX1o5SdB1WDIAcxQcMNZRNbgEAzOz064DWND0CAGvlkiQqKHu4BQCwAH0rVOC8BgBYK5ckUUXJi5IqBkAcbFGFwy0AYK3UQFThcAsAWCOXJFFJycMtAICZ2ZekEmc2AMAa6SWnipK95BUDIBJbVGI9AgBrcxwHW9SiJgcA1sbLxFTipj0AYI3UP1RymunsBgBgTdTkVFJuPVYLgJzERwu1HKfgLy4AwIzcNEw1bhwGANbGfiTVWJMAwJoIwFKRsxsAYE3OopecWo4zZRzKqBYA8cFCRW7ABgDWxMEWFVmXAMBaeJGPitw4DACsiRf5qMgeOQCwJvbIqahUxqFaAMQHCxXZ4AEA1sKLfFTlWxEAWAt1D1VZmwDAWqh7qKjcjcMAADPxIh9VlVqXlQIgmuypyr9QAIC1KJVWhwfcOAwArIWanKqsTQBgDbzIR2VqcgBgDfSSU1WpXvJqARCoyiYPALAGanIqsz4BgNF5kY/K3DgMAKyBPUgqsz4BgDXQq0tlZWryKgGQUqkY+ImzOHwFAMbmFgWqc7sZADA69Q7VOccBAEanJqcyvVUAwOiOo96htjK9VVUCID6i6YF/sQAAI1PrUJ0bhwGA0anJqc5ZDgAwMi/y0QPfjQDAyNQ69KDEPnmVAIgmHnrgaSkAYGRqHXpgwwcAGNVpitwaBY84ivMcAGBc9h7pgbMcAGBkah16UGKPvEoAxC8tPbBOAYBRaTajFyU+pAEAZmDvkV5ojAQARmXvkR4cxfcjADAudQ49KLFOKwRATqLZjH6U+MUFADgwNQ69sFYBgFFpNqMX1ioAMCp7j/TCWgUARqTGoRclXspePACy2Wy+G3FbFH3xLxkAYETNP0zgGdTkAMCI1Dj0wloFAEakxqEnznQAgBGpyenJWZKHWYjFVXkBBHphvQIAI/IhTU+sVwBgNOobemPNAgCjUd/QE+sVABiR3lx60ny9VgiA+DChJ9YrADAa9Q29af4hDQBwYGpyemPNAgCjsedIb9TkAMBIjqK+oS/N12vrAEjzfwDwAmetJwAAcEBqcnpzmmkDCABgFJrN6I01CwCMxj45vbFmAYCRqG3oUdN1KwACz+dwCwAYidqGHvmWBABGorahN9YsADASF0DSI2c7AMBI1Db0aNUBEL+09Mi6BQBGonGHHqnJAYBRqMfplbULAIzCXiM9Uo8DACNRk9Ojpuu2dQDkuPHPh5fwLxsAYBTqGnrlWxIAGIWanF5ZuwDAKOw10is1OQAwCnUNPWr6LSkAAs939HUAAPROTUOvfEsCAKNQk9MraxcAGIW6hl5ZuwDACPTj0qvVBkA8R0jPJA4BgBGoyemVehwAGIW6hl5ZuwDAKOyT0ytrFwAYgX1GetasJm8ZAJHYomduHAYAgLbU5ADACNQ09MoZDwAwAvU4AAC0pSanZ832yVsGQKS26Jl/6QAAI1CT0zM1OQAwAjUNvfI9CQCMQD1Oz9TkAMAI1OT0rFlNvrm/v1/2B2422//4IcnZoj8cAAAAAAAAAAAAAADg5a6S/LF0FiNp+wKI58EBAAAAAAAAAAAAAICeNMtCtHwBZPm4CwAAAAAAAAAAAAAAwH4Wz2IkbV8AAQAAAAAAAAAAAAAAYAetAiDHjX4uAAAAAAAAAAAAAADAPppkIgRAAAAAAAAAAAAAAAAAdreqAAgAAAAAAAAAAAAAAAA7EgABAAAAAAAAAAAAAAAorlUA5LTRzwUAAAAAAAAAAAAAANhHk0yEF0AAAAAAAAAAAAAAAACKEwABAAAAAAAAAAAAAAAoTgAEAAAAAAAAAAAAAACgOAEQAAAAAAAAAAAAAACA4gRAAAAAAAAAAAAAAAAAihMAAQAAAAAAAAAAAAAAKE4ABAAAAAAAAAAAAAAAoLhWAZDbRj8XAAAAAAAAAAAAAABgH00yEQIgAAAAAAAAAAAAAAAAu1tVAAQAAAAAAAAAAAAAAIAdCYAAAAAAAAAAAAAAAAAUt7m/v1/2B2422/+47A8GAAAAAAAAAAAAAADY3+JZjMQLIAAAAAAAAAAAAAAAAOW1DIDcNvzZAAAAAAAAAAAAAAAAz9UsCyEAAgAAAAAAAAAAAAAAsJtmWYh/aPWDk9wkOW3482Ef/yPJf209CQCAPf23JP+29STghf5Lkn9uPQkAgD38myT/vfUkYA//Icn/az0JAIA9/Lsk/7n1JOCF/p7kP7aeBADAnv5Tkn/fehLwQjetfnDLAMhdw58N+/qfSa5bTwIAYE//JwIg9OufoyYHAIBW7pL8Y+tJAADAiv0t9sgBgP6dRgCEfjXLQvzW6genYeoFDsBHNAAwAjU5PVOTAwAjUNPQK9+TAMAI1OP07Lb1BAAADkBNTs+a7ZO3DID4EKFnXrABAEagJqdX6nEAYBRqcnpl7QIAo1DX0CtrFwAYgbN/etasJhcAgZdxuxkAMAI1Ob1SjwMAo3C4Ra+sXQBgFPbJ6ZW1CwCMwNk/PVtlACTxdA998i8cAGAU6hp6Ze0CAKNQ19Ar5zsAwCjU5PTK2gUARqGuoUdN98hbB0Ck0emRdQsAjOIuahv65LZhAGAUDrbolW9JAGAU9hrp0W2sXQBgHPYa6VHTdds6AOJwix5ZtwDASNzaSo+sWwBgFLdxuEV/rFsAYCRXrScAL2CPHAAYiZ5cetR03bYOgPggoUc2gACAkfiQpje3sW4BgLHYJ6c31iwAMBLhVnpkjxwAGImeXHrUdJ988QDI/f39w+FDmt5YswDAaDTu0BtrFgAYjcYdemPNAgCjsedIb6xZAGAk+nLpzW2S220eooXWL4AkPkroi/UKAIzGhzS90WwGAIzGniO9sWYBgNHYc6QnznUAgBHZc6QnzddrhQCID2l6Yr0CACNq/mECz2C9AgCj0bxDT6xXAGBE9hzpifUKAIxIby49ab5eKwRArlpPAJ7BhzQAMKLmHyawI81mAMCo7DvSC2sVABiRfUd64kwHABiRfUd60jz7UCEAchcfJ/TBpg8AMCof0vTCWgUARmWPnF6oyQGAUalz6IW1CgCMSH8uvbjJlH1oqkIAJPFxQh+sUwBgVLfRcEYfrFMAYFT2HumFtQoAjMreIz24icZIAGBc9h7pQYl1KgACu7NOAYCRqXXoQfNnNAEAZnIbNTn1XafAzWYAADOx90gPfDcCACNT69CDEuu0UgBEQp3KbmPDBwAY2/vWE4AnvI9mMwBgbPYfqc4aBQBGdhf75NRnjQIAI7uKXnJqK3OZV5UASOLggNqsTwBgdLfxxD21lfiIBgCYkT1IqrNGAYDR2YOksptoiAQAxmcPksrKrM9KARApdSor80sLADAjNTlV3UVNDgCMz43DVOZFPgBgDdw4TGW+FwGANdAXQGVlavJKARA3DlPVTaxNAGAdfEhTVZmPaACAmblxmKqsTQBgLeyTU5W1CQCsgX5dqir1Il+lAEiiqYeafEQDAGvhlQWqsi4BgLW4ilcWqMe3IgCwJuoeKvKtCACsiZqcikplHKoFQPzSUpF1CQCsidqHatzwAQCsTalDBIg1CQCsi/1IKnJ2AwCsidqHikqty2oBELdIUc1VCj3ZAwCwALdIUY1vRABgbdQ/VGNNAgBro/6hEr1UAMDa3Eb9Qy3leqmqBUASN0lRi/UIAKyRGogq7mI9AgDrc5PkuvUk4KvruAEbAFif9ynW3MOq2SMHANZIDUQl5dZjxQDIdRxuUYODVgBgrd7G4RY1OGgFANbqbesJwFfWIgCwRi6moYq7qMkBgHVyMQ1VlMw1VAyAJD5eqMGGDgCwVg63qMI6BADWyuEWFZQ82AIAWIi9SSpwSRIAsGZqcioomWmoGgBxuEVrt/EvDwBg3dRCtPY+U10OALBWanJau2o9AQCAhvQMUIE1CACsmZ4BWit7SVLVAEjiI4a2Sia2AAAW5HCL1tTkAMDaOdyiJd+EAAD2KGnLNyEAgJqctspekrS5v79vO4HN5rH/8+ckxwtNBbZuk7xqPQkAgAKOM9XksLT3SS5aTwIAoIDzJO9aT4JVuogACABAMtXj560nwSq9igAIAECil5w2nuwlb5nBqPwCSCK5RRvWHQDAxI2vtKImBwCYuPGVFnwLAgB8Y6+SFnwLAgB8oyanhdLrrvoLIInkFsvy+gcAwPe8AsLSvP4BAPA9r4CwNK9/AAB8zysgLM3rHwAA39NLzpJ26iX3Asjj/mw9AVbFegMA+N5tiqfaGcpdrDcAgB+9T3LTehKsxk2EPwAAfvQ2094lLOFthD8AAH6kt5cllV9vPQRArr4OmNt1rDUAgJ9xuMVSPGsPAPBz5Q8bGIa1BgDwV7cRkmUZLkkCAPi5q0w9vjC3LnILm5bPjyTJZrPZ5b92nORTkqN5Z8PKeUITAODXzpJ8aD0JhrbTE5oAACv2Lsl560kwtLcRAAEAeMznTP0rMJc/0kGzGQBAI8eZanKYy12S37NjL3nLDEYPL4AkblNgfp7QBAB4nNsUmNtF6wkAABT3Z7zMx3zcNAwA8DR7mMzpOsIfAACPuY09TOb1Pp30kvfyAsiW2xSYw22mxJbDUwCAx7lNgblcZbrZDACAx51negkEDu0iLuICANjFh0wvZsOhvUonzWYAAA0dJfkUveQc3m2mmnxnXgDZndsUmIOb8wAAduM2BeZwF996AAC7eh8v83F41xH+AADY1UX0F3B4byP8AQCwi7tMPb9waF31rfQWAPHcIYd2FWsKAOA5HEJwaG/jwBQA4DkcbnFo1hQAwO7u4qIkDsvlWwAAz6Pvl0O7SmeXb21aPj+SJJvN5rn/k6Mkn7/+FfZxl+m5Hs1mAADPc5rkY+tJMITrJK9bTwIAoENvkly2ngRDeBsBEACAl/iYaa8c9vU6nTWbAQAUoJecQ3lxL3nLDEZvL4Ak0z/gP1pPgiH8EeEPAICXuI7bqNifbzsAgJf7MxqE2N91hD8AAF5KvwGH8Da+7QAAXkK/AYfS5bddjwGQRMMZ+/MRDQCwHw1n7KvLj2gAgELUU+zDASkAwH7UU+xLIBsAYD96ydlXt73km5bPjyTJZrPZ53/uSU1e4ibJ760nAQAwAE9q8lJv42ALAOAQTjPtk8NzvU6nB1sAAMW8SXLZehJ05y7Jqwj1AwAcwqckJ60nQXeuM+2Tv1jLDEavL4BsueGM53ILBwDA4aiteAm3mgEAHI4bzniJbm81AwAoyGvZvIR+JwCAw1Fb8Vzd9zv1HgDp/g+AxV0kuW09CQCAgWg44zl8wwEAHJ6GM55DIBsA4PA0nPEcAtkAAId1m6k3GHbV/Tdc7wGQRMMZu3ub5Kr1JAAABqThjF1dpPOPaACAoro/rGARAtkAAPNQZ7ErgWwAgHlcRS85uxkikD1CACSZPo7et54Epb2Pj2gAgDn9keSm9SQo7SIC2QAAc7lL8jpCIPyaNQIAMK/ruHWYx91EUAgAYE56yXnKML3km/v7+7YT2GwO+bf7mOT0kH9DhnATB1sAAEs4TvIpyVHriVDO2wzyEQ0AUNxZkg+tJ0FJf0QgGwBgCW+SXLaeBOXcJXkVfSsAAHM7ytRLftJ6IpRznamX/GBaZjBGeQFky63D/Ej4AwBgObdRe/FXw9ygAADQgau4dZi/8hofAMBy3DrMj7zGBwCwnG3tpZech4Z7jW+0F0AS6S2+uU3ye3xEAwAs7SRTTe4lEN5HAyIAQAvnSd61ngQlXEQDIgBAC+8y1eWsmwZEAIA2jpJ8SnLceiI0N9tDAi0zGCMGQJLpF/ZTNJytmY9oAIC2NJzhNT4AgLY0nCGQDQDQjstLSaZbhr3GBwDQhstLucv0kMDtHH/zlhmM35r95HndRqPRmgl/AAC0p9Fo3YQ/AADa8/LDuvkmAwBoS98CFxH+AABoSd/Cum2/yWYJfzR3f3/fdMzsJMmXJPfGasaXuEEDAKCS87SvEY1lh9cYAQBqeZf2NaKx7PAaIwBAHUeZ9kxb14jGssNrjAAAdeglX99YpJe8af5i8ABI4hd3TUP4AwCgJiGQ9QzhDwCAmoRA1jOEPwAA6hECWdcQ/gAAqEcv+XrGYr3kqw6ALBQw8TE9/vgU4Q8AgMpO42N69PEuwh8AAJVdpn3NaMw7LgMAQFVHEcwefbi0FACgtpPoJR99fEpy1Dq7sMTYPAhJDGmz2Wz/41GSj/GxNaKbJK+T3LWeCAAAjzrJVJMLCYznfZKL1pMAAOBJ5/FCxKguMtXlAADU9i5eiBjRXaa+lZvWEwEA4FF6ycf1r73ko2cjkuS31hNY0PZj66r1RDgo4Q8AgH5sazcHIGN5G+EPAIBebIO79lPHcRfhDwCAnlxk2lNlHM4+AAD6Ibg7pqusrJd8TS+APORGhTG4ZRgAoE9uVBiHRjMAgD55nW8MDisBAPrldb4xuLQUAKBfesnH8Jde8tGzEcm6XgB56CLJn60nwV7cMgwA0K9tk5LgQL/8GQIA9O0mye8RHOiZP0MAgL69j+BA7/wZAgD0zet8/fsza+0lv7+/H3o84STJ5yT3Rjfjc9wUDQAwkvMkX9K+zjR2H26KBgAYy5u0rzGN5403P/2TBACgR9sXs1vXmMbu40vcFA0AMBK95P2NR3vJW2cXFslHtJ5A4wBIMn1MfyiwGI2nx4doNAMAGNFJkk9pX28aTw+NZgAAYzqLYHYP48vXPysAAMYjmN3H+BSXlgIAjEgveT/jyV7y1tkFAZBlAiBblwUWpfHrcfnrPzoAAAZwlORd2tedxs/HlySnv/zTAwBgBMcRzK48Pn39MwIAYFynEcyuPN7FpaUAAKPTS1577NRL3jq7IACybAAk8YxPxfHoMz0AAAznPA64qo2PcagFALAmbh6uN7zEBwCwHkeZ9mRb16DGt/El09kFAADroJe83nhWL3nr7IIAyPIBkGT6mHbAVWO8iUYzAIA1Oo4DrgrjS7zEBwCwVqdxwFVhfI6X+AAA1uoyLkuqMD7GS3wAAGukl7zOeHYveevsggBImwDI1kk0nbUan+LVDwAAkrNoOms1PGUPAEAyHaxoOlt+fIlXPwAAmPZo36V9fbrG8TnTGQUAAOt2kqmnuXV9usbxMS/sJW+dXRAAaRsA2TqPA66lhhuGAQD4kVsVlh1uGAYA4EfHST6kfa26lvEhbhgGAOB7Xuhbdjz7hmEAAIbnhb7lxpdMvfsv1jq7IABSIwCSaDpbYrhhGACAx3ihb97hhmEAAJ7ihb55hxuGAQB4ihf65h0fI4wNAMCveaFv/nGQMHbr7IIASJ0AyNZpNJ0denyMG4YBANjdeTSdHXq8i0MtAAB2s70sSdPZ4cY2jO2CJAAAdnEcTWeHHp+z5w3DAACsil7yw4+D9pK3zi4IgNQLgGz55S32ywoAwOoIguw/BD8AAHgpQZD9h+AHAAD7EATZfwh+AACwD73k+49ZeslbZxcEQOoGQLZO44O6xC8rAACrdZ7kU9rXuT0NwQ8AAA5lGwQRzt59fI7gBwAAhyMI8vzxMYIfAAAcjiDI88e7zNhL3jq7IABSPwCy5YN6t19WTWYAAMzFB/Xjw+3CAADMzSt9jw+3CwMAMCev9D09XFgKAMCc9JI/PRbpJW+dXRAA6ScAsnUct509HNubzAQ/AABYyvaVPodc0/iU5DKCHwAALOc8yYe0r4WrjA8R/AAAYDlHmfaEvZw9jS+Z+XZhAAD4gV7y78fiveStswtLjE2DkMSiNptNqx99muTs61hTs9Vdkqsk11//CgAALRxlqsW3dfma3Gaqxa+S3DSeCwAA63Wcb3vkJ43nsrSbfKvJbxvPBQCA9TrJt5p8bRd3bvtW3reeCAAAq/awb2WNveTbunxRo2cjkgiALGAtjWcPQx93jecCAAAPraHxTBAbAIDK1tB4JogNAEBla2g8E8QGAKAqveQLGj0bkQiALO040y/v9rCr54/qu0y/pNvh4xkAgB6c5PuavGe3+b4mF8QGAKAHpw9G7wHtm3xfkwMAQHVH+b4m7z2gvQ1gX0cQGwCAPmx7ybej917yhzV5iV7y0bMRiQBIaw+bz6r/Em8DHz6cAQAYycPGs9PGc3nKNvBR6sMZAAD2sG0+e7hXXtnD/XEhbAAARvDwItMeAiEP63EhbAAARqCX/MBGz0YkAiDVPPzlPfk6Wvwi32X6pbzN901mAAAwuoc3LGwPvlrY1uLbulzgAwCANXgYCNnuj7cKhTzcIxf4AABgLbb74seZavHjtAuFbPfFt01mAh8AAKzBw3D2ti5v2Ut+k++DH+WNno1IMv0/OfIYxGmSf0pyP+P4X6l/4zEAALSwbUL7e+atyf8x9W88BgCAFrZNaHPW4/fp48ZjAABo4STTHvac9fjfU//GYwAAaOU0U6/3nDX5P2WAXvLW2YUlxm+t/yGzk+skf5v5Z/zfuC0BAAB+ZnuTwb/M/HP+dzq5LQEAABa2fRVvbl7eAwCAn7vJtIc9p3+Jl/cAAOBXrjP1es/pb9FL3gUBEAAAAAAAAAAAAAAAgOIEQAAAAAAAAAAAAAAAAIoTAAEAAAAAAAAAAAAAAChOAAQAAAAAAAAAAAAAAKA4ARAAAAAAAAAAAAAAAIDiBEAAAAAAAAAAAAAAAACKEwABAAAAAAAAAAAAAAAoTgAEAAAAAAAAAAAAAACgOAEQAAAAAAAAAAAAAACA4gRAAAAAAAAAAAAAAAAAihMAAQAAAAAAAAAAAAAAKE4ABAAAAAAAAAAAAAAAoDgBEAAAAAAAAAAAAAAAgOIEQAAAAAAAAAAAAAAAAIoTAAEAAAAAAAAAAAAAAChOAAQAAAAAAAAAAAAAAKA4ARAAAAAAAAAAAAAAAIDiBEAAAAAAAAAAAAAAAACKEwABAAAAAAAAAAAAAAAo7h9aT2Bu9/f3raewt81m03oKAAAAAAAAAAAAAAAMbITe+9F5AQQAAAAAAAAAAAAAAKA4ARAAAAAAAAAAAAAAAIDiBEAAAAAAAAAAAAAAAACKEwABAAAAAAAAAAAAAAAoTgAEAAAAAAAAAAAAAACgOAEQAAAAAAAAAAAAAACA4gRAAAAAAAAAAAAAAAAAihMAAQAAAAAAAAAAAAAAKE4ABAAAAAAAAAAAAAAAoDgBEAAAAAAAAAAAAAAAgOIEQAAAAAAAAAAAAAAAAIoTAAEAAAAAAAAAAAAAAChOAAQAAAAAAAAAAAAAAKA4ARAAAAAAAAAAAAAAAIDiBEAAAAAAAAAAAAAAAACKEwABAAAAAAAAAAAAAAAoTgAEAAAAAAAAAAAAAACgOAEQAAAAAAAAAAAAAACA4gRAAAAAAAAAAAAAAAAAihMAAQAAAAAAAAAAAAAAKE4ABAAAAAAAAAAAAAAAoDgBEAAAAAAAAAAAAAAAgOIEQAAAAAAAAAAAAAAAAIoTAAEAAAAAAAAAAAAAAChOAAQAAAAAAAAAAAAAAKA4ARAAAAAAAAAAAAAAAIDiBEAAAAAAAAAAAAAAAACKEwABAAAAAAAAAAAAAAAoTgAEAAAAAAAAAAAAAACgOAEQAAAAAAAAAAAAAACA4gRAAAAAAAAAAAAAAAAAihMAAQAAAAAAAAAAAAAAKE4ABAAAAAAAAAAAAAAAoDgBEAAAAAAAAAAAAAAAgOIEQAAAAAAAAAAAAAAAAIoTAAEAAAAAAAAAAAAAAChOAAQAAAAAAAAAAAAAAKA4ARAAAAAAAAAAAAAAAIDiBEAAAAAAAAAAAAAAAACKEwABAAAAAAAAAAAAAAAoTgAEAAAAAAAAAAAAAACgOAEQAAAAAAAAAAAAAACA4gRAAAAAAAAAAAAAAAAAihMAAQAAAAAAAAAAAAAAKE4ABAAAAAAAAAAAAAAAoDgBEAAAAAAAAAAAAAAAgOIEQAAAAAAAAAAAAAAAAIoTAAEAAAAAAAAAAAAAAChOAAQAAAAAAAAAAAAAAKA4ARAAAAAAAAAAAAAAAIDiBEAAAAAAAAAAAAAAAACKEwABAAAAAAAAAAAAAAAoTgAEAAAAAAAAAAAAAACgOAEQAAAAAAAAAAAAAACA4gRAAAAAAAAAAAAAAAAAihMAAQAAAAAAAAAAAAAAKE4ABAAAAAAAAAAAAAAAoDgBEAAAAAAAAAAAAAAAgOIEQAAAAAAAAAAAAAAAAIoTAAEAAAAAAAAAAAAAAChOAAQAAAAAAAAAAAAAAKA4ARAAAAAAAAAAAAAAAIDiBEAAAAAAAAAAAAAAAACKEwABAAAAAAAAAAAAAAAoTgAEAAAAAAAAAAAAAACgOAEQAAAAAAAAAAAAAACA4gRAAAAAAAAAAAAAAAAAihMAAQAAAAAAAAAAAAAAKE4ABAAAAAAAAAAAAAAAoDgBEAAAAAAAAAAAAAAAgOIEQAAAAAAAAAAAAAAAAIoTAAEAAAAAAAAAAAAAAChOAAQAAAAAAAAAAAAAAKA4ARAAAAAAAAAAAAAAAIDiBEAAAAAAAAAAAAAAAACKEwABAAAAAAAAAAAAAAAoTgAEAAAAAAAAAAAAAACgOAEQAAAAAAAAAAAAAACA4gRAAAAAAAAAAAAAAAAAihMAAQAAAAAAAAAAAAAAKE4ABAAAAAAAAAAAAAAAoDgBEAAAAAAAAAAAAAAAgOIEQAAAAAAAAAAAAAAAAIoTAAEAlVFQnAAAIABJREFUAAAAAAAAAAAAAChOAAQAAAAAAAAAAAAAAKA4ARAAAAAAAAAAAAAAAIDiBEAAAAAAAAAAAAAAAACKEwABAAAAAAAAAAAAAAAoTgAEAAAAAAAAAAAAAACgOAEQAAAAAAAAAAAAAACA4gRAAAAAAAAAAAAAAAAAihMAAQAAAAAAAAAAAAAAKE4ABAAAAAAAAAAAAAAAoDgBEAAAAAAAAAAAAAAAgOIEQAAAAAAAAAAAAAAAAIoTAAEAAAAAAAAAAAAAAChOAAQAAAAAAAAAAAAAAKA4ARAAAAAAAAAAAAAAAIDiBEAAAAAAAAAAAAAAAACKEwABAAAAAAAAAAAAAAAoTgAEAAAAAAAAAAAAAACgOAEQAAAAAAAAAAAAAACA4gRAAAAAAAAAAAAAAAAAihMAAQAAAAAAAAAAAAAAKE4ABAAAAAAAAAAAAAAAoDgBEAAAAAAAAAAAAAAAgOIEQAAAAAAAAAAAAAAAAIoTAAEAAAAAAAAAAAAAAChOAAQAAAAAAAAAAAAAAKA4ARAAAAAAAAAAAAAAAIDiBEAA4P+zb8cCAAAAAIP8raexozwCAAAAAAAAAAAAgDkBBAAAAAAAAAAAAAAAYE4AAQAAAAAAAAAAAAAAmBNAAAAAAAAAAAAAAAAA5gQQAAAAAAAAAAAAAACAOQEEAAAAAAAAAAAAAABgTgABAAAAAAAAAAAAAACYE0AAAAAAAAAAAAAAAADmBBAAAAAAAAAAAAAAAIA5AQQAAAAAAAAAAAAAAGBOAAEAAAAAAAAAAAAAAJgTQAAAAAAAAAAAAAAAAOYEEAAAAAAAAAAAAAAAgDkBBAAAAAAAAAAAAAAAYE4AAQAAAAAAAAAAAAAAmBNAAAAAAAAAAAAAAAAA5gQQAAAAAAAAAAAAAACAOQEEAAAAAAAAAAAAAABgTgABAAAAAAAAAAAAAACYE0AAAAAAAAAAAAAAAADmBBAAAAAAAAAAAAAAAIA5AQQAAAAAAAAAAAAAAGBOAAEAAAAAAAAAAAAAAJgTQAAAAAAAAAAAAAAAAOYEEAAAAAAAAAAAAAAAgDkBBAAAAAAAAAAAAAAAYE4AAQAAAAAAAAAAAAAAmBNAAAAAAAAAAAAAAAAA5gQQAAAAAAAAAAAAAACAOQEEAAAAAAAAAAAAAABgTgABAAAAAAAAAAAAAACYE0AAAAAAAAAAAAAAAADmBBAAAAAAAAAAAAAAAIA5AQQAAAAAAAAAAAAAAGBOAAEAAAAAAAAAAAAAAJgTQAAAAAAAAAAAAAAAAOYEEAAAAAAAAAAAAAAAgDkBBAAAAAAAAAAAAAAAYE4AAQAAAAAAAAAAAAAAmBNAAAAAAAAAAAAAAAAA5gQQAAAAAAAAAAAAAACAOQEEAAAAAAAAAAAAAABgTgABAAAAAAAAAAAAAACYE0AAAAAAAAAAAAAAAADmBBAAAAAAAAAAAAAAAIA5AQQAAAAAAAAAAAAAAGBOAAEAAAAAAAAAAAAAAJgTQAAAAAAAAAAAAAAAAOYEEAAAAAAAAAAAAAAAgDkBBAAAAAAAAAAAAAAAYE4AAQAAAAAAAAAAAAAAmBNAAAAAAAAAAAAAAAAA5gQQAAAAAAAAAAAAAACAOQEEAAAAAAAAAAAAAABgTgABAAAAAAAAAAAAAACYE0AAAAAAAAAAAAAAAADmBBAAAAAAAAAAAAAAAIA5AQQAAAAAAAAAAAAAAGBOAAEAAAAAAAAAAAAAAJgTQAAAAAAAAAAAAAAAAOYEEAAAAAAAAAAAAAAAgDkBBAAAAAAAAAAAAAAAYE4AAQAAAAAAAAAAAAAAmBNAAAAAAAAAAAAAAAAA5gQQAAAAAAAAAAAAAACAOQEEAAAAAAAAAAAAAABgTgABAAAAAAAAAAAAAACYE0AAAAAAAAAAAAAAAADmBBAAAAAAAAAAAAAAAIA5AQQAAAAAAAAAAAAAAGBOAAEAAAAAAAAAAAAAAJgTQAAAAAAAAAAAAAAAAOYEEAAAAAAAAAAAAAAAgDkBBAAAAAAAAAAAAAAAYE4AAQAAAAAAAAAAAAAAmBNAAAAAAAAAAAAAAAAA5gQQAAAAAAAAAAAAAACAOQEEAAAAAAAAAAAAAABgTgABAAAAAAAAAAAAAACYE0AAAAAAAAAAAAAAAADmBBAAAAAAAAAAAAAAAIA5AQQAAAAAAAAAAAAAAGBOAAEAAAAAAAAAAAAAAJgTQAAAAAAAAAAAAAAAAOYEEAAAAAAAAAAAAAAAgDkBBAAAAAAAAAAAAAAAYE4AAQAAAAAAAAAAAAAAmBNAAAAAAAAAAAAAAAAA5gQQAAAAAAAAAAAAAACAOQEEAAAAAAAAAAAAAABgTgABAAAAAAAAAAAAAACYE0AAAAAAAAAAAAAAAADmBBAAAAAAAAAAAAAAAIA5AQQAAAAAAAAAAAAAAGBOAAEAAAAAAAAAAAAAAJgTQAAAAAAAAAAAAAAAAOYEEAAAAAAAAAAAAAAAgDkBBAAAAAAAAAAAAAAAYE4AAQAAAAAAAAAAAAAAmBNAAAAAAAAAAAAAAAAA5gQQAAAAAAAAAAAAAACAOQEEAAAAAAAAAAAAAABgTgABAAAAAAAAAAAAAACYE0AAAAAAAAAAAAAAAADmBBAAAAAAAAAAAAAAAIA5AQQAAAAAAAAAAAAAAGBOAAEAAAAAAAAAAAAAAJgTQAAAAAAAAAAAAAAAAOYEEAAAAAAAAAAAAAAAgDkBBAAAAAAAAAAAAAAAYE4AAQAAAAAAAAAAAAAAmBNAAAAAAAAAAAAAAAAA5gQQAAAAAAAAAAAAAACAOQEEAAAAAAAAAAAAAABgTgABAAAAAAAAAAAAAACYE0AAAAAAAAAAAAAAAADmBBAAAAAAAAAAAAAAAIA5AQQAAAAAAAAAAAAAAGBOAAEAAAAAAAAAAAAAAJgTQAAAAAAAAAAAAAAAAOYEEAAAAAAAAAAAAAAAgDkBBAAAAAAAAAAAAAAAYE4AAQAAAAAAAAAAAAAAmBNAAAAAAAAAAAAAAAAA5gQQAAAAAAAAAAAAAACAOQEEAAAAAAAAAAAAAABgTgABAAAAAAAAAAAAAACYE0AAAAAAAAAAAAAAAADmBBAAAAAAAAAAAAAAAIA5AQQAAAAAAAAAAAAAAGBOAAEAAAAAAAAAAAAAAJgTQAAAAAAAAAAAAAAAAOYEEAAAAAAAAAAAAAAAgDkBBAAAAAAAAAAAAAAAYE4AAQAAAAAAAAAAAAAAmBNAAAAAAAAAAAAAAAAA5gQQAAAAAAAAAAAAAACAOQEEAAAAAAAAAAAAAABgTgABAAAAAAAAAAAAAACYE0AAAAAAAAAAAAAAAADmBBAAAAAAAAAAAAAAAIA5AQQAAAAAAAAAAAAAAGBOAAEAAAAAAAAAAAAAAJgTQAAAAAAAAAAAAAAAAOYEEAAAAAAAAAAAAAAAgDkBBAAAAAAAAAAAAAAAYE4AAQAAAAAAAAAAAAAAmBNAAAAAAAAAAAAAAAAA5gQQAAAAAAAAAAAAAACAOQEEAAAAAAAAAAAAAABgTgABAAAAAAAAAAAAAACYE0AAAAAAAAAAAAAAAADmBBAAAAAAAAAAAAAAAIA5AQQAAAAAAAAAAAAAAGBOAAEAAAAAAAAAAAAAAJgTQAAAAAAAAAAAAAAAAOYEEAAAAAAAAAAAAAAAgDkBBAAAAAAAAAAAAAAAYE4AAQAAAAAAAAAAAAAAmBNAAAAAAAAAAAAAAAAA5gQQAAAAAAAAAAAAAACAOQEEAAAAAAAAAAAAAABgTgABAAAAAAAAAAAAAACYE0AAAAAAAAAAAAAAAADmBBAAAAAAAAAAAAAAAIA5AQQAAAAAAAAAAAAAAGBOAAEAAAAAAAAAAAAAAJgTQAAAAAAAAAAAAAAAAOYEEAAAAAAAAAAAAAAAgDkBBAAAAAAAAAAAAAAAYE4AAQAAAAAAAAAAAAAAmBNAAAAAAAAAAAAAAAAA5gQQAAAAAAAAAAAAAACAOQEEAAAAAAAAAAAAAABgTgABAAAAAAAAAAAAAACYE0AAAAAAAAAAAAAAAADmBBAAAAAAAAAAAAAAAIA5AQQAAAAAAAAAAAAAAGBOAAEAAAAAAAAAAAAAAJgTQAAAAAAAAAAAAAAAAOYEEAAAAAAAAAAAAAAAgDkBBAAAAAAAAAAAAAAAYE4AAQAAAAAAAAAAAAAAmBNAAAAAAAAAAAAAAAAA5gQQAAAAAAAAAAAAAACAOQEEAAAAAAAAAAAAAABgTgABAAAAAAAAAAAAAACYE0AAAAAAAAAAAAAAAADmBBAAAAAAAAAAAAAAAIA5AQQAAAAAAAAAAAAAAGBOAAEAAAAAAAAAAAAAAJgTQAAAAAAAAAAAAAAAAOYEEAAAAAAAAAAAAAAAgDkBBAAAAAAAAAAAAAAAYE4AAQAAAAAAAAAAAAAAmBNAAAAAAAAAAAAAAAAA5gQQAAAAAAAAAAAAAACAOQEEAAAAAAAAAAAAAABgTgABAAAAAAAAAAAAAACYE0AAAAAAAAAAAAAAAADmBBAAAAAAAAAAAAAAAIA5AQQAAAAAAAAAAAAAAGBOAAEAAAAAAAAAAAAAAJgTQAAAAAAAAAAAAAAAAOYEEAAAAAAAAAAAAAAAgDkBBAAAAAAAAAAAAAAAYE4AAQAAAAAAAAAAAAAAmBNAAAAAAAAAAAAAAAAA5gQQAAAAAAAAAAAAAACAOQEEAAAAAAAAAAAAAABgTgABAAAAAAAAAAAAAACYE0AAAAAAAAAAAAAAAADmBBAAAAAAAAAAAAAAAIA5AQQAAAAAAAAAAAAAAGBOAAEAAAAAAAAAAAAAAJgTQAAAAAAAAAAAAAAAAOYEEAAAAAAAAAAAAAAAgDkBBAAAAAAAAAAAAAAAYE4AAQAAAAAAAAAAAAAAmBNAAAAAAAAAAAAAAAAA5gQQAAAAAAAAAAAAAACAOQEEAAAAAAAAAAAAAABgTgABAAAAAAAAAAAAAACYE0AAAAAAAAAAAAAAAADmBBAAAAAAAAAAAAAAAIA5AQQAAAAAAAAAAAAAAGBOAAEAAAAAAAAAAAAAAJgTQAAAAAAAAAAAAAAAAOYEEAAAAAAAAAAAAAAAgDkBBAAAAAAAAAAAAAAAYE4AAQAAAAAAAAAAAAAAmBNAAAAAAAAAAAAAAAAA5gQQAAAAAAAAAAAAAACAOQEEAAAAAAAAAAAAAABgTgABAAAAAAAAAAAAAACYE0AAAAAAAAAAAAAAAADmBBAAAAAAAAAAAAAAAIA5AQQAAAAAAAAAAAAAAGBOAAEAAAAAAAAAAAAAAJgTQAAAAAAAAAAAAAAAAOYEEAAAAAAAAAAAAAAAgDkBBAAAAAAAAAAAAAAAYE4AAQAAAAAAAAAAAAAAmBNAAAAAAAAAAAAAAAAA5gQQAAAAAAAAAAAAAACAOQEEAAAAAAAAAAAAAABgTgABAAAAAAAAAAAAAACYE0AAAAAAAAAAAAAAAADmBBAAAAAAAAAAAAAAAIA5AQQAAAAAAAAAAAAAAGBOAAEAAAAAAAAAAAAAAJgTQAAAAAAAAAAAAAAAAOYEEAAAAAAAAAAAAAAAgDkBBAAAAAAAAAAAAAAAYE4AAQAAAAAAAAAAAAAAmBNAAAAAAAAAAAAAAAAA5gQQAAAAAAAAAAAAAACAOQEEAAAAAAAAAAAAAABgTgABAAAAAAAAAAAAAACYE0AAAAAAAAAAAAAAAADmBBAAAAAAAAAAAAAAAIA5AQQAAAAAAAAAAAAAAGBOAAEAAAAAAAAAAAAAAJgTQAAAAAAAAAAAAAAAAOYEEAAAAAAAAAAAAAAAgDkBBAAAAAAAAAAAAAAAYE4AAQAAAAAAAAAAAAAAmBNAAAAAAAAAAAAAAAAA5gQQAAAAAAAAAAAAAACAOQEEAAAAAAAAAAAAAABgTgABAAAAAAAAAAAAAACYE0AAAAAAAAAAAAAAAADmBBAAAAAAAAAAAAAAAIA5AQQAAAAAAAAAAAAAAGBOAAEAAAAAAAAAAAAAAJgTQAAAAAAAAAAAAAAAAOYEEAAAAAAAAAAAAAAAgDkBBAAAAAAAAAAAAAAAYE4AAQAAAAAAAAAAAAAAmBNAAAAAAAAAAAAAAAAA5gQQAAAAAAAAAAAAAACAOQEEAAAAAAAAAAAAAABgTgABAAAAAAAAAAAAAACYE0AAAAAAAAAAAAAAAADmBBAAAAAAAAAAAAAAAIA5AQQAAAAAAAAAAAAAAGBOAAEAAAAAAAAAAAAAAJgTQAAAAAAAAAAAAAAAAOYEEAAAAAAAAAAAAAAAgDkBBAAAAAAAAAAAAAAAYE4AAQAAAAAAAAAAAAAAmBNAAAAAAAAAAAAAAAAA5gQQAAAAAAAAAAAAAACAOQEEAAAAAAAAAAAAAABgTgABAAAAAAAAAAAAAACYE0AAAAAAAAAAAAAAAADmBBAAAAAAAAAAAAAAAIA5AQQAAAAAAAAAAAAAAGBOAAEAAAAAAAAAAAAAAJgTQAAAAAAAAAAAAAAAAOYEEAAAAAAAAAAAAAAAgDkBBAAAAAAAAAAAAAAAYE4AAQAAAAAAAAAAAAAAmBNAAAAAAAAAAAAAAAAA5gQQAAAAAAAAAAAAAACAOQEEAAAAAAAAAAAAAABgTgABAAAAAAAAAAAAAACYE0AAAAAAAAAAAAAAAADmBBAAAAAAAAAAAAAAAIA5AQQAAAAAAAAAAAAAAGBOAAEAAAAAAAAAAAAAAJgTQAAAAAAAAAAAAAAAAOYEEAAAAAAAAAAAAAAAgDkBBAAAAAAAAAAAAAAAYE4AAQAAAAAAAAAAAAAAmBNAAAAAAAAAAAAAAAAA5gQQAAAAAAAAAAAAAACAOQEEAAAAAAAAAAAAAABgTgABAAAAAAAAAAAAAACYE0AAAAAAAAAAAAAAAADmBBAAAAAAAAAAAAAAAIA5AQQAAAAAAAAAAAAAAGBOAAEAAAAAAAAAAAAAAJgTQAAAAAAAAAAAAAAAAOYEEAAAAAAAAAAAAAAAgDkBBAAAAAAAAAAAAAAAYE4AAQAAAAAAAAAAAAAAmBNAAAAAAAAAAAAAgNi7vxA70ztP7N8jOqDDLu0cxllSlcSZnIF4UZFkcYEDlmBYtnxhaJHcVDIXcV9qLwK57dws68v2VSDsXLgvAp6ZC+80SxxsaBYLjEE2TGdkdhIk0oGtdDqLFHbaVCR2kRIa3ly8dVQlqaQ6VefP8zzv+/lAYbVHrfN49L5Vz5/v7/cAAFA5BSAAAAAAAAAAAAAAAACVUwACAAAAAAAAAAAAAABQOQUgAAAAAAAAAAAAAAAAlVMAAgAAAAAAAAAAAAAAUDkFIAAAAAAAAAAAAAAAAJVTAAIAAAAAAAAAAAAAAFA5BSAAAAAAAAAAAAAAAACVUwACAAAAAAAAAAAAAABQOQUgAAAAAAAAAAAAAAAAlVMAAgAAAAAAAAAAAAAAUDkFIAAAAAAAAAAAAAAAAJVTAAIAAAAAAAAAAAAAAFA5BSAAAAAAAAAAAAAAAACVUwACAAAAAAAAAAAAAABQOQUgAAAAAAAAAAAAAAAAlVMAAgAAAAAAAAAAAAAAUDkFIAAAAAAAAAAAAAAAAJVTAAIAAAAAAAAAAAAAAFA5BSAAAAAAAAAAAAAAAACVUwACAAAAAAAAAAAAAABQOQUgAAAAAAAAAAAAAAAAlVMAAgAAAAAAAAAAAAAAUDkFIAAAAAAAAAAAAAAAAJVTAAIAAAAAAAAAAAAAAFA5BSAAAAAAAAAAAAAAAACVUwACAAAAAAAAAAAAAABQOQUgAAAAAAAAAAAAAAAAlVMAAgAAAAAAAAAAAAAAUDkFIAAAAAAAAAAAAAAAAJVTAAIAAAAAAAAAAAAAAFA5BSAAAAAAAAAAAAAAAACVUwACAAAAAAAAAAAAAABQOQUgAAAAAAAAAAAAAAAAlVMAAgAAAAAAAAAAAAAAUDkFIAAAAAAAAAAAAAAAAJVTAAIAAAAAAAAAAAAAAFA5BSAAAAAAAAAAAAAAAACVUwACAAAAAAAAAAAAAABQOQUgAAAAAAAAAAAAAAAAlVMAAgAAAAAAAAAAAAAAUDkFIAAAAAAAAAAAAAAAAJVTAAIAAAAAAAAAAAAAAFA5BSAAAAAAAAAAAAAAAACVUwACAAAAAAAAAAAAAABQOQUgAAAAAAAAAAAAAAAAlXun9AC2bTKZlB4CAAAAAAAAAAAAAABUpbWsfdd1pYewdW4AAQAAAAAAAAAAAAAAqJwCEAAAAAAAAAAAAAAAgMopAAEAAAAAAAAAAAAAAKicAhAAAAAAAAAAAAAAAIDKKQABAAAAAAAAAAAAAAConAIQAAAAAAAAAAAAAACAyikAAQAAAAAAAAAAAAAAqJwCEAAAAAAAAAAAAAAAgMopAAEAAAAAAAAAAAAAAKicAhAAAAAAAAAAAAAAAIDKKQABAAAAAAAAAAAAAAConAIQAAAAAAAAAAAAAACAyikAAQAAAAAAAAAAAAAAqJwCEAAAAAAAAAAAAAAAgMopAAEAAAAAAAAAAAAAAKicAhAAAAAAAAAAAAAAAIDKKQABAAAAAAAAAAAAAAConAIQAAAAAAAAAAAAAACAyikAAQAAAAAAAAAAAAAAqJwCEAAAAAAAAAAAAAAAgMopAAEAAAAAAAAAAAAAAKicAhAAAAAAAAAAAAAAAIDKKQABAAAAAAAAAAAAAAConAIQAAAAAAAAAAAAAACAyikAAQAAAAAAAAAAAAAAqJwCEAAAAAAAAAAAAAAAgMopAAEAAAAAAAAAAAAAAKicAhAAAAAAAAAAAAAAAIDKvVN6AFzG7OQrSaZJds75Pbvn/HePzvnvHid5dvLr52/4PQAAANCybjfJ9ZN/OLuoPuvVhfSzJMfn/L6zC+njZHLe7wEAAICGdfMz/3B2Tb0wzetr6+OcrpfPOjrz68fJ5LzfAwAAAFzK2eW6LPlYKQCpSrcIoyw21hZv4Dz5ya3ksyv+ufOLf0u+Pk/+6x/kdCNu8RYfRbAFAACAKnW76dfRi12txW7XeTta6/7spN8NW+yKHed0V0ywBQAAgAp185w2SJie+fV5DRNWdeuVz05O19GLopHjky/raAAAAEjy9iz5H8+TL6/45y6TJf/mreSPfhBZ8uopACmmm+flYMoyb9Y2zF/5z5ONuS558QLnOMmjZHIUAAAA2Lhu0bpkntM2Jlso8rjQNG9cz3eLUMujnIZZtEwBAABgC7pZ+nXzTvrQyKKBQmlvW0efOYderKcFSwAAABiyF1nyV4s+SrsoS/4oL5ojypKXoABkK7rFRtYioFLLC3pZr4y7S/qX+Cg24QAAAFibbrG5tQir1FDscVmLvYAza+mXNsRO1tI6nAIAALCqbnEGPTvzn605J+zSPcvLZ9FCJQAAADTqpWYNi7PwFr3tDPxx/2tn4JumAGRjur30L+le2txgW9ZuXvom1B0neZA+xPKg0JgAAABoSne2WKLVoMqyFv8bF11SFsUgD90QAgAAwHJeNE5YfE3LjmdjpunP2/f6f+ySF2fRObKOBgAAoG6jyZK/WhQiS75hCkDWppulf0EXL+pYzXIaYjnM6QbcA7eDAAAAcKrbTXIjbXc3WYdFY4VbJ51NH6bvjvJQZxQAAABOdWcLPsa8jj5bEHKcvqnCkUAJAAAA5cmSn5Al3zAFICt58aLeyLg32d5msQF3cNLV9GG8wAAAACPVzZLsZ/gdTq5qmv7/P/tJbifdg5zeDqIYBAAAYHReNE+wjj7fYp9hP+neS38WrRgEAACALZIlX4Is+ZopALm0bprTTbb5Bb+Zly26mi5e4PsRYgEAABg4G14rWGyEnSkGmdwvPCYAAAA2StHHFZ1pqvCiGORBMjkqOywAAACG50WWfD/OwC9LlnwNFIAsrdtN/6LeSL95xGoWL/DtpLsfm28AAAAD0y2KPsZ8te06nRSDdAfpN8Hu64gCAAAwFIIja3a2GOQ4p+toYRIAAABW0M3Tn9vulx7JQJwtBnmYfu3+qPCYmqAA5K26MxtDuqtskM03AACAQehm6dd4upRuzjTJrf6rO0rfUMGtIAAAAE3ShHALZkkO+i+NCQEAALgsWfIt0MjhkhSAnOtFYGU/Ntq2abH5dvNk8003UwAAgCa8CKzodLJd8/6ru5XkQZJf2wQDAABoQTdPX9w/Lz2SkVmESR6lP4vWUAEAAIA3kCUvRJZ8CQpAXiKwUomz3UwXL68rfQAAAKojsFKJWfq/h32bYAAAADXr9tOv33QMLWu3/9JQAQAAgFfJkldClvwtFIAkEVip2qILy1GSe67jBQAAqEE3T3I7Aiu1eXUT7J5CEAAAgBoo/KjUqw0VFIIAAACMlix5xWTJXzHyApDuzIYOlZv3X91RkruquAAAAEqw6dWQxSaYQhAAAIBiFH40YtFQQSEIAADA6HS7SQ7iDLwFiyz5g/RZ8tGegY+0AEThR8PmSe4IsAAAAGyTwo+GLQpB7kWABQAAYEsUfjTqlUKQyd3SAwIAAGBTZMkbttd/LbLkGV2WfOUCkMlkso5xbEk3Tbqb6V9Y2ibAAgAAsHHdLH23k73SI2FliwDLr5PJvdKDAQAAGCYNFAbipBCk20vfUfRB6QEBAACwLt00iSz5MOwn2Z9M0mSWvOu6K/+7I7oBpNtPH1qZlh4JayXAAgAAsHY2vQZqmuTgZI/kZ8nkqPSAAAAAhkHX0IGaJTk8WUffTSaPSg8IAACAVXS30p+Dy5IPyyJLfjeZ3C89mG0YQQFIN09f+LFbeiRsjAALAADA2nR7Sd6LTa8hmyV5P+mO0q+jR3clLgAAwPp0B+kLP6yjh2ue5E7SNdlRFAAAAFnyEZgmuX2micOgs+QDLgDRrXSEFgEWG28AAACX1s2S3E4famAcFgEWt2oCAABcmvDICC06iv48mTwoPRgAAAAuIks+QrsZQZZ8oAUg3Tx9aGVWeiQUYeMNAADgUlx1O2KLWzVvJPl5MnmRdTF3AAAgAElEQVRUekAAAAB1Ex4ZuWmSwzPr6EEGSQAAANrX7SV5L87Ax+pWkr2kuzvELPnACkC6afqXda/0SCjOxhsAAMCFut3062jdStlNfxvIvWRyt/RgAAAA6qQRIS/sJZmfBEnulx4MAAAAC7LkvDDLQLPkAyoA6eZJDqNSi5ctNt4+TiZHpQcDAABQD7d+cK5bJ3ssbgMBAAB4wa0fnGua5PaZdfRggiQAAABtkiXnXIPLkl8rPYD16A6SvB8vLOebJnm/f046zwgAADBy3TTpDpMcxDqa8+0m+f5JkRAAAMDIdSdrJMUfvNFekv/mJGgEAABAEbLkvNWZLHn7Gr8BpNtNf03PbumR0IRb6Su4dDEFAABGSscTljZNcpB0O9HFFAAAGK3uVvoGCnCRRZDkXjK5W3owAAAA4yFLzqXcOnOTZ7NZ8oZvAOn203da8cJyGYsupvulBwIAALBdOp5wJYsupvZfAACAEXnp9ky4jFtJd6d/hgAAANgsWXKupPkseaMFIN1BktsRWuFqpkluJ93t0gMBAADYvG6adO+nvxURrmKa5E7LG2AAAADL605CANkrPRKatZu+mcK89EAAAACGS5aclSyy5E02/3in9AAup5smOUxio4R12E+6nSR/mkyelR4MAADA+nW76dfRs9IjYRBunzxTd62jAQCAYer2krwX4RFWN03yftLdTSb3Sg8GAABgOLpp3PrB+tw6OQP/uKUz8IZuAOlOumQo/mCtFt1X/CAAAAAG5sV1t4o/WKeT56oThgIAAAamO0jfRMF6h3U6SLrb1tEAAADr8CJLLvPLOs3TWJa8kQKQbi99aMWmCJtwUg3Y7ZceCAAAwHp0t+K6WzZHMwUAAGBAumkf0M+t0iNhsDRTAAAAWNmLBojWVmzCIku+V3ogy2igAKTbj04rbN40ye2TkBQAAEDDuttJDkqPgsFbbIC5qRUAAGhYd7K2iUZxbNpu+nW0ZgoAAACXpgEiWzFNctjChQKVF4B0t9O/sOT/vb7ZP/+rf2Ozf34zTq7gBQCA17y74T9/w3N+hq+bJt37EVphe6ZJ3m9hAwwAAOB13UkgPwL5bIsiEFq36T3sTe/BAwDQJA0QT206673prHozbteeJZ90XbfaHzCZrGkor+puZ5ShlYc7yf+5mzyZJU9nyb+eJU93tvf57z5O/sZx8u5x8rXj5PeOk28fbe/zq3E/mfys9CAAANi6Wfp1yP6ZX89PvrblbpKjJMdJ7p/8+v4WP58mvehYKkBAKXeTyb3SgwBgEBbz78WB3tn5+TYs5uGLOfhifj7GfXKAAXtR/KFzKKX8LJnY86NWi33xxTz87Px8Gxbz7/s5nZ/f3eLnAwBQjbFmyT+dJ7+b1ZMl//cfJTceb+/zq7HRLPkqNRyVFoCM6YV9uJP87/PkX+4mfz1Pvqq0emrnYfK3HiX/4dGIXuKjJB8nk2elBwIAwEYdnHztp96uEUfpD7gWB13CZ5yh+INqaKYAwFXM8vJ8vNazgcVcfPGfx2WHA8DVKf6gGopAqMWiwGMxJ99mQ6TLODsfVxACADBo3TTJYeqdm67Z2Sz54xulR3O+d54n/9bRCLPkJ2uQ9WfJB1QAMobQSisFH28zqpf4UZI/VQQCADAoLRR8XERBCCe63STvZdDraBqjCASAi7RS8HERBSEATVL8QXUUgVBCKwUfF1EQAgAwSLLkbZAlX9VACkCG/MJ+MUt+s598cSN5tq1r6rdoepx842HynfvJN4Z4yKUIBACgfftJ7qTvEDHAOXnuJ/koyccRPBsRoRWqpQgEgPMcnvkaoo/PfAFQpW4/ye3So4BzKAJhG2bp5+J30m4R9tscp5+Lf5R+vxwAgCbJkrdLlvyyBlAAMsQX9sn15Dd7ydGN5MtWuyVcwbuPk799P/nOg+Rrz0uPZo0UgQAAtGee0wOtEc3JBc/GQfEH1VMEAkAy/ELs8wieAVRJ8QfVUwTCpgy9EPs8RzltmOT2bACAZgw5S/6/7SdPd0qPZnu+fpTMH8qSv13jBSBDe2F/dSP5fJ58PsSOCZe08zD55oPkDx+WHsmaKAIBAKjfoovZYfqr68fsOKeHXA6PB6WbpQ9SKv6gdopAAMZprIXY5xE8A6iCJgo0QxEI67Kf0zn5WAqx3+RuThsmDbELMQDAQAwxS/7ZXvL4RumRlPf795PfP5Ilf13rBSCHSfZW/EMq8Ml+8r/eHOa1PKuaHif/0a8HUsmlCAQAoE6zJB/Egdab3M1p8IymDW3jixFQBAIwHvOczsl53UdJfhiFIABbpviD5igCYRWLoo+xN0c6z6Jh0g+jEAQAoDJDOQNf3PYhS36+RZb8e0NY8z5IJivnbxouAOlup+880Kgn15NPbiVf3PCyLuOd58kf3E++d6/xQhDhFQCAegiZXc5R+gOuj0oPhKsYysYXI3QvmdwtPQgANuYg/ZxcyGw5d9PPyf1sBNg4xR80SxEIl3Un/Zx87DfwLeM4faMkxdkAANUYSpb8n+8nX10vPZr6TY+TbzyUJW+2AKTlF9bLuppBFIIoAgEAKEvhx2oUgjRH8QfNE14BGB6FH6tRCAKwUYo/aN5HyeRR6UFQPYUfq3FLHwBAcbLk4yVL3mABSHeQ5NZKH1yEl3W9mn95dTAFANg+hR/rpRCkGd1hkr3So4AVfZxMHpQeBAArU/ixXgpBANZOEwUG4VmSP1UEwhso/FgvhSAAAEXIkpOMOUveWAFIt5/k9kofWsQn+8lvD7ysm/DO8+Rbd5PvtdgJVAdTAIDtmKU/0Pqg9EAG6n6S/zZCZ5VquesJvER4BaBt8yQfJjksPZCB+jj9nFzoDGBl3Z0o/mAYHqVfRz8rPRCqcZB+Tm6vcDN+ePJ1XHogAADDJ0vOq8aXJW+oAKTbTXOdeh/uJL88SL7UOWHjvn6U/N27yY3HpUdySX+STBzKAQBszmH6Qy1z8s37KH3ozAFXNVrd+II3epbko2Ti+wxAWz5Mv7c/Kz2QgTvO6ZwcgCvRRIHBUQRC0s/DF3NyNuso/Xz849IDAQAYrm6e5P3So7gcWfLtaTZL/tFlGyE2UgDS7aa/ane60gduzeKKns9ulh7J+Hzz141d5aODKQDAZsyT/Ch9VzO25zinnc4oqtuLDtsMk/AKQDsO0s/JHWpt11GSvx839AFcUneQ5FbpUcAG3E8mPys9CIpZ3IytGHu73NAHALARsuQsa/hZ8gYKQLpp+he2kat2f3Uj+YuD5JkFdDHNXeUjvAIAsF46DJd3P33orJU5+cC0tvEFl/YgmeikCFAvHYbr4IY+gKVposDg3U0m90oPgq3aT1+M7VajctzQBwCwVq1lyT/ZT357kHx1vfRIxmt6nPynd5M/fFh6JEu6VJa8hQKQRq7afXI9+ce3k8c3So+Eha8fJf/Vx41UcAmvAACszqFWfX4YB1xb1trGF1yZ8ApAnQ7Tz8kVY9fhOH1htr1ngDfSRIHR+JNk4jaCcfgw/a0f1EGzJACAtegOk+yVHsXFnlxP/uww+dLN2NXYeZj8lz9rJEu+9C2elReAdLfSXxNfuYc7yc8P3fpRo3eeJ9/9OPl2C5tZ95LJ3dKDAABo1J30B1vm5PW5n+S/iOvut6SVJgqwFsIrAHURNKuXwmyAc2miwKg8S/JRMnE72HDNk/x57A3W6Dj9fPyj0gMBAGhTd5DkVulRXOzTefKLQ7d+1Gh6nLz3cXLjcemRLGGpRogVF4B08yTvr/QBW/HTm8lfNVCkMnbf/HXyRy0UVwivAABczix90OxO6YHwVjoPb0UrTRRgbYRXAOogaNYGhdkAr2mleyiszaNkIoA+TG7ia8NH6QtB7GUBACytlSz5Tw6Sz26WHgUX+U/uJv/5r0uPYgkXZslXqeG4duV/80LdNP0CtWJPricfHSr+aMVnN5M//n7/91a1w5PnHwCAi+0n+UUUf7Rglj4U+GHpgQxXtxvFH4zPNMnt0oMAGLnDJH8ZxR8t2E//d1X52QvAtnS3oviD8dk96ZzLsHyYfu9V8Uf97qQ/07B+AgBYSitZ8j/+vuKPVvzVQZ/9H3eWfIM3gNTebeXhTvLzw+SZBXRz3nmefPfj5Ns1dzk7SiZ/UnoQAACVu5P+YMucvD06D69dN03/TngfGKt7yaSFWz8BhsRNfG374cmXzsPASHW7Sb6fvqgcxujCTqI0wU187TpOfxOIG3kAAN6qez/9vLdSn86TXxwmX9VeTMBrpsfJex8nNx6XHslbPEgmH7/p/7hKDceGCkC6W6m6a+kn+8mn75UeBav69s+T790vPYq3uJtM7pUeBABApX4UQbPWHSf5bvpiEFbW3Y6DXvgomTwqPQiAkZhF19ohuJ9+Tq4IBBih7k6S3dKjgIKeJfnvk8mz0gPhyha3Y2sI07aPkvz90oMAAKiTLDnb0G6WfJUajmtX/jffqJslqfganJ8ceGGH4tP3+r/Pat086T4EAMCpWfqOZoo/2rcIDfq7XFm3F+FLSDZ8DS4AL+wn+cuYfwzBIjTo7xIYme4gij9gmkTuoV13ovhjKO6kP/PwdwkA8JJuN7LkbEUTWfK1rxc2UACSw1R71e6P30s+q/gbCpf32c3+77VKNt0AAF62KBg4LD0Q1mYWt7msqJvFugEWKm8qAjAIi4KBeemBsDaKQICR6eZJbpUeBVRi76SjLm25k35PVcHAcBxGQQ8AwKveiyw5W1N9lnztOak1F4DU3G3lx+8lnzsAGaTP9/u/3yfXS4/kHLsn7wUAwNgtij/MyYfpR0k+KD2IRh2k2o0vKOLWSaALgPU7iFDSUFlvASPRTZPcLj0KqMxGOomyMR+k30tleBaF2d5HAIBqs+RPrsuSD9kiS16ltWfJ11gA0s1S5eHCk+vJf3fHCzt0n+8n/8P7lRaB3Dq5zgoAYKz2k/zzVLleYI0+jMPLS+r2kuyVHgVU6PZJsAuA9bkTYaShmyX5y7idDxi2m/GzDF41TV/oS/1+lH4PleFyFgIA0GdlK7yp8Mn1PmMsSz5sn+/3NQNVZsn319nAYZ03gNxOdV1LFy/s053SI2Ebnu5UXARi0w0AGCtdr8blThSBLKmbpr/2FnjdLH2wC4D1MEcblx9FEQgwSLUGSKAKeyeNRqiXOdp4uJ0PABi7CrOysuTjUm2WfK03266pAKS7lWS+nj9rXbyw41Ttizs/eU8AAMZE8cc4CRgu52aqa6IAVXGbJsB6mJuNk4AhMESaKMDbvec2zWqZm42PIhAAYKRkyanF8LPkaygA6aapriujF3bcqn1xb67z+h4AgMop/hg3QcO36ubRtRSWIeAFsBpzsnETNAQGpDtIokAc3m6aKjvtjp452XgpAgEARqabRZacqlSdJV+5gcM6bgA5SHVdS//xbS/s2D3dSf7ssPQoXjGNkBcAMA6zJH8exR9jdyfJh6UHUSmH8bCc3aRzSA5wNQdR/EH/DPhZCjSum8b3MljWvts0q/JhFH+MnbMSAGBMbqW6LPmfHcqSj93Tnb6moCpraeBwbTKZ5Opf2U11G24/fi95fKP0KKjBl/P+eajK/km3XwCAoVp0tTLnIUk+iEPOV3T70bUULuNgHR1QAEZmP33ICBJdh4H2VdiMEKqm8Ugd7qTfG4V53JYOAAxeN091e5A/fq/PEMPjG5VmyXevWr+RrH4DSGWbBz9+L/m8sm8ilPX5foUvrltAAIChcqU55/lRFIGc6NbSyQFGZprqrosGqNp+hIt4mXUa0LCuwmaEUL252zSLuxO38fEy6zQAYOgqy8TKkvOqKrPkK2VHVigA6fZSVVffT/a9sJzv8/3kpzWFRWy6AQBD9WEcynO+H8WzkfQhdl1L4fJuJZ0DcoCLzdLf/OF7Jq+apZ+TezaA1miiAFdzy22axexH8Qfn209/hgIAMDDdfqrKkv/0piw55/t8v681qMb8pBbjSla5AaSiDbdf3Ug+ra0yh6r81UFlL25lFY8AACv7MG554O1G3nW4m8U6AFZxu/QAACq3uOWhooM2KrPoOgzQiNoCJNCUWdymWYL5Fhe5E0UgAMDwVHQG/sl+nxWGN/n0vb7moBpXfl6vWADS7aeaTlFfzJJ7QgAs4bcHycOd0qM4MUu6in7wAQCs5DDJB6UHQfXG3nXY/B9WM0864S+AN3MbH8vQdRhoiXU0rGbfLSBbNfa9T5b3QfozFQCAAehupZo58MOdPiMMF7l3u689qMLspCbj0q56A0hFG27/5DD56nrpUdCCr64n//R28qSW5+WmTTcAYADmcaU9yxtp4KybRSAT1qGi/SiAqhzGbXwsT+AMaEBNzQihWdO4BWSbFGRzGT+KW64AgOZ1Fa05npxkg2XJWcZX1/vag2pc6Qz8CgUgNW24/eQgeVrLjQ404elO8tNaqvwq+gEIAHBlf55q1gc04k7GF1AUWof1cAsIwOsUZHMVAmdA7ayjYT3cArIdY9zvZDWz9GcrAAAtu5k+A1uBn8qSc0lPd/oahCpc6RaQSxaAdNNUs+H2qxvJZ8LzXMHn+8kntXTfsOkGALRMVzOuakTPjts/YM0q2ZcCqIaCbK5C4AyoWE3NCKF5GhJu3khvPGYNPDsAQMO6aao5A/9kv88Ew2V9drOvRajCrctmyS97A0glG25fzJJ7t0uPgpb99iB5WEPFn003AKBVh0k+KD0ImjVL33W4gvXlxgmrw3q5BQTg1IiKatkAgTOgVtbRsF4aEm7OmPY42YwP0p+1AAC0ppLbPx7u9FlguKp7t/uahOIu3Vj0KgUgFfgnh8lX10uPgpZ9dT35p7eTJzU8R5W8VwAAS5unP9iCVYwgcOb2D9gQgTAABdmsh8AZUBm3f8AGaEi4OR/E3h+r+1H6MxcAgJZUMA9+cpIBliVnFV9d72sSqrCpApBaNtx+cpA8reHmBpr3dCf5pIbQyPTk/QIAaIWuZqzLnSRD7shRw3oDhmh+UmAFMFaLTsOwDtZ3QE2cl8FmeLfW7yAKslkP6zsAoDHdfqq4/eOTW7LkrMfTnb42objZZbLkl7kBpIJNgS9myWe6U7BGn93sr4EqTjAMAGjF0AP7bN9AA2fdNMmN0qOAAbOOBsbswwxy/kQhswz+Zj6gDd08yW7pUcBAaUi4XgL7rNtB+rMXAIAWVHBG93BHlpz1+uxmX6NQ3LoLQGrZcPvZe6VHwBD9soYA4+zkPQMAqJlgEJswzzC75d1MFZ1PYLD2TwqtAMZGMIhNUOgP1EA4HTargpDWYHyQfk8T1kmhPwDQgG6eKuYsVWR+GZwqahR2l82SL3sDSAUbbr+6kXxpEc0GfDlPPqngGbfpBgBU74NUsZhngIZ4aFrDGgOGTmcfYIx0GmZTFPsDBXWzJHulRwEDN0s679nqhtrMhvJm8WwBAPWrIOP6yb4sOZvx5byvVShuqazJEgUgNWy4Pbme/IWKLTbotwf9c1bU/OR9AwCo0UEcPrBZAwozdvtx+wdsg0IrYGw+zPCKZqnHfhSBAOWY28N21BBkad2A9jCp0AdxMx8AUK1uluL700+u91lf2JS/qCFLvrdMlnyZG0Aq2HD75FbyTDCeDfrqev+cFVfB+wYAcC5BIDbtIMlh6UGsiW6KsB1T3UuBEZknuVN6EAzenRQ/xAVGyvkYbMdSIRLe6DDC+WyesxgAoFYVrN0/udVnfWFTns1ayZIvUwBS+CD94U7y2c2yY2AcPrvZP29FVfBDEgDgNR/EPIXt+DD9VfcNq6HzCYyK7qXAWAxgnkQDZhE4A7bOLZqwZfZ5r8Y8iW3Zj9vYAYA6FV5LyJKzLVVkyS+s3bigAKTbS/FDpV/qoMAWFX/epicb3QAAtZjFYQPbM0/7z5v5PGyX7qXAGAzppjTqp7M1sG1u9YPt8s5dzQfR9IXt+SDFs1oAAGfV0LyheLaXUSn+vM1Oajje6KIbQAp3Ufx0nnxpEc0WfTnvn7uibLoBADVx0MC23Unbz5z5PGyfwitg6FovkKU9njlgS9yiCQVcGCLhNbP0e5awLRpzAQC1KbyGkCVn26rIkr+1huMtBSDdNMVf2v/ZdT0UUPy5m+teCgBUwsEWJTR8uFXDLZowSoIrwJAdxG0MbJ/nDtgWxdxQRukQS2s0SaKE1hslAQCDUUPzhuKZXkap+HO3d1LLca633QDi9g9GqorKLeEVAKAGDrYopdXDrdLrCBirWdLtlh4EwIY0WhjLAHj2gG1wHgZlFM6CNEWTJEppuFESADAwbv9gpKrIkr9x/f62AhAVW4xY8efPphsAUJqDLUpq9XDLPB7K8f4BQ+QWBkry/AEb1u2mzeYPMATTpHMDz3I0SaKkVhslAQDDUvgMrniWl1Er/vy9sZbjDQUg3TRFq7a+mKnYoqzilVu7J1dnAQCU4mCB0hp7Bru9JG+8fhPYOJ2DgSFqsSCWYdEUANgkRdxQljzGxTRJojTPIABQWDdLslvu893+QWlfzvuahmL2Tmo6XvOmG0AKd3v4ZemKGUgFlVvCKwBASQ4VKK21wy0bT1DW7KSDMMBQzOP2Bco7jHkusDnOwaCsN4ZIeKGxBjUMVEt75ADA8BReuxfP8EIqqGk4t6bjTQUgBTf0v5gln7tulAoUr9zS+QgAKOVOhHyoQ0uHW+bvUJ73EBgSt39QC88isAHdboSqoQbW0W/X0t4kwzWPZxEAKKfgmuGLmds/qMPn+4Wz5Oe+B+cUgHTTN/3m7SheKQNnFH0ed3VdAQAKEfChFo0cbnV7SczdoTwdhIGhaGQOxEhoEABsgtA51MFNmm9mDkRNnNkAAAV00xRdM8iSU5Oiz+P8vCz5eTeAFF7E/guH9VTkX+wlT64XHIANcABg2/ZTfE0ALzksPYAl7JQeAJAkmSWdLsLAELQw/2FcPJPAutl7gjo4i36zg9IDgDPm6c9uAAC2qeB64cl1WXLqUvx5fG0vrbICkF/dSL4qGbaHV3x1PflNyRdX1xUAYNt0GqY2B6k/GFJ6sQ+c8j4CQ2BOTm08k8Aale4gCpwxTTrv4+vmUQBLfczJAYBtK7hW+M2eLDl1+ep6X+NQTO0FIJ85pKdC/1fJsJmuKwDAtjnYokYVP5fdLIkbB6AebuQBWudGPmqk4zCwTs6+oC7eyddVvBfJiHkuAYBtK7hWKJrZhTcoWuNwUQFIt5tiwZUn15PHNheo0OMbyRelAl26rgAA23QYQXbqVHN3M5tPUBfNRYDWCfVQK88msC7OvaAu9rZeV/NeJOM1izk5ALA13W6SaZnP/mImS06dHt/oax2KmL2aJX/1BpCCi/tf6h5FxX5b8geKH2YAwLY4PKBWNXccdkgO1em8l0DLhM2olWcTWBfzdajLbtIVCnZVyY181MwZDgCwLQUzq0WzunCBorUOL61VXy0A2dniQF7xf+jQSMWKPp86IQEA26B7FLWr9fl0IAz18V4CrXIjHzWzZgTWoJvFzzqoUcGcSHXMd6iZNSMAsC0FM6uy5NSs6PP50tq9khtAvpglT20qULGnO8nDUs+odwMA2AYHW9Suwo7D3SzFrr4F3kIjBaBV5uTU7qD0AIDmKdaGOnk3T1W4BwkvsW4EALahUGb14Y4sOXV7utPXPBTxphtASgZXflPyShRY0v9SqnJrmnTCKwDApjnYonY1dhx2OA51sjEMtKjGuQ68yroRWJWu5VAnZ9E9tyvQAutGAGDDut0Uy5IXy+jCJRSreZie1HokefkGkILBld85mKcBj0uGuwTLAIBNmiVRlE0LantOHY5DnTRSAFrkZgVaIXAGrMJ5F9TJu9mrbe8RznMQhUoAwGYVXB8UzejCkorWPLx4R84WgBQ6GH9yPfnSS0sDnu70z2sRFvAAwCYJm9GK2p5VzQygXvaagNYIm9EKzypwRd00GilAxTRSSH17j/AmnlUAYJMKZVWfXO8zulC7ojUPL9buZwtACr04/8yBPA0p9rz6wQYAbJIAD63YT13F0Q7GoV41fa8AWIYAD63wrAJX5awL6jb23IZbsmmJZxUA2CRZcrjQr24U+uAX72cFN4A8FpihIcWeV+8JALBJAjy0pJLntbMBBXVTAAK0RNiMltRWlA20w1kX1O166QEUVsmeIyzF8woAbJIsOVyofJb8pACk5HWej4VmaEjJ51XADADYCGEzWlPL8yr0BnWzhgZaIrxDazyzwFVYR0Pdxh62qmXPEZahKBsA2JCSGVVZclpSNEu+m5zeAFJoYfDkevLUdb805OlO8kWphbQFPACwCYI7tKaWZ9b8HKpXsuEJwKUIm9EazyxwFdbRULex5zZq2XOEZXlmAYBNKLR2/2ImS05bnu70NRBFzJLTApBCL84/U7FFgx6Uem5tjAMAmyC4Q2v2U0dnf8FyqJ91NNAKwR1a45kFrqKGtTzwZtOkG+s62i3ZtMgzCwBsQqE1QbFMLqygWA3ETnJaAFIouPJYYIYG/ctSlYbeFwBgEwR3aFENz60OJFA/7ynQAmEzWrQfhZbApbidDxox1p/vh6UHAFdQwx45ADA8hdbvxTK5sIJiNRC7yWkBSKFrSH7npaVB/6rUxtdYN9wAgM0SNqNFNXQAmZYeAHAh62igBebjtMqzC1xGobNo4JJq2HMrYaz/u2mb+TgAsAmFztaKZXJhBcVqIK4nxW8A+X90e6FBX5baAPJDDgBYNx2iaFXhw63OoTC0QaEW0AJzclrl2QUuwzoaqJkgPa0yJwcA1q1QRrVYJhdWUKwGYnEDSFfoMPzJ9eQr3V5o1BeFftB1ikAAgHUyt6BVpTeAhMqhDW6eBQAAgOWNtYGnfXJa5dkFANaoVDa1VBYXVvXV9b4WYvsmk0yvpdhh+Gdj3TxgEP7vUj90/LADANZJZzNaVboARKgc2qBYC2iBOTmt8uwCl+FcGKiZeQ2t8uwCAOtUKJtaLIsLa1CsFmLnWoodhv/OS0vDHmkFw7AAACAASURBVJUKfHlvAIB1Kh2ih1U43AKW0AmaAbUzp6FV1pMAMDxj/PluPk7LxvjOAgCbU+hMrVgWF9agWC3E9J0U61z6RJCdhv31TvJpgcX0p38vikAAgPX5g9IDgBX8Zyk2N/7pd5NdG1HQhH/095I8Lj0KgLew10er5kkOSg8CaMWnvl9AO8b2vn6r9ABgBX+Q8b2zAMDG/KNvJd8ukIn9a+fuNKxYLcTOO4U+OMnvvLQ07NFe/7Vt97b/kQAAUKd/UO6j/8dorgatePj90iMAgAH7RekBAK34pPQAgKXNv58clR4EsJxvxZwcAFib/ynJ70oPAhpTrhbiWop1GPv/pmU+F1pW6JYtAADgDI26oR3eVwAAAAAAAHg72VS4vGK1ELNrSQp9+FM3gAAAANAggXIAAABYjhs0AQAAABiiYrUQ02uFPhgAAAAAAAAAgGro+gsAAAC1u5YirUsfuv0DrkSXJAAAKKvUDZ7A1QiuAAAAwPKulx4AAABQhGwqXE2RmohZoQKQfyUxAwAAQIP0MwAAAIDlKcoGAAAAYKiK1ETMrhX4UAAAAAAAAAAGz20CAAAAALBOhQpAntnpAwAAAAAAAACoRonGpQAAANCqMjURhQpAHrvrFwAAAIANm5UeAAAAADTEOhoAAACWV6YmolABCHB16qcAAABgOYIrAAAAAAAA8GYyqdAaBSDQnCK3BQEAAAAAAAAAAAAwKDKp0BoFIAAAAAAAAAAAAAAAAJVTAAIAAAAAAAAAAAAAAFA5BSAAAAAAAAAAAAAAAACVUwACzXleegAAAAAAAAAAAAAANE8mFVqjAASa86j0AAAAAKARx6UHAAAAAAAAABWTSYXWFCoAmR+V+VwAAAAAxkMBCAAAACzPOhoAAACWV6Ymwg0gAAAAAAAAAACj96z0AAAAAIALKAABAAAAAAAAYAOelx4AAAAAAAzKtRS5w/NvahsBAABAgx6XHgAAAAA05FHpAQAAAADAhhSpiTguVAByQ2IGruSo9AAAAGDk9DOAtgibAQAAwPLc2gMAAOMkmwpXU6Qm4vhagQ8FAAAAAAAAAKAqGikAAABA7a6lWPvSd90CAgAAQIMKXKQJAAAATdJBFAAAAIAhKlYL8exaiiVX/obEDFyajisAAFCe5Sy0w/sKAAAAAAAAbyebCpdXrBbi+J1CH5zk3ePEJSC06pu/Tv7oboEPvpdMSnwuADBMv0hyUHoQcEXfTVJobvzj95PMy3w2cDn/8E+SiZbDQM260gOAFUxKDwBoxT/8QekRAMv6wQ9Kj2DLDtLvk0OL7qbfJwcAWINfHCS5tf3P/clB8tnN7X8urMO7xboRXkuxKoyvacFIw64/K/TB3hsAYJ0EYmlZybmx9ifQjuelBwBwAft9tMp6ErgM3zOAWpmP0zI/XwGAdSo0Ny6WxYU1KFYL8fhakkIvz+9ZSNOw3VLX13hvAIB1MregZfdLDwBowUTBFlA7cxpaJWwGAMMzxp/v5uO0zBkPALBOheYWxbK4sAbFaiGeFbwB5JsO4GnYv13qpbWABwDWyeEWrSr97I7xMBxapGMQ0ILS8xq4Ks8ucBnOhYGamdfQKs8uALBOhbKpxbK4sAbFaiEeX0smhQ7Dv/Y8eed5mc+GVX2j0A+diR92AMA6mVvQKs8usAwdgwBgc8zJgctwJgxtGGuxlnkNrfLsAgBrVCqbWiqLC6t653lfC1HC5Nm1k18VWsj/m2PdQKBpXy/V7dcPOgBg3e6WHgBcUeHOZhM3gEAb3AACtMCcnFbpNgxchjNhoGbmNbTKehIAWLdCGdVimVxYQbEaiEdJsigAKVSB8ns6MdKgv1mqEEMBCACwCQ63aFENG0CC5VA/62igBebjtMqzC1yGuTm0oYY9txLMa2iR5xYA2IRC6/dimVxYQbEaiOfJaQFIoSqUHd1eaNDfKvXSel8AgE3QIYoWfVx6AEk0NID6eU+BFhxHcIf23I8wN3ApE98zoA1jfVftkdMizy0AsAmFMqrFMrmwgmI1EC/dAFLo5fk7Y+0gQdO+86DQB491ww0A2CxhM1pTS9hMgTbUr4bvFQDLENyhNZ5Z4CqcC0Pdno24WEtRNi3yzAIAm1BoTVAskwsrKFYD8Tg5LQAp9NJ+7XnyrsotGvLu4/65LWKsG24AwGYJ7tCaWp5Z83Oo3kShFtAKwR1a45kFrsI6Guo29txGLXuOsCzPLACwCbLksJTyWfKTApCSB+I7ur3QkJLP68S7AgBsgu5mtKaW51VwBepmDQ20RHCH1nhmgauwjoa6jb2JQi17jrCMWm7JBgAGp2RGVZaclhTNkj9KTm8ASYodjM+9tDRkp9TG19g33ACAzRLeoSWVPK8KtKFyDsGBlijKpiXCZsBVOeuCupXqXFqLSvYcYSmeVwBgkwqt34tlc+EKitU+vPjcswUghTbsvy00Q0P+Tqnn1fVWAMAmCZvRitrCZjahoF41fa8AWIYAD63wrAJX5awL6jb23IaibFriWQUANqnQ+r1YNheuoFjtw4sz8LMFIAWDK1/34tKAdx8nXyvV+URwBQDYJAEeWlHbsyq8AvWy1wS0RoCHVtQ2JweaMXkWjRSgYhPvp3kO7fi49AAAgEErlFX92vM+owu1K1rz8GLtfrYApOCA/h2H8jRgp+Rz6h0BADbpOA63aENtwUgH41CnZ4IrQIMEeGiFtSOwCuddUCfvZq+2vUc4j/k4ALBpBdcHRTO6sKSiNQ8vPvtMAcjkOMmzAoNJ8q2HZT4XLuM/flDogwVXAIBtEDijdsep7zm1AQV10h0IaNVHpQcAF/CMAqty4z3UyVl07+P4PkX9atsjBwAGZ/IoxbLkxTK6cAnFah6endR6JEmudV2XrusW/1wovPKNY1f3ULd3Hyc3Sj2jQmUAwDY4NKB2FYbNJsdxKAw1ElwBWqWTK7XzjAKrcuYFdfJunqpwDxJe4iwHANiGQlnZG49lyanbu4/7mocijhY1H13Xnb0BJEnRDol/23WaVOw/KFlZKFAGAGxDjbcrwFm1Pp+C5lAfwRWgVToOUzNrRmANNFKASglYnTLfoWbWjADAthQ8Ay+a1YULFK11eGnt/moBSMED8u94aalYsSt7kqTkZwMA4+Jwi1odJam1aYCgOVRn4r0EWqbjMLXybALrYr4OdTlKJs9KD6Ii91PvPiQ4wwEAtqVgZrVoVhcuULTW4aU9tVcKQCaPUqxa/GvPkx0vLhXaeVjwyp5nJ+8lAMA26B5FrWoOmwmuQF00GAFaJ9BDrTybwLpYR0NdnEW/zryHGrmRDwDYosmjJIUKxb9xLEtOnXYe9rUORRy/miV/9QaQpOim2zcd0lOhf6/kRrQfZADAtjlAoEYVP5eT4zgoh5o8vvi3AFTtfgRjqY9O2MA6+TkHdXEe/bqK9yIZsZqbJAEAw1RwrVA0swtvULTG4bV3orICkD98mLxTqjoGzvHO8+R7JQ+2BMkAgG1ziEBtPk794ZDaxwdjorkIMATm5NRGCBJYo8mzOP+CWjx7tYMoSfq9PvMfauOZBAC2reBa4TsPZMmpyzvP+xqHYmovAEmSf9dBPRUp/jzquAIAbJuOw9TmbukBLME7A3U4PrmVB6B1gj3UxjMJrJt1NNTBWfSbtbAnyXgcxY18AMD2FVwvfO15BdldOKP487hMAcjkWYp2S/y7vy732fCqos/jo5P3EQBg235YegBw4ihNdMCeHCUxd4fySm+8AaxLI3MgRuKjCGoD6yd0DnVw+8ebmQNRE2c2AEABpW/wlCWnJkWfxwfnZcnPuwEkKbqQ/cZx8vsq16nA79/vn8dibH4DAKU43KIWLR1smb9Ded5DYEhamgcxbJ5FYAMmj5K4ve//Z+8OQiS78/uAf98yIeqLlAbZoMEWog0rMiIs7CRaiAbEwpgwIIHBaHdz8Ap80BwS4uRkHXPcucW6bR8CkU5JXwI9sJcGY+gJOFCGEHogCymWXdMD9kJlfakBGyqHV9XdM9PdU91dVf//e+/zgUaDVtv6o643897/fb+/P5TnOfpy7oOogQEBAEBJBZ8ZZMmpRfEs+bn5rYsKIIUf9DW3qME/Lb3hZXIpAFCSl1uUNkmyV3oRV6A0BWVN5iEygL4Q8qEGhgMA6+Q9GJQ1Om+CKC/YjbIa5XlXAwCUVPjZvXiGF1JBp+Hc6+CCAkgzTdELV3OL0t4eJx+WfLF1nDQ2kwCAkvbi5RZldewFa3OUxEtzKEd4DOijLpVh6SclJGCdhDigLCXP5bgfoqRJfAYBgKKaSZKCA9g+HLdZXiil+OkfRxcNb7joBJCk+AO/5hYl/YsqG1sAABvkxQIlTdLNyWbu46Ec1x/QRwfzLyjhIIlBXcAaNcfp1OAH6JXpfJgJr/cofq+iHO9oAIAaFH4HVzzLy6AV7zJc2OW4rABSeNGaW5RS/PSPxORSAKAOXm5RSsdO/zhR+jkChmoyD48B9FEXS7H0g88esAneh0EZpQMsXWJQEqV0dUgSANA/hZ/dZckppYos+YXP75cUQJppil+4mluUUPxzdzQ/OgsAoDQvtyihwy+2mqN0s7gCXSc0BvSZU0AowecO2BQnDUEZpQMsXWNQEiV0dUgSANA7zSTF38UVz/QySMU/d0fzLse5LjsBJCk++UFzi02ru7EFAFCAl1tsWtdfbAmiw+YJjQF919FyLB3mMwdsSDOJIDps2mQ+xITlGZTEpnV4SBIA0FOy5AxM/Vny1xRAaphe+unjsv9+huX7paeaTW24AQCV8aKBTRqn+583QXTYLKdoAkNwkGSv9CIYjL04/QPYLO/FYLNcc9fzKAprbI7BXABAZZqjJBeeRLAZxbO9DErx7sJrhze87gSQpPgGwLuT5P3Sx6gwCO8/Se48K7wIYTEAoEaP4j6FzfgynX+xVcMRuDAoTtEEhqIH90l0wCTJw9KLAIamGaV4iAQGxT7v9UzS3pPDuh2k+0OSAIB+KvwsceeZLDmb8f6TtrtQ1GszJ8sUQCrYAHhwmGyV/o9Jr9163n7OiqvgegMAOJcQEOvWp8nWpgHCZrx28glAj/ThpDTqZ9IwUIr3Y7AZTtG8GSelsQmKRgBArSp4dn9w2GZ9YV22Jl3Jki9RAKlheulbz5PveZBmjb570H7OihrbcAMAKjaKwBnr1aOSUTOK4BxsgvIHMDRO5mOdPPMBJfnzDTbDtXZzD2Pfj/XxzAcAVKyZpPggxLeet1lfWJfv1ZAlX2p4wzIngCRVPGB8/DR52xRV1uDtcfKggs94amiNAQBcxjRY1uVRim8WrZxgOqyfY56BITINlnXx2QIKqmEgIfTeJGn6tv9WwjjJbulF0EuTKGQDAPWrIOP6YCRLznq8PW67CsUtlWdfsgDSjFNFGOfTx6VXQB9V8bmy4QYAdMEkQkGs3jj9/Fw9STItvQjosVHSuMaAITqIwBmrt5v2swVQUg3D2qDPKghq9caXqSI/Q898GQO4AIDqNeNUcc9SReaX3qniczVeNku+7AkgSRVTV96dJO+b7sgKvf+k/VwVZ8MNAOgKwSBW7WHpBaxHM43wCqyT52hgyASDWCVFf6AStQwkhF6aJo19qtXq6Z4mhSj6AwBdUsE7OllyVq2aLPnSXY0rFECaUap4qfSjg+TNZ6VXQR+8+az9PBU3seEGAHTMw1TxbEAPPEq/C0Xu82E9jpLGn0PAkE0icMbqeL4DalLBQELoJXtUq3eQdm8TbsrzHQDQMbLk9E03s+RXOQEkqaK5lSR/uJfcel56FXTZreft56gKNrMBgK4ZxwsJbm6U3k8abibxgh3WwXUFkOxF4Iybe5T2swRQiVpCJNAr0yQm467Hl7FHwc09jBOwAIDuqSTzKkvOTVWVJb9SR+OKBZBaNt3enST39kuvgi67t1/JcT023ACArhI44yYmSX5QehEbUskgBeiNcdJ4KQ7QEjjjJgZQyAY6ynM0rNYoaaalF9FjP0gVGRo6SiEbAOiqJ2mzr4XJknNT1WTJr3T6R3L1E0CSajbdPn6avC84zzW8/6T9/FTBhhsA0GUCZ1zXgKaaOQUEVqySfSmAagiccR1DKmQDnVPLQELoBcMI189p2VyXQjYA0GHNNNW8A5cl57qqypJf+R34NQogNW26/eggefNZ6VXQJW8+az83VZgkTS1rAQC4LoEzrmqIU80E1mE1nP4B8CqBM65jQIVsoKM8R8NqGEa4GU7L5qoUsgGAPniSarIisuRcVXVZ8isXqq5zAkhS1abbH+4lt56XXgVdcOt5+3mpRkXXEQDAtQmccRUDnWrmFBBYEc/RAOcTOOMqhljIBjqnpoGE0FlO/9gsp2VzFQrZAEAPNNNU9e7uX+3LkrOcfmTJr1kAqWnT7d1Jcm+/9Crogu8etJ+XKlyrsQUAUCmBM5Yx9KlmFW1+QScdOf0D4FICZyxjoIVsoKNqmcIIXeX0j81zWjbLUMgGAHqkpiz5nWdtRhhe595+H7Lk1z0BJKlq0+3jp8mHj0uvgpp9+Dh5UNML0IquHwCAlfgyyW7pRVCtSZLfz6CnmjWTKIHATXiOBni9348SCBcbpf2MAHREc5RB7yPAjUySxnP05o3T3m/VEiSiPrtRyAYA+qeid+APRrLkXO7Dx23noBrXfna/QQGktk23B6PkfUeYco73RpWVP8bz6wcAoG8eRuCM85lI3XqSxORFuLrDeYkKgMtN0t6T+z2Tly1O4/PZALpGgB2ux7VTjhPXuMgo7fMaAEDPNKNUlyV/TzaBc7z/pE9Z8pucAJIk+zf8/6/Yjw5cuLzovVHyeW2NPhtuAECfmTrMyx7G6TBzzTSeB+CqpmnLUwAsZ3HKg6A/C07jAzqsOY59JrgqwwjL242gPy9yGh8A0HeVvQP//LEsOS96b9R2DKpyow7GDQsgzSRVHd+TuHA59c7TCssfo/lmNQBAXy3CRe7JSdppd8ofL2hGSTwTwPIO5uUpAJYnXMSC5zOgDw7iNE24itoCLUO1GyeB0FLSBwAGoMYBDp8/bjPEUOVBAofzDsa13fQEkKSdwljZptsfHCRvPiu9Ckp681nyw8pOqIlpvwDAUEzSTjjzQmPYdpM8Kr2ISnkugOUcz0tTAFzdKKYO04YO/VkKdFzjVEBY3qFhhFV5FMNxhs67EgBgSCoc4PDDfVnyoXvzWdspqMpK9rpWUABpKgy1v/U8+eOvXbhD9eaz9uf/1vPSK3nJE1NLAYABMdVq2HYjcHiJZpzqTtOEKtU2iQWga9yTDdvDCBwCvdEcxmma8DrKUnVyTzZcTuMDAAamxgEOsuTDVm2W/GAVWfJVnACS+TTG8Wq+16q4cIep2gt2PN+cBgAYEiWQYRI0XM6TuDbgMqaWAqyGe7NhEjQE+khBHC732DDCark3Gx7lDwBgoJrDyJJThaqz5Ct5TlhRASRJsp/qju9ZXLhvV/YbCutR7QWbtNcHAMAQLUog7smHQcBwaTWepgnVmKS6CUEAnba4R1M+7b9JBAyB3mqO4zRNuMhR0hyVXgSXco82HOMofwAAw1ZhVlYJZFjeHleaJZ9mhdfHCgsgTaUv5996nvybb5L3PFz12nuj5D/sVnjBJu3UUi9XAYAhGyX55/HCo+8eRvnjipqjJF7Ow6v2TS0FWLndOJ2v7xZThgULgT5zmia8ahon5HSF/dP+8y4EAKDNylY4wOGt523GWJa8394btZ2BKrPkT1aZJV/lCSCZH99zvNrvuSqfP3bh9tV7o/bnW6XjpDHVFwDAked9Z4Ld9T1OdadpQlGHSePUKID1WJzOJzjbP563gIFoVjopEXriwBCFTnGCcn953gIAONEcRJacjas+S77SYtSKCyBJkr1UG175/HHyHWH8Xnn/ScUXrGkrAAAvMpG2fyZJfhA/0xtoPDfAqUpPlwXoFRNp+8fPFBiYZpwqJ4lCEUdJ4x6ge3bT7qkqCvSHExcBAF5V8SDEzx+32WP64zsHlWfJ91b9TddQAGkmSSouWfzBk+TDWn/IXMmHj5MfVfxZy5OkqbTFCABQzCROi+iLRaFn5Q+qw9McRXgFkmTP1FKAjRjHaRF9sZgy7PQsYGBqniQKG2OoSLftRWGgLxanuvhZAgC8oDlO1YPffnQgS94XHz5uuwHVOph3K1ZqHSeAZD5l4mg933sVHoySz3aTLQ9gnbQ1aX9+D2p+QXm06uN6AAB65mG8FOmygyS/F6HBVXoS4RWG7dAQBYCNmqQ9NeJR6YVwbY/S/gw9UwFDtZdqJ4nCRhii0H2jtHusNQ+95GKLYVcPSy8EAKBezWFkyVmbzmTJ17K+Zjabtb9omhV/69lWki+SbK/4G6/Qb95I/uunybM7pVfCst55mvxwP3nreemVXGKa5CsbbgAAS7mb5Kfzv9INj5J8WXoR/TS7nfY5GoZmnDRfl14EwIB9lvaevOK9fM5YBM2cxAeQ2b0k90uvAgo4nJ+EQ3/8JMmfll4ESxulvSevOWgGAFCJ2VaSf5dkq/RKLiZL3j2dyJJPkuyuMku+6Hwkay2AJN0Jr/z3j5L/ZXOwet85qPyYnoWvk2ZcehEAAB2ynfYFVweeHQZtkuQHMZFuzYRXGBxDFADqsJPkv0Uxu3ajtPfk9p8BTsw+jT+/GJbjpNktvQjW4n7ae3LF7Lrtph2QZEo0AMDSZjtJflx6Fa8nS94NncmS7ybN8Sq/4bkFkHVpmtxN8ula/yUr8fSd5PFnydTDdHW2Jskne8mdZ6VXsoSD+bFVAABc3RdpiyDuyetzkDZo5qXWRgivMCiGKADUxeThejmJD+Bcs60kf5TkdumVwAYYotB/22lLIEJn9ZmkvR9XwAIAuJauDEKUJa9Xp7Lk+0kzWmdHYwMFkCbdCa84xqc+nTimZ2GUNPulFwEA0HF3k/w0nXh+GAxBs40TXmEwDFEAqNNnae/JveCqwyTJwyR7pRcCUK/ZdtrBIlulVwJrZojCcChm12WU9p58VHohAADdJkvOdXUzS96HAkjHwit/cSf5y/saXCVtTZLvHSQfPy29kiUdJ/nGtBUAgJX5SdoX9+7JyzlIW/zwUqsI4RV6zxAFgLpt5/SenHJ2096TO4kP4LVmH6QtMUJfGaIwPHfT3pN3YEpyb01yek8OAMCNyZJzVd3OkvegAJJ0L7zymzeSn91L/s9HpVcyPO8/SR4cdqSplbRH7X6TNMelFwIA0DM7aV9weXm/WY6yr4bwCr1liAJAd9xPe0/egalsvTJKe09+UHohAN0yu5/kXulVwBoYojBsX6S9Jxc626y9tPfkTt0BAFip2e20JRBZcl6jk1ny3aQ5GejUkwJI0r0LN0l+uZ3sf5L8eqf0Svrv7XHy/YPkzrPSK7miXeUPAIC1up/kp2kLIazXo/mXCcPVmN1N8mnpVcAKTZN8pfwB0Dl/Ov8SOluvSU7vyQG4ltmnUVykX46TxqAWtnN6T856jZM8jDI2AMAazW6nc6dPP30n+fP7suSb8PY4+fRx8m6XcivnHiTQowJI0t3wiqN81ufW8+S7B8mDUemVXMN+0nRx3QAAXfSTeMG1LiYMV014hd5wgiZAtzmhb7320gbNuvRSC6BSsy+S3C69ClgBJ2jyMif0rdejtPvkAACsXVez5D+7m/zV/eQf3ii9kv7ZmiTfO0g+flp6Jddwbpa8ZwWQJJndS/tg2jGLo3z+710X7yrcep783qhjR/ScdZg0AnIAAJu1k7YE0rFpENUap32pZYpg9ZRA6IW9pDkqvQgAbux+2nvyDu7xV+kg7T25vWaAlZltJfmjKIHQbYYocJkv0t6Tmz68Grtp78nHpRcCADAss/tJ7pVexdXJkq9W57PkB0lzeN7/0MMCSNLt8IqL92Y6f7EmyShp9ksvAgBgwBRBbkbxo3OEV+g8J2gC9I8iyM0ofgCs1Ww77b7RVumVwDUof7AsRZCbUfwAAChOlny4+p8l72kBJOn2hbvws7vJ//4omW6XXkn9tibJt0fJ90cdvlgT5Q8AgJrspH3J9UUS9+Svd5BkL4ofHaUEQmcpfwD0292c3pPzervzL382Aqzd7Hba52glELrGCZpc1RdJPoty9jImOS1+TAqvBQCAJN3Pkv/mjeTP7yY/vytLvoytSfLPniQPur5H/toseY8LIEn3L9wFRZCL9eZiTZJx0nxdehEAALxiO6cngrgnf5Xpwr2hBELnGKIAMBxO6buc6cIARSiB0DmGKHATTum7mOIHAEDVZj9OL062kyW/WK+y5Eu9A+95ASRJZl+kN+GVv7iT/GIn+esPHOnz3ih5b5x8/LT0SlbkOO1Ru9PSCwEA4ELbOZ109lnhtZQ2Tnvax15MF+6Z2VaUnegG5Q+AYdpJey/+WXox/OlGRjm9J1f8AChGCYTOUP5gVe7m9J68ByG6G9nL6cnYih8AANXq2yDERZb8FwPfI7/1PPmdo/5lyZvdZf7BIRRAenbhJu2RPv/jg+RXO8mzO6VXszlvj5Odp8m/PEreel56NSuk/AEA0D1DDZ7t5vSFFr0lvEL1lD8ASE6DZ0Mqry4mCytiA1RltpPkx6VXAZdQ/mBdFgOThnRSnyI2AEAn9TlLPr6T/HpA5ex3nia/Ox56lnwABZCknxfuwi+3k7+6k/z8bj+P9dmaJN8eJd99mrzbx4kJyh8AAN3X9+DZovBhitmgKIFQLeUPAM7T9+CZIjZA9WaLYSGeo6mN8gebsDg9e3Ff3jeK2AAAvSBL3l2y5C8bSAEkmV+4nyT5YE3LqcAvt5OjneRv3kn++oPkH94ovaKru/U8+a1x2876YNzTC3VB+QMAoH/upn3BtSiFdNE4bbhs8dXne3Iu1ecNMDpK+QOAZdw/89XV0/pGefGeHIBOMEyB6ih/UMJ2Xrwn7+ok4kXZ4yBKHwAAPTKEd+CLLPmvdpK/3elulvx3jpLffjaALPlRksdXp/6cEgAAIABJREFUzZIPqACyMPs03X3pc0VP30l+vpP8ze16L+JF4eO3j5Nvj5M7z0qvaEPmGwXKHwAAPXc2eFbr5LNF4WPxMsux9ZwxhA0wOuIwaQRgAbiqRfjsbFG7RmeDZUrYAJ2mBEI1lD+oxU5evCevtRBy9n7cHhQAQK/NtlL3fvGKyZJX7NoDEAdYAEmGVQI56+k7yd9uJ89uJ3+3nfz9G8mvN/hw/fY4+UfPkzcnyTvHyW9NBnSRnmViKQDAcC1ecO2kfSbZzuaeTSZpX2CN579elD0UPngNJRCKE1oBYFUW999n78UX9+ebsLj/HuX0/nzxawB6QwmEoqZpJ4celV4IXGBx/30/7T352b3yTTh7L764P1f4AAAYJFlyWfKibpQlH2gBJElm95PcW9Vauu2/fJL8Yo2/if2TXyV/8p/X9/07RfkDAIDz/GWSD9f4/f8syb9f4/en92ZbST5J8kHplTA4yh8AbMp6X2gkN3mhAUDnzLaTfBbDFNisaZJvkua49ELgGv5Tkj9Z4/f/n0m+t8bvDwBAJw21BHKeP/vj5P/97vq+/3uj5PPH6/v+nXKYNDcqoq+zo/GttX3nlWgOkgjiJ0n+8fP1fv9bf7/e798Z+8ofAABc4O/W/P3XfM9P/zXTpNlLOxkPNmGaZFf5AwAA6KZmkuSbJIL4bMpx2udonzm6at172OvegwcAoJOa/ciSz607673urHpn7N+0/LFulRdAknmI4Ou0oQJYl2mSPaEVAACg+5r9JFVvRtAL86CU0AoAANBlzTRpdmOYAut3nPY5elJ6IQAAAN3TjJLsRZac9Zom+boLWfIOFECSpBmnnb5iM4R1WByze1R6IQAAAKvRHKadgmIDjHUwsRQAAOiZZj/JYelV0FujtmjU2KcBAAC4tuYobZbcsxXrsBiAOC69kGV0pACSzEMFu0k68R+Wzhgn+UpoBQAA6J9mlHYDzPMOqyS0AgAA9FRzENNEWb2DecEIAACAG2uOk3wVWXJWa5yODUDsUAEkmR/B+3VMX2E1DtvPk9AKAADQV81x2hKIEw+5qWmSfaEVAACg306miXbmhT/VmqYNj8g2AAAArJQsOSvVySz5rdILuJ7mIJk9S/JJkq3Sq6FzpmknrYxKLwQAAGD9mmmSvWQ2SXKv9GropEmSvS5NPAEAALi+5jiZfZPkfpK7pVdDJ80HcnQrPAIAANAtzcH8Hfj9yJJzddMkj+fDQDqnowWQpP0PPjtO8lmS26VXQ2ccp71ghVYAAICBaQ6S2Tjtc7QNMJZ1lPY5WmgFAAAYkGZ+CuJskuSjeI5meYftHgwAAADr14zOHCggS86yjtMOQJyUXsh1fav0Am6mmSTNbhzjw3IO28+L8gcAADBUzTjJV2lD/XCZedip2VP+AAAAhqs5TPJN2mAAXGaS5GvlDwAAgE1rjmXJuYJFlryz5Y+k0yeAnHUyxfTTJNulV0N1pmmbWuPSCwEAACivmT8jzcZxHC7n6/zEEwAAgNVpjpPsJrP7Se6VXg1VcnomAABAcSdZ8s/iHTivmqQdgNiLLHlPCiBJ+wOZ7aYNr9wtvRqqYbMNAADgXM3ozDCFndKroRqHppUCAACcx1BCXjFN+y7aSasAAABVaMbJ7KsknyT5oPRqqMYoyUGfsuQ9KoAk8x/MfjI7io23oetVUwsAAGA9mkmSr5PZvSQfxSSUIRun3fQ6Lr0QAACAep0MJfwoTgMZOoMIAQAAqtRMk+wls1FkyYeut1nynhVAFmy8Ddxhkic22wAAAJbVHM6HKdyPSShDM037DH1YeiEAAADd0EyTHCSzp2knit4uvCA2q7fhEQAAgH6RJR+4XmfJe1oASV7aeLufZKfwgli/47TTSm22AQAAXFkzSTsJZfEcbRJK/x2lfY6elF4IAABA9zTHSXaT2f0kd+NUzSHodXgEAACgf06y5OO078ANcei/cdp34MelF7JOPS6ALDTHSb5OZnfTNrgEWPpn/ht0Myq9EAAAgO5rjuYbYB9FgKWvDFAAAABYmeYgmT1JGyS5W3o1rMU47akfBigAAAB0UjNOO8Thbtrnd+/A+2eS5HAoWfIBFEAWmtF8iqmjfPrFlBUAAICVO5mEMkr7DC3A0g/TtM/Qh6UXAgAA0C/NNMl+MjtK+xy9U3hBrMYkbfHDAAUAAIBekCXvqcFlyQdUAEkEWHpllLapZcoKAADA2jTzoIMAS8dN0z5HD2rTCwAAYPOacZLxfKLovSTbhRfE9QxqaigAAMCwyJL3yGCz5AMrgCycBFgO4+LtmsFerAAAAOWcBFh2ogjSNYObdgIAAFBeM0oyUgTpHAMUAAAABkOWvMMGnyUfaAFkwcXbIeMkB0lzXHohAAAAw6UI0iGD3/QCAAAoTxGkIxQ/AAAABuskSz5Kcj/egdfMO/C5gRdAFhRBKuZiBQAAqI4iSKUWgZWR52gAAICavFAEuZvkduEF0Zrk9Dla8QMAAGDQmuMkXyez7ciS10aW/CUKIC84KYIcJPko7cW7VXZNgySwAgAA0AknRRCbYGUJrAAAAHTCSRHEQIWyxkmO5j8PAAAAOOOFQwUWgxxkyTdPlvwSCiDnaqZJDpLZkyR3YgrLphynvVifCqwAAAB0ySubYB8k2S67pkEQWAEAAOikVwYq3IkwySaM0j5Hj0svBAAAgNo1k8iSlyBLvgQFkEs1Z9pDs9tpL16bb6s1TfI0bUPruPRiAAAAuInFJlgOktkHaZ+hPyi7pt6ZJDmKSScAAAA9sBiokP1kthio4FSQ1XJqJgAAADcgS74BsuRXpACytOY4yXEyO0h74e5EiOUmjtJOKtXQAgAA6KXmKMlRMnuc000wE1GuZ7HhNZ7/dwUAAKB3mkWYZDtO17wpwREAAADWQJZ8xWTJr0kB5MpeaHI9jgv4KhzLAwAAMDjNNMlh+zXbTvv8rAyyHBteAAAAg/PC6Zq3c3q6pjLI5QxPAAAAYEPOzZLfjXfgy/AOfAUUQG7kwjLIThztk7SbbOPTr2ZSeD0AAAAU1Uzyahlk8RzNaVjlODa8AAAAOJks+kIZZCcCJQuTtMGRZ0ofAAAAlPFClnw7p++/ZclbZ7Pk3oGviALIypy9gJNkdvYCHtIG3HFOCx/j0osBAACgVi+UQbby4kbYkKaajnNa+DguvRgAAABqdVIGyZlAyaIUMqRAybzwkSMDCAEAAKhLM4kseSJLvnYKIGvTLNpKORNkeSftBdynyaaLoMqz9teaWQAAAFxVM00b4JhP6zwJspwNtPTBNO3z83zDy2YXAAAA1/FCoGR/fjrI2XfRfRmsMMmL76INTgAAAKBDZMlZj7UXQGaz2br/FV3wUpAlaZqTAMsb87++k7ons5wNqTxv/yqoAgAAwDqcBFnmZls53QjbzmkxpGZnn6Mn7a8FVQAAAFiHk9NBFhNGF8/RizLIduofrrAoe8yfoXPshA8AAAD64+WhiMn8hJDOZ8lf7QroDqybE0CKOdvqWpid3Xx7Y/7rxebcpozTXqCTnFycmdhcAwAAoJxmmpMjYs+aLZ6fF2WQRZhlU+WQxQbXJKfP0ouyh6kmAAAAFHLpc/R2Tt8/nw2ZbMLkzNfimXpq8CAAAADDVGWW/Mzzuix5rRRAqtIsNrvO2+DaTrY+evH6vSjPcnZ/7qLhomf/Fc+STMfJv/2Py64UAAAAyjs5UeOCoMjJ5lhy8abY1pl/Jjn/Qfr5i39fMAUAAIAuOjkp5Oj8//1k0EJyenLIyxbBk+Q0DPKyyYt/33M0AAAALOfSLPn9ZGtnjVnyw+RfP1p6qRSjANIpi0EtC/bJAAAA4GLNS4GTiwIuAAAAwJlBCwAAAECVZMlJvlV6AQAAAAAAAAAAAAAAAFxOAQQAAAAAAAAAAAAAAKByCiAAAAAAAAAAAAAAAACVUwABAAAAAAAAAAAAAAConAIIAAAAAAAAAAAAAABA5RRAAAAAAAAAAAAAAAAAKqcAAgAAAAAAAAAAAAAAUDkFEAAAAAAAAAAAAAAAgMopgAAAAAAAAAAAAAAAAFROAQQAAAAAAAAAAAAAAKByCiAAAAAAAAAAAAAAAACVUwABAAAAAAAAAAAAAAConAIIAAAAAAAAAAAAAABA5RRAAAAAAAAAAAAAAAAAKqcAAgAAAAAAAAAAAAAAUDkFEAAAAAAAAAAAAAAAgMopgAAAAAAAAAAAAAAAAFROAQQAAAAAAAAAAAAAAKByCiAAAAAAAAAAAAAAAACVUwABAAAAAAAAAAAAAAConAIIAAAAAAAAAAAAAABA5RRAAAAAAAAAAAAAAAAAKqcAAgAAAAAAAAAAAAAAUDkFEAAAAAAAAAAAAAAAgMopgAAAAAAAAAAAAAAAAFROAQQAAAAAAAAAAAAAAKByCiAAAAAAAAAAAAAAAACVUwABAAAAAAAAAAAAAAConAIIAAAAAAAAAAAAAABA5RRAAAAAAAAAAAAAAAAAKqcAAgAAAAAAAAAAAAAAUDkFEAAAAAAAAAAAAAAAgMopgAAAAAAAAAAAAAAAAFROAQQAAAAAAAAAAAAAAKByCiAAAAAAAAAAAAAAAACVUwABAAAAAAAAAAAAAAConAIIAAAAAAAAAAAAAABA5RRAAAAAAAAAAAAAAAAAKqcAAgAAAAAAAAAAAAAAUDkFEAAAAAAAAAAAAAAAgMrdKr2AoZrNZkv/s03TrHElAAAAAAAAAAAAAAAM3VUy7pThBBAAAAAAAAAAAAAAAIDKKYAAAAAAAAAAAAAAAABUTgEEAAAAAAAAAAAAAACgcgogAAAAAAAAAAAAAAAAlVMAAQAAAAAAAAAAAAAAqJwCCAAAAAAAAAAAAAAAQOUUQAAAAAAAAAAAAAAAACqnAAIAAAAAAAAAAAAAAFA5BRAAAAAAAAAAAAAAAIDKKYAAAAAAAAAAAAAAAABUTgEEAAAAAAAAAAAAAACgcgogAAAAAAAAAAAAAAAAlVMAAQAAAAAAAAAAAAAAqJwCCAAAAAAAAAAAAAAAQOUUQAAAAAAAAAAAAAAAACqnAAIAAAAAAAAAAAAAAFA5BRAAAAAAAAAAAAAAAIDKKYAAAAAAAAAAAAAAAABUTgEEAAAAAAAAAAAAAACgcgogAAAAAAAAAAAAAAAAlVMAAQAAAAAAAAAAAAAAqJwCCAAAAAAAAAAAAAAAQOUUQAAAAAAAAAAAAAAAACqnAAIAAAAAAAAAAAAAAFA5BRAAAAAAAAAAAAAAAIDKKYAAAAAAAAAAAAAAAABUTgEEAAAAAAAAAAAAAACgcgogAAAAAAAAAAAAAAAAlVMAAQAAAAAAAAAAAAAAqJwCCAAAAAAAAAAAAAAAQOUUQAAAAAAAAAAAAAAAACqnAAIAAAAAAAAAAAAAAFA5BRAAAAAAAAAAAAAAAIDKKYAAAAAAAAAAAAAAAABUTgEEAAAAAAAAAAAAAACgcgogAAAAAAAAAAAAAAAAlVMAAQAAAAAAAAAAAAAAqJwCCAAAAAAAAAAAAAAAQOUUQAAAAAAAAAAAAAAAACqnAAIAAAAAAAAAAAAAAFA5BRAAAAAAAAAAAAAAAIDKKYAAAAAAAAAAAAAAAABUTgEEAAAAAAAAAAAAAACgcgogAAAAAAAAAAAAAAAAlVMAAQAAAAAAAAAAAAAAqJwCCAAAAAAAAAAAAAAAQOUUQAAAAAAAAAAAAAAAACqnAAIAAAAAAAAAAAAAAFA5BRAAAAAAAAAAAAAAAIDKKYAAAAAAAAAAAAAAAABUTgEEAAAAAAAAAAAAAACgcgogAAAAAAAAAAAAAAAAlVMAAQAAAAAAAAAAAAAAqJwCCAAAAAAAAAAAAAAAQOUUQAAAAAAAAAAAAAAAACqnAAIAAAAAAAAAAAAAAFA5BRAAAAAAAAAAAAAAAIDKKYAAAAAAAAAAAAAAAABUTgEEAAAAAAAAAAAAAACgcgogAAAAAAAAAAAAAAAAlVMAAQAAAAAAAAAAAAAAqJwCCAAAAAAAAAAAAAAAQOUUQAAAAAAAAAAAAAAAACqnAAIAAAAAAAAAAAAAAFA5BRAAAAAAAAAAAAAAAIDKKYAAAAAAAAAAAAAAAABUTgEEAAAAAAAAAAAAAACgcgogAAAAAAAAAAAAAAAAlVMAAQAAAAAAAAAAAAAAqJwCCAAAAAAAAAAAAAAAQOUUQAAAAAAAAAAAAAAAACqnAAIAAAAAAAAAAAAAAFA5BRAAAAAAAAAAAAAAAIDKKYAAAAAAAAAAAAAAAABUTgEEAAAAAAAAAAAAAACgcgogAAAAAAAAAAAAAAAAlVMAAQAAAAAAAAAAAAAAqJwCCAAAAAAAAAAAAAAAQOUUQAAAAAAAAAAAAAAAACqnAAIAAAAAAAAAAAAAAFA5BRAAAAAAAAAAAAAAAIDKKYAAAAAAAAAAAAAAAABUTgEEAAAAAAAAAAAAAACgcgogAAAAAAAAAAAAAAAAlVMAAQAAAAAAAAAAAAAAqJwCCAAAAAAAAAAAAAAAQOUUQAAAAAAAAAAAAAAAACqnAAIAAAAAAAAAAAAAAFA5BRAAAAAAAAAAAAAAAIDKKYAAAAAAAAAAAAAAAABUTgEEAAAAAAAAAAAAAACgcgogAAAAAAAAAAAAAAAAlVMAAQAAAAAAAAAAAAAAqJwCCAAAAAAAAAAAAAAAQOUUQAAAAAAAAAAAAAAAACqnAAIAAAAAAAAAAAAAAFA5BRAAAAAAAAAAAAAAAIDKKYAAAAAAAAAAAAAAAABUTgEEAAAAAAAAAAAAAACgcgogAAAAAAAAAAAAAAAAlVMAAQAAAAAAAAAAAAAAqJwCCAAAAAAAAAAAAAAAQOUUQAAAAAAAAAAAAAAAACqnAAIAAAAAAAAAAAAAAFA5BRAAAAAAAAAAAAAAAIDKKYAAAAAAAAAAAAAAAABUTgEEAAAAAAAAAAAAAACgcgogAAAAAAAAAAAAAAAAlVMAAQAAAAAAAAAAAAAAqJwCCAAAAAAAAAAAAAAAQOUUQAAAAAAAAAAAAAAAACqnAAIAAAAAAAAAAAAAAFA5BRAAAAAAAAAAAAAAAIDKKYAAAAAAAAAAAAAAAABUTgEEAAAAAAAAAAAAAACgcgogAAAAAAAAAAAAAAAAlVMAAQAAAAAAAAAAAAAAqJwCCAAAAAAAAAAAAAAAQOUUQAAAAAAAAAAAAAAAACqnAAIAAAAAAAAAAAAAAFA5BRAAAAAAAAAAAAAAAIDKKYAAAAAAAAAAAAAAAABUTgEEAAAAAAAAAAAAAACgcgogAAAAAAAAAAAAAAAAlVMAAQAAAAAAAAAAAAAAqJwCCAAAAAAAAAAAAAAAQOUUQAAAAAAAAAAAAAAAACqnAAIAAAAAAAAAAAAAAFA5BRAAAAAAAAAAAAAAAIDKKYAAAAAAAAAAAAAAAABUTgEEAAAAAAAAgP/Pvh0LAAAAAAzyt57GjvIIAAAAAJgTQAAAAAAAAAAAAAAAAOYEEAAAAAAAAAAAAAAAgDkBBAAAAAAAAAAAAAAAYE4AAQAAAAAAAAAAAAAAmBNAAAAAAAAAAAAAAAAA5gQQAAAAAAAAAAAAAACAOQEEAAAAAAAAAAAAAABgTgABAAAAAAAAAAAAAACYE0AAAAAAAAAAAAAAAADmBBAAAAAAAAAAAAAAAIA5AQQAAAAAAAAAAAAAAGBOAAEAAAAAAAAAAAAAAJgTQAAAAAAAAAAAAAAAAOYEEAAAAAAAAAAAAAAAgDkBBAAAAAAAAAAAAAAAYE4AAQAAAAAAAAAAAAAAmBNAAAAAAAAAAAAAAAAA5gQQAAAAAAAAAAAAAACAOQEEAAAAAAAAAAAAAABgTgABAAAAAAAAAAAAAACYE0AAAAAAAAAAAAAAAADmBBAAAAAAAAAAAAAAAIA5AQQAAAAAAAAAAAAAAGBOAAEAAAAAAAAAAAAAAJgTQAAAAAAAAAAAAAAAAOYEEAAAAAAAAAAAAAAAgDkBBAAAAAAAAAAAAAAAYE4AAQAAAAAAAAAAAAAAmBNAAAAAAAAAAAAAAAAA5gQQAAAAAAAAAAAAAACAOQEEAAAAAAAAAAAAAABgTgABAAAAAAAAAAAAAACYE0AAAAAAAAAAAAAAAADmBBAAAAAAAAAAAAAAAIA5AQQAAAAAAAAAAAAAAGBOAAEAAAAAAAAAAAAAAJgTQAAAAAAAAAAAAAAAAOYEEAAAAAAAAAAAAAAAgDkBBAAAAAAAAAAAAAAAYE4AAQAAAAAAAAAAAAAAmBNAAAAAAAAAAAAAAAAA5gQQAAAAAAAAAAAAAACAOQEEAAAAAAAAAAAAAABgTgABAAAAAAAAAAAAAACYE0AAAAAAAAAAAAAAAADmBBAAAAAAAAAAAAAAAIA5AQQAAAAAAAAAAAAAAGBOAAEAAAAAAAAAAAAAAJgTQAAAAAAAAAAAAAAAAOYEEAAAAAAAAAAAAAAAgDkBBAAAAAAAAAAAAAAAYE4AAQAAAAAAAAAAAAAAmBNAAAAAAAAAAAAAAAAA5gQQAAAAAAAAAAAAAACAOQEEAAAAAAAAAAAAAABgTgABAAAAAAAAAAAAAACYE0AAAAAAAAAAAAAAAADmBBAAAAAAAAAAAAAAAIA5AQQAAAAAAAAAAAAAAGBOAAEAAAAAAAAAAAAAAJgTQAAAAAAAAAAAAAAAAOYEEAAAAAAAAAAAAAAAgDkBBAAAAAAAAAAAAAAAYE4AAQAAAAAAAAAAAAAAmBNAAAAAAAAAAAAAAAAA5gQQAAAAAAAAAAAAAACAOQEEAAAAAAAAAAAAAABgTgABAAAAAAAAAAAAAACYE0AAAAAAAAAAAAAAAADmBBAAAAAAAAAAAAAAAIA5AQQAAAAAAAAAAAAAAGBOAAEAAAAAAAAAAAAAAJgTQAAAAAAAAAAAAAAAAOYEEAAAAAAAAAAAAAAAgDkBBAAAAAAAAAAAAAAAYE4AAQAAAAAAAAAAAAAAmBNAAAAAAAAAAAAAAAAA5gQQAAAAAAAAAAAAAACAOQEEAAAAAAAAAAAAAABgTgABAAAAAAAAAAAAAACYE0AAAAAAAAAAAAAAAADmBBAAAAAAAAAAAAAAAIA5AQQAAAAAAAAAAAAAAGBOAAEAAAAAAAAAAAAAAJgTQAAAAAAAAAAAAAAAAOYEEAAAAAAAAAAAAAAAgDkBBAAAAAAAAAAAAAAAYE4AAQAAAAAAAAAAAAAAmBNAAAAAAAAAAAAAAAAA5gQQAAAAAAAAAAAAAACAOQEEAAAAAAAAAAAAAABgTgABAAAAAAAAAAAAAACYE0AAAAAAAAAAAAAAAADmBBAAAAAAAAAAAAAAAIA5AQQAAAAAAAAAAAAAAGBOAAEAAAAAAAAAAAAAAJgTQAAAAAAAAAAAAAAAAOYEEAAAAAAAAAAAAAAAgDkBBAAAAAAAAAAAAAAAYE4AAQAAAAAAAAAAAAAAmBNAAAAAAAAAAAAAAAAA5gQQAAAAAAAAAAAAAACAOQEEAAAAAAAAAAAAAABgTgABAAAAAAAAAAAAAACYE0AAAAAAAAAAAAAAAADmBBAAAAAAAAAAAAAAAIA5AQQAAAAAAAAAAAAAAGBOAAEAAAAAAAAAAAAAAJgTQAAAAAAAAAAAAAAAAOYEEAAAAAAAAAAAAAAAgDkBBAAAAAAAAAAAAAAAYE4AAQAAAAAAAAAAAAAAmBNAAAAAAAAAAAAAAAAA5gQQAAAAAAAAAAAAAACAOQEEAAAAAAAAAAAAAABgTgABAAAAAAAAAAAAAACYE0AAAAAAAAAAAAAAAADmBBAAAAAAAAAAAAAAAIA5AQQAAAAAAAAAAAAAAGBOAAEAAAAAAAAAAAAAAJgTQAAAAAAAAAAAAAAAAOYEEAAAAAAAAAAAAAAAgDkBBAAAAAAAAAAAAAAAYE4AAQAAAAAAAAAAAAAAmBNAAAAAAAAAAAAAAAAA5gQQAAAAAAAAAAAAAACAOQEEAAAAAAAAAAAAAABgTgABAAAAAAAAAAAAAACYE0AAAAAAAAAAAAAAAADmBBAAAAAAAAAAAAAAAIA5AQQAAAAAAAAAAAAAAGBOAAEAAAAAAAAAAAAAAJgTQAAAAAAAAAAAAAAAAOYEEAAAAAAAAAAAAAAAgDkBBAAAAAAAAAAAAAAAYE4AAQAAAAAAAAAAAAAAmBNAAAAAAAAAAAAAAAAA5gQQAAAAAAAAAAAAAACAOQEEAAAAAAAAAAAAAABgTgABAAAAAAAAAAAAAACYE0AAAAAAAAAAAAAAAADmBBAAAAAAAAAAAAAAAIA5AQQAAAAAAAAAAAAAAGBOAAEAAAAAAAAAAAAAAJgTQAAAAAAAAAAAAAAAAOYEEAAAAAAAAAAAAAAAgDkBBAAAAAAAAAAAAAAAYE4AAQAAAAAAAAAAAAAAmBNAAAAAAAAAAAAAAAAA5gQQAAAAAAAAAAAAAACAOQEEAAAAAAAAAAAAAABgTgABAAAAAAAAAAAAAACYE0AAAAAAAAAAAAAAAADmBBAAAAAAAAAAAAAAAIA5AQQAAAAAAAAAAAAAAGBOAAEAAAAAAAAAAAAAAJgTQAAAAAAAAAAAAAAAAOYEEAAAAAAAAAAAAAAAgDkBBAAAAAAAAAAAAAAAYE4AAQAAAAAAAAAAAAAAmBNAAAAAAAAAAAAAAAAA5gQQAAAAAAAAAAAAAACAOQEEAAAAAAAAAAAAAABgTgABAAAAAAAAAAAAAACYE0AAAAAAAAAAAAAAAADmBBAAAAAAAAAAAAAAAIA5AQQAAAAAAAAAAAAAAGBOAAEAAAAAAAAAAAAAAJgTQAAAAAAAAAAAAAAAAOYEEAAAAAAAAAAAAAAAgDkBBAAAAAAAAAAAAAAAYE4AAQAAAAAAAAAAAAAAmBNAAAAAAAAAAAAAAAAA5gQQAAAAAAAAAAAAAACAOQEEAAAAAAAAAAAAAABgTgABAAAAAAAAAAAAAACYE0AAAAAAAAAAAAAAAADmBBAAAAAAAAAAAAAAAIDEv33fAAAgAElEQVQ5AQQAAAAAAAAAAAAAAGBOAAEAAAAAAAAAAAAAAJgTQAAAAAAAAAAAAAAAAOYEEAAAAAAAAAAAAAAAgDkBBAAAAAAAAAAAAAAAYE4AAQAAAAAAAAAAAAAAmBNAAAAAAAAAAAAAAAAA5gQQAAAAAAAAAAAAAACAOQEEAAAAAAAAAAAAAABgTgABAAAAAAAAAAAAAACYE0AAAAAAAAAAAAAAAADmBBAAAAAAAAAAAAAAAIA5AQQAAAAAAAAAAAAAAGBOAAEAAAAAAAAAAAAAAJgTQAAAAAAAAAAAAAAAAOYEEAAAAAAAAAAAAAAAgDkBBAAAAAAAAAAAAAAAYE4AAQAAAAAAAAAAAAAAmBNAAAAAAAAAAAAAAAAA5gQQAAAAAAAAAAAAAACAOQEEAAAAAAAAAAAAAABgTgABAAAAAAAAAAAAAACYE0AAAAAAAAAAAAAAAADmBBAAAAAAAAAAAAAAAIA5AQQAAAAAAAAAAAAAAGBOAAEAAAAAAAAAAAAAAJgTQAAAAAAAAAAAAAAAAOYEEAAAAAAAAAAAAAAAgDkBBAAAAAAAAAAAAAAAYE4AAQAAAAAAAAAAAAAAmBNAAAAAAAAAAAAAAAAA5gQQAAAAAAAAAAAAAACAOQEEAAAAAAAAAAAAAABgTgABAAAAAAAAAAAAAACYE0AAAAAAAAAAAAAAAADmBBAAAAAAAAAAAAAAAIA5AQQAAAAAAAAAAAAAAGBOAAEAAAAAAAAAAAAAAJgTQAAAAAAAAAAAAAAAAOYEEAAAAAAAAAAAAAAAgDkBBAAAAAAAAAAAAAAAYE4AAQAAAAAAAAAAAAAAmBNAAAAAAAAAAAAAAAAA5gQQAAAAAAAAAAAAAACAOQEEAAAAAAAAAAAAAABgTgABAAAAAAAAAAAAAACYE0AAAAAAAAAAAAAAAADmBBAAAAAAAAAAAAAAAIA5AQQAAAAAAAAAAAAAAGBOAAEAAAAAAAAAAAAAAJgTQAAAAAAAAAAAAAAAAOYEEAAAAAAAAAAAAAAAgDkBBAAAAAAAAAAAAAAAYE4AAQAAAAAAAAAAAAAAmBNAAAAAAAAAAAAAAAAA5gQQAAAAAAAAAAAAAACAOQEEAAAAAAAAAAAAAABgTgABAAAAAAAAAAAAAACYE0AAAAAAAAAAAAAAAADmBBAAAAAAAAAAAAAAAIA5AQQAAAAAAAAAAAAAAGBOAAEAAAAAAAAAAAAAAJgTQAAAAAAAAAAAAAAAAOYEEAAAAAAAAAAAAAAAgDkBBAAAAAAAAAAAAAAAYE4AAQAAAAAAAAAAAAAAmBNAAAAAAAAAAAAAAAAA5gQQAAAAAAAAAAAAAACAOQEEAAAAAAAAAAAAAABgTgABAAAAAAAAAAAAAACYE0AAAAAAAAAAAAAAAADmBBAAAAAAAAAAAAAAAIA5AQQAAAAAAAAAAAAAAGBOAAEAAAAAAAAAAAAAAJgTQAAAAAAAAAAAAAAAAOYEEAAAAAAAAAAAAAAAgDkBBAAAAAAAAAAAAAAAYE4AAQAAAAAAAAAAAAAAmBNAAAAAAAAAAAAAAAAA5gQQAAAAAAAAAAAAAACAOQEEAAAAAAAAAAAAAABgTgABAAAAAAAAAAAAAACYE0AAAAAAAAAAAAAAAADmBBAAAAAAAAAAAAAAAIA5AQQAAAAAAAAAAAAAAGBOAAEAAAAAAAAAAAAAAJgTQAAAAAAAAAAAAAAAAOYEEAAAAAAAAAAAAAAAgDkBBAAAAAAAAAAAAAAAYE4AAQAAAAAAAAAAAAAAmBNAAAAAAAAAAAAAAAAA5gQQAAAAAAAAAAAAAACAOQEEAAAAAAAAAAAAAABgTgABAAAAAAAAAAAAAACYE0AAAAAAAAAAAAAAAADmBBAAAAAAAAAAAAAAAIA5AQQAAAAAAAAAAAAAAGBOAAEAAAAAAAAAAAAAAJgTQAAAAAAAAAAAAAAAAOYEEAAAAAAAAAAAAAAAgDkBBAAAAAAAAAAAAAAAYE4AAQAAAAAAAAAAAAAAmBNAAAAAAAAAAAAAAAAA5gQQAAAAAAAAAAAAAACAOQEEAAAAAAAAAAAAAABgTgABAAAAAAAAAAAAAACYE0AAAAAAAAAAAAAAAADmBBAAAAAAAAAAAAAAAIA5AQQAAAAAAAAAAAAAAGBOAAEAAAAAAAAAAAAAAJgTQAAAAAAAAAAAAAAAAOYEEAAAAAAAAAAAAAAAgDkBBAAAAAAAAAAAAAAAYE4AAQAAAAAAAAAAAAAAmBNAAAAAAAAAAAAAAAAA5gQQAAAAAAAAAAAAAACAOQEEAAAAAAAAAAAAAABgTgABAAAAAAAAAAAAAACYE0AAAAAAAAAAAAAAAADmBBAAAAAAAAAAAAAAAIA5AQQAAAAAAAAAAAAAAGBOAAEAAAAAAAAAAAAAAJgTQAAAAAAAAAAAAAAAAOYEEAAAAAAAAAAAAAAAgDkBBAAAAAAAAAAAAAAAYE4AAQAAAAAAAAAAAAAAmBNAAAAAAAAAAAAAAAAA5gQQAAAAAAAAAAAAAACAOQEEAAAAAAAAAAAAAABgTgABAAAAAAAAAAAAAACYE0AAAAAAAAAAAAAAAADmBBAAAAAAAAAAAAAAAIA5AQQAAAAAAAAAAAAAAGBOAAEAAAAAAAAAAAAAAJgTQAAAAAAAAAAAAAAAAOYEEAAAAAAAAAAAAAAAgDkBBAAAAAAAAAAAAAAAYE4AAQAAAAAAAAAAAAAAmBNAAAAAAAAAAAAAAAAA5gQQAAAAAAAAAAAAAACAOQEEAAAAAAAAAAAAAABgTgABAAAAAAAAAAAAAACYE0AAAAAAAAAAAAAAAADmBBAAAAAAAAAAAAAAAIA5AQQAAAAAAAAAAAAAAGBOAAEAAAAAAAAAAAAAAJgTQAAAAAAAAAAAAAAAAOYEEAAAAAAAAAAAAAAAgDkBBAAAAAAAAAAAAAAAYE4AAQAAiL37Z7ErW/MD/DvNHbATw4ns8FI9gYNrGKjGHjBmkhL+BHU/QgnnBvVHKGVOS5Fj6SNIyWCcGFVkh5ZwOE5UMIkNDsrBrnNV6q6Szt+93rX288BL3+He5qzWWWd67b3e31oAAAAAAAAAAADFCYAAAAAAAAAAAAAAAAAUJwACAAAAAAAAAAAAAABQnAAIAAAAAAAAAAAAAABAcQIgAAAAAAAAAAAAAAAAxQmAAAAAAAAAAAAAAAAAFCcAAgAAAAAAAAAAAAAAUJwACAAAAAAAAAAAAAAAQHECIAAAAAAAAAAAAAAAAMUJgAAAAAAAAAAAAAAAABQnAAIAAAAAAAAAAAAAAFCcAAgAAAAAAAAAAAAAAEBxAiAAAAAAAAAAAAAAAADFCYAAAAAAAAAAAAAAAAAUJwACAAAAAAAAAAAAAABQnAAIAAAAAAAAAAAAAABAcQIgAAAAAAAAAAAAAAAAxQmAAAAAAAAAAAAAAAAAFCcAAgAAAAAAAAAAAAAAUJwACAAAAAAAAAAAAAAAQHECIAAAAAAAAAAAAAAAAMUJgAAAAAAAAAAAAAAAABQnAAIAAAAAAAAAAAAAAFCcAAgAAAAAAAAAAAAAAEBxAiAAAAAAAAAAAAAAAADF/aH1APa1Wq1aDwEAAAAAAAAAAAAAAIawlB79+/v71kPYmxtAAAAAAAAAAAAAAAAAihMAAQAAAAAAAAAAAAAAKE4ABAAAAAAAAAAAAAAAoDgBEAAAAAAAAAAAAAAAgOIEQAAAAAAAAAAAAAAAAIoTAAEAAAAAAAAAAAAAAChOAAQAAAAAAAAAAAAAAKA4AZD61kkukvztiT/njw+fc3bizwEAgN6cZVor//WJP+dvHj4HAAD41nmSyxk+5/LhswAAgK82fSt/c+LP+evoWwEAgKds+lb+eOLP+duHz1mf+HM40Or+/r71GPayWq1aD+EULvL1h7P5sbbyIcldks8P//lDw7EAAMAcNptY5w+1Trvmr7skt5nW45s1+W2jsQAAwFw278XPMq3Fz9Ku+WuzFt+syz88/BUAAEZ2nq9r8s26vFXz1+N35Lf52scCAAAj2/SSn+VrH0srm/fidxmwl7zXDEUiANLa5sF5rtPLDrVpOnsXzWcAAIzh4lFVP+n38QO15jMAAEaw2bx6vKFV2eMDkzSfAQAwgk0I+/GBpZVtgiDDNZ8BALBYmx7yTU95dZse8u4PMu01Q5EIgMztLN/+SKs/OH/PpvlsEwjRfAYAQA96e3D+nsc3g7yL5jMAAPrweD1ePYT9I483ud41HgsAAGxjnW/X5NVD2D/iIFMAAHqjl7yIXjMUSabB91gdWSe5SvI+yf3A9fHhn7Pn/0cEAMCYzpJcJ/mU9uvmU9bb9HGzIAAAy3Oe5CbJl7RfN5+qvjz8M/YeagEAYEyXmd4ht143n7I+JXmV/kMtAACMZ9NL/jHt182nrPfpqJe8dRbioBxF6wEMHAC5zLTZ0/rH1KI0ngEA0NpSgthPlcYzAAAqOMvUfDV6EPup0ngGAEAFSwhiP1ddNZ4BADCsJQSxn6ubFO8lb52FEACpY3Oy8BIfnp+qLw9/Hja5AACYy0WWG8R+qjaNZza5AACYy1KD2M/VpvEMAADmsM5yg9jP1U2mvQMAAJiDXvJvq2wveesshABIe5rMflzv44EaAIDTWcJVmYfWTQo+UAMAMIR1pg0cTWbP16eHPyPhbAAATuEs+lZ+VMLZAACc0kUcjvSjKhXObp2FEABpx4919xIEAQDgmK6iyWzXEgQBAOBYNsEPJ5ltX5vTzgRBAAA4BsGP3etTBEEAADgeveS7V4le8tZZCAGQ+fmxDvLjBQCgW4Ifh5cgCAAA+xL8OLwEQQAAOITgx+ElCAIAwCH0kh9eTXvJW2chBEDm48d6/PoYQRAAALYn+HH8ehtBEAAAtiP4cfwSBAEAYBdnmd7ptl7HjlSCIAAA7OIiU+9z63XsSNUkCNI6CyEAcnrrODnh1KXpDACA7zmPMPap63rrbwMAgCW6jODHKevLw58xAAA85zrt160j1/tMexEAAPAUYezT101mPCypdRZCAOS0XsWm1lz15eHPGwAANjYnDLdeqy6lPsUNfQAAfOsswthz1vs4LAkAgG9dxM3Yc5Yb+gAA+C295PPVbL3krbMQAiCn4YqedvUxms4AAJiuXPcA3abc0AcAgDB229J0BgCAE4bb1ZdMexQAACybXvJ2dfJe8tZZCAGQ47KpVadmvcoHAIAyzuOE4Qr1JdOzEQAAy3MZJwxXqE8P3wUAAMtzHQckVSg39AEALNM6Uw9z6/WoOuFhSa2zEAIgx3Mem1rV6kvcBgIAsCSv0n4Nqr6tj7HBBQCwFDa1apbDkgAAluMsThiuWK++96UBADCUiwhjV6tPmXr8j6p1FkIA5Dg0mtUuJw8DAIxtHVfZV64vcfIwAMDozqPRrHJ9zAk2uAAAKOUyGs0q19sIZgMAjO467ded6vk6ai956yyEAMhh1pmubGw9KdWP6308TAMAjMhNfP2UYDYAwJiuotGsh/ry8F0BADAejWZ91ElOHgYAoDm95P3U0XrJW2chBED255qe/urLw/cGAMAY3MTXX31McvbUlwkAQHfWSW7Sfo2pdqubOCwJAGAUZ3ETX4/16qkvEwCALukl76+O0kveOgshALIfpyf0XU4eBgDo2zrTdemt15Vqv/qS5PJ33yoAAD05j0aznutjnDwMANC7y2g067neRjAbAKB3esn7roN6yVtnIQRAdudEszHKKWcAAH1aR6PZKOWUMwCAPp1Ho9kI9SVCIAAAvXI79hj1MfpWAAB65Hbsceome2qdhTikVkcIUzSxWq32+dvWSd7HhshIbpO8SHLXeiAAAGzlPNOa3IbION4kedl6EAAAbO0qB2yIUNLLTOtyAAD6cJNpXc4Y7jL1rdy2HggAAFvRSz6evXrJe81QJMlPrQcwIz/YMWkgBADoh7XbmDQQAgD0w9ptTBoIAQD6Ye02Hv1IAAD9sHYb0+L6kZYSANl8sX6wYzrPdK2m7xcAoK7LLOxha2Gu4vsFAKjuOsIfI7vJ9B0DAFDTptFM+GNMm+/3svVAAAB4ll7jsS0qK7Dq9fqS1Wq17f90cameBXOtJgBATU4ZXo69rtUEAODknDK8HG+SvGw9CAAAvuGU4WV5mWldDgBAHXrJl2PrXvJeMxTJ+DeA+MEui5cmAAD1CH8si2cwAIB6hD+WxTMYAEAt+hiWxzMYAEAt+hiWZRHPYCMHQPxgl2kRP1wAgE5oPFomz2IAAHVoPFomz2IAADXoX1guz2IAADXoX1im4Z/FRg2A+MEu2/A/XACADmg4WjbPZAAA7Wk4WjbPZAAAbelbwDMZAEBb+haWbehnstX9/X3rMexltVo9918N/YWxk7skPz/8FQCA+Zwn+dh6EJTwIcmL1oMAAFigV0muWw+CEn5N8rr1IAAAFuh9kovWg6CEX5Lcth4EAMDCrJN8ivAH01r8RZ7oJe81Q5GMdwOI8AePbeaD/wcOADCfzQkKkEwbnE4dBgCY11WEP/jqOk4dBgCY202EP/hKHxMAwLz0DvPYkDfBjHYDyMd4aOL3nk1vAQBwVEM+NHEUb5K8bD0IAIAFuIoALk97mWldDgDAad1EAJffu8vUt+ImEACA03KRAM+5zXQ731/0mqFIxroB5CZ+sDztPDY9AQBObZ1pzSX8wVOukrxqPQgAgMGdx80fPO869lAAAE7tVYQ/eJo9FACAeegl5zlD9ZKPcgPIdTQT8WOvk/zaehAAAINyGx/b+HOSd60HAQAwoLNMa3LNRHzPXaYTzj63HggAwIAuk7xtPQjK+92pwwAAHI1ecrbxl17yXjMUyRgBkItM1/XANjScAQAcn4dotqXhDADgNASy2ZaGMwCA4xPIZhcOLwUAOD6BbHbxIsmHXjMUSf8BkHWST/EQzfY0nAEAHJeHaHal4QwA4LgEstmVhjMAgOMSyGZXDi8FADgegWx2dZfk5/v7+7vWA9nXT60HcKC38YNlN+toUAQAOJazJDetB0F3zjM1KQIAcLjLCH+wu1eZ5g4AAIe7jvAHu7uJficAgGPRS86uuu8lbxYAWa1WB1Wmh+iLVuOnaxrOAACOwwYF+9JwBgBwOIFsDuF5DgDgcALZ7Kv7hjMAgCIEstnXxWq1uj40z/CQaZjd6v7+vs0HH/YPfJHk/ZGGwnK5UhMAYH/XsbHFYe6S/JLkc+uBAAB06mNsbHGYD0letB4EAECnzjKtyYVqOcTrJL+2HgQAQKcuI1TL4V5kele+txZZjB4DIOskn+IhmsNpOAMA2I9ANsdym2lNDgDAbgSyORYNZwAA+xHI5lgObjgDAFgggWyO5S7Jzw9/3UuLLMZPs3/i4VxLzrGsM80nAAC2Zw3FMZ1nal4EAGB75xH+4HheReMiAMCurmMNxfHogwIA2J01FMfSZR9UbwGQi0xX9sCxmFMAALt5lekkBTiWq5hTAAC76G4jgvKEsgEAtneW6Z0mHMtZhPwBAHZxman3F46luzm1anHtSJKsVqt9/rZP0RjE8X1O8ksOuL4HAGAhzjNdoQnH9i7Jn1sPAgCgA6+iWZ/T+DXJ69aDAADowNs4ZJLT+CXJbetBAAAUt87Ut6KXnGP7nOTnff7GFlmMnm4AuY4fLKfhNAUAgO1oNONUujtNAQCggXW8x+R0XmWaYwAAPO8iwh+cjj0YAIAfexW95JzGWTpak/dyA8hZpts/4JR+zpTgAgDg966S3LQeBEPb+zQFAICFuMm0LodTeZPkZetBAAAU9imazTitl5nW5QAA/J5ecuawcy+5G0Cep9GMOZhnAABPW6ejlDvd6uo0BQCAmV1E+IPTu4qb+QAAnnMd4Q9O7zpu5gMAeI4eX+bQxTzrIQByGRsOzMMmKgDA017FhgPzcF0rAMDTBGWZi7kGAPB7Z9FLwDzWmd6TAwDwLYfXMJeLTNmF0lYtrh1JktVqte3/1BWazOlzput7AACYuEKTub3JdM09AACTq3Ry4hTDeJlpXQ4AwOQmAiDM6+dM/SsAAEz0kjOnnXrJW2Qxqt8AchU/WObl5A4AgG85aYq5eQ4EAPiWNTlzM+cAAL7SQ0AL1uQAAF/pIWBu5Z8Dq98AIrFFC24BAQCYuP2DVtwCAgAwcfsHrbgFBABg4vYPWnELCADARC85LWzdS+4GkG9JbNFK+eQWAMBMnDBFK54HAQAm1uS0Yu4BAOgdoC1rcgAAvQO0U/p5sPINIBJbtOQWEABg6dz+QWtuAQEAls7tH7TmFhAAYOnc/kFrbgEBAJZOLzktbdVL7gaQry7iB0tbpZNbAAAzcLIUrTnJAwBYOmtyWjMHAYAl0zNABdbkAMCS6RmgtbNMmYZyqgZAPMBQgXkIACzVOsll60FArMkBgOVySBIVlN3cAgCYgfAHFVxm2rMBAFgi/QJUUHIeVgyAXMSGAjXY3AIAlupVbChQg80tAGCpSm4osEjmIgCwROsIgFDDOtbkAMAyXcYhSdRQMtdQMQDiIZpKzEcAYImsgajCRisAsETnKbiZwGJdZJqTAABLchUH01CHd+QAwBJdth4APFJuTV4tALKOHy21SBECAEvjxgWqKfcgDQBwYt6RU405CQAsjXeSVKKXCgBYmrNY/1BLuV6qagEQD9FU5F8kAMCSWPtQzVmcOAwALIv35FRjTgIAS3Ieh0RSj70bAGBJrH2oqNR78moBED9aKjIvAYClcIoUVZmXAMBSlDtFCuJZEQBYFuseKvKsCAAsiTU5FZWal5UCIE51parzmJsAwDKUeliBR0qdpAAAcELW5FR10XoAAAAz8S6SqjwvAgBLoF+XqkrdFlkpAOIhmso8SAMAS2BNTlVOHAYAlsCah8qu4sRhAGB8blmgMns4AMASeEdOZWXW5JUCIH60VFbmRwsAcCJu5KM6Jw4DAKPzjpzqzFEAYHTeQVJZqROHAQBORK8ulZV5R14lAHIRDynU5vQ9AGB0HqKpzonDAMDorMmpzhwFAEa2jvUO9ZmjAMDI3MhHdWcpcnBApQAIVGeeAgAjE3alB+YpADAqN/LRAycOAwAj8+6RHpinAMDI9OjSgxLzVAAEtmeeAgCjOosmHvqgKRIAGJV3j/TCXAUARuXdIz2wnwMAjMy7R3pQYp5WCIA42YxeeJAGAEZV4uEEtmCuAgCj8o6cXpirAMCovHukF+YqADAi/bn0osRN2RUCIB5M6In5CgCMSAMPvfDSBwAYlfeO9MJcBQBG5L0jPbGnAwCMyHtHetJ8vlYIgHgwoSfmKwAwouYPJrAD8xUAGI1mM3pivgIAI/LOkZ6YrwDAiPTm0pPm87VCAMSDCT0xXwGA0WjeoTfNH6QBAI7MO0d6Y84CAKPxzpGe2NcBAEbknSM9aT5fWwdAPJTQm7N4+QMAjKX5Qwns6LL1AAAAjsz7RnpjzgIAo/GenN6YswDASM6jl5y+NM8/tA6AeCChR+YtADASjTv0Zh3zFgAYi/eN9MacBQBGotmMHnlHDgCMxPtGetR03rYOgHggoUfmLQAwEg/S9Mi8BQBG0fyUKNiDeQsAjMS7Rnpk3gIAI9GTS4+aztvWARAbBPTIvAUARrGOtQ19WrceAADAkdjYolfmLgAwCu8a6dFZzF0AYBz6VuhR03nbOgAikU6PbGwBAKOwrqFX5i4AMArrGnpl7gIAo7CuoVfmLgAwCusaetQ0A9EyACKxRc/8CwcAGIE1Ob2yHgcARuHEVnpl7gIAo/CenF6ZuwDACOz907Nma3IBENiPzS0AYATW5PTKehwAGIU1Ob0ydwGAUVjX0CtzFwAYgb1/erbIAIjUFj1renUPAMCRWJPTM2tyAGAE1jT0yvMkADAC63F6Zk0OAIzAmpyeNVuT/6HVB0dqi779+9YDAAA4gj+1HgAc4D/GyyAAoG//pPUA4ADrJP8pyf9tPRAAgAP8y9YDgAP8Kcl160EAABxILy49a5aFWN3f37f54NXqfTTrAAAAAAAAAAAAAAAA/fiQ5EWLLMZPs3/iV2cNPxsAAAAAAAAAAAAAAGBXzbIQLW8AafPBAAAAAAAAAAAAAAAA+2uSxfjD3B+4Wq2SZD335wIAAAAAAAAAAAAAAPTqp0afe97ocwEAAAAAAAAAAAAAAA5x0eJDWwVAAAAAAAAAAAAAAAAA2JIACAAAAAAAAAAAAAAAQHGtAiBnjT4XAAAAAAAAAAAAAADgEE0yEQIgAAAAAAAAAAAAAAAA21tUAAQAAAAAAAAAAAAAAIAtCYAAAAAAAAAAAAAAAAAUJwACAAAAAAAAAAAAAABQnAAIAAAAAAAAAAAAAABAcQIgAAAAAAAAAAAAAAAAxQmAAAAAAAAAAAAAAAAAFNcqAHLX6HMBAAAAAAAAAAAAAAAO0SQT0SoActvocwEAAAAAAAAAAAAAAA7RJBPRKgACAAAAAAAAAAAAAADAlgRAAAAAAAAAAAAAAAAAimsVAPnc6HMBAAAAAAAAAAAAAAAO0SQTsbq/v5/3A1erzX+c94MBAAAAAAAAAAAAAAAON3sWI2l3AwgAAAAAAAAAAAAAAABbahkA+dDwswEAAAAAAAAAAAAAAHbVLAvxh1YfnORzw8+GQ/3vJP+99SAAAA70d0n+qvUgYE//M8n/aj0IAIAD/LMk/7r1IOAA/y3JP7YeBADAAf6Y5K9bDwL29P+S/H3rQQAAHOhfJfnnrQcBe2qWhWgZALlr+NlwqP+c5NfWgwAAOND7JBetBwF7+g9xsyQA0L/71gOAA/yb1gMAADjQRab35NCjv0/yovUgAAAOdJ3kVetBwJ6aZSF+avXBSW4bfjYcyg02AMAIrMnpmTU5ADACaxp65XkSABiB9Tg9syYHAEZgTU7Pmq3JWwZA3ABCz/xLBwAA2rImBwBGYE1Dr+zxAAAjsB4HAIC2rMnp2SJvAPnQ8LPhUE5SAABGYE1Or8xdAGAU3jPSK1D+S1UAACAASURBVHMXABiFd430ytwFAEbgPSM9a7YmbxkASSS36NNdnG4GAIzBmoZembsAwCisa+iV/R0AYBTW5PTKmhwAGIF+XHrVdD0uAAK7kzgEAEZhXUOvPEsCAKOwJqdX1uQAwCisa+iVuQsAjMJ7cnq06ACIHy09Mm8BgJG4IpweWZMDAKOwHqdX5i4AMArrGnpk3gIAI7H/T4+aztvWARAPJPTIvAUARuJBmh69az0AAIAj8r6R3pizAMBIrG3okb0dAGAk1jb0qOmzpAAI7M68BQBGYm1Db8xZAGA0NrfojTkLAIzGO0d6Y84CACNxACQ9WnQAJPFQQl/MVwBgNNY39EazGQAwGmtyemPOAgCj8c6R3liTAwCjsb6hJ83nqwAI7MaLHwBgRNbk9MR8BQBGY31Db8xZAGA01jf0xHwFAEakN5eeNF+TC4DAbsxXAGBEHqTpiTU5ADAiaxx6Ya4CACOyxqEn9nQAgBFZk9OT5vO1QgDkNsld60HAlpr/aAEATuBd6wHAlqzHAYBRaeChF9bkAMCorHPohT0dAGBE1uP04i4F9nQqBEASP1z6YJ4CAKMSyqYXzR+iAQBORAMPvfCeHAAYlXeP9KBEsxkAwIl490gPSsxTARDYnnkKAIzMWoceaIwEAEYllE0PNJsBACPz7pEe2MsBAEZmrUMPSszTKgEQD9L0wDwFAEZmrUN1n6PZDAAY25vWA4AfMEcBgJHdxvtH6rOXAwCMzFqHHpSYp1UCIHcp8gcCz3iXqeEMAGBU7+LEYWrTbAYAjM47cqozRwGA0VnvUJneKgBgdJ9jvUNtZXqrqgRAEj9aaitxZQ8AwIlZk1OZ+QkAjO42DqGhLjfyAQBL4B0klZmfAMAS6NWlsjJr8moBkBKpGPgNpygAAEvhhgWqciMfALAU1uRUZW4CAEvgxGEqsyYHAJZALzlVleolrxQASQr9wcAj/oUCACyFE4epyikfAMBSeEdOVeYmALAU3kVSkRv5AIClKNVkD4+UmpfVAiDS6lRU6kcLAHBi1uRU4wUPALAkn6PhjHrcyAcALIkDIqnI3g0AsCT6A6io1Jq8WgDEicNUY8MVAFgaD9JUY8MVAFgaa3Kq8Y4cAFgSB9JQkTkJACzJh+glp5ZyN/JVC4AkHlqoxXwEAJZGAJZqrMkBgKURgKUSDZAAwBJZ/1CJBkgAYImsyamk3Hxc3d/ftx7DN1ar1TrJpyTr1mNh8e6S/BybrQDA8lwked96EJBpY+tF60EAADRwneRV60FAktdJfm09CACABt5nelcOrb2Ig7sAgOXRS04Vf+klr5S5qHgDyF2SN60HAZnmofAHALBEH2IzgRpetx4AAEAjr+PdJO3dxZocAFgu6yAqsF8DACyVXnKqKNlLXjEAktjcogb/8gAAlszmFq19jo0tAGC5bG5RQcmNLQCAmXzI9I4SWrJXAwAsmXfktFb2kKSqARCbW7T2Jl7mAADLZnOL1ko+RAMAzMg7clozBwGApfOOkpYckgQALN3neEdJW2UPSaoaAEn8aGnLixwAAGsi2vEiBwDAmoi2HJIEAGBNRFv2aAAArIloq+weTeUAiM0tWvESBwBgYl1EK17iAABMrItoxdwDAJhYF9GCnikAgIl1Ea2U7pla3d/ftx7DN1ar1eP/8yzJp0ZDYbl+TuEfLQDAzK6S3LQeBIvyOdOaHACAyU2mdTnM5U2Sl60HAQBQyKdM/Sswl5fR6AgAsKGXnBZ+10teKXNR+QaQZPqDc5oCcyqd2AIAaMD6iLl5BgQA+Jb1EXMz5wAAvmV9xJyccg0A8C3rI+b2OsV7parfAJIk60zJrfX8o2Fh7jIltu5aDwQAoJiLJO9bD4JF+JDkRetBAAAUdJ3kVetBsAivk/zaehAAAAW9z/SuHE7tRaZ35QAAfKWXnLk820teKXNR/QaQZPoDtNnAHF5H+AMA4Ckf4jQF5uHZDwDgaeVPm2IIn2NNDgDwHOsk5vAmwh8AAE+5i5v5mMev6aCXvIcbQDacpsAp3Sb5pfUgAAAKc5oCp+akYQCA73MzH6fmpGEAgO9zMx+n9OxJwwAA/MXHJOetB8GwPmR6T/6kSpmLHm4A2dAIxCmZXwAA3+c0BU7pc8wvAIAf+ZDkXetBMKx3Ef4AAPgRN/NxSq8j/AEA8CN6fTmlbuZXTwGQ22gI4jRex8YWAMA2Xmdal8OxdXGFJgBAAdZNnMJdOtrYAgBoyLqJU9ETBQCwnQ+xbuI0uuqJWlW6jiRJVqvV9/7rdabre87mGQ0L4ApNAIDdXCR533oQDOW7V2gCAPA710letR4EQ3kdjYwAALt4n+ldORzLizi4FABgW+sknx7+CsfwOckv+UEveaXMRU83gCROU+D4Xkb4AwBgF05T4JjuMq3JAQDY3q/p6BQqyruNfRcAgF3pM+CYXkf4AwBgF/oMOLbubl/vLQCSJO+SvGk9CIbwJtN8AgBgN11de0hpv2Y6SQEAgN1oOOMYbJQCAOznc4RoOY7bOHQLAGAfesk5li57yVeVriNJktVqtc3/bJ3pSs3z046Ggd1mukLTJikAwH7OM63JXanJvt5EsxkAwCGukty0HgRdexmbpAAAh7jJtC6Hfdxl6ltx4BYAwH70knOonXrJK2UuerwBJPl6KpXmffZh/gAAHO42Tjhjf+YPAMDh3kTzPvszfwAADvdrNO+zP/MHAOAweoE5RNfzp9cASKJhiP15iAYAOA4NQ+yj64doAIBivOtkH/ZXAACOw7tO9mV/BQDgOLzrZF9d76/0HABJPBCxO3MGAOC4un4goglzBgDgeDScsStzBgDguDScsStzBgDguPQFs6vu58zq/v6+9Ri+sVqtdv1b1kneJzk//mgYzG2SF7GxBQBwbOeZ1uTr1gOhvDeZms0AADiuqyQ3rQdBF16m840tAICibjKty+F77jL1rTgkCQDguPSSs629e8krZS56vwEkcVoV2zFPAABOx2lVbMM8AQA4ne5Pq2IW5gkAwOm4+ZhtmCcAAKehR5htDDNPRrgBZMOpw3zPL/EQDQBwak4d5jmfM63Ju3+IBgAozqnDPMdtfAAAp7dO8jHJWeuBUJLb+AAATu8805ocfuvg2/gqZS5GuAFk4zY2L3jaywh/AADMwWmyPOUuyZ8j/AEAMAenyfIUt/EBAMzDu1CeY/8EAGAeesl5zlC95CMFQJLkXfxw+ZYTFAAA5mX9xWMHn6AAAMBOrL/4rdtMc0ITIgDAPKy/+C238QEAzMv6i996mSljMI77+/tSdSRXSe7V4us6AAC08jbt14OqfV0EAIAW1kk+pf16ULWtT5nmAgAA87tI+/Wgal9vAwBAK9dpvx5U7esqR9I6Y/FN3qL1AE4UAEmSm7SfNKpd3QQAgJbWST6m/bpQtaujPUQDALCX8yRf0n5dqNrUl0xzAACAdhxeuuz6GIFsAIDW9JIvu47aS946Y7GUAEjih7vUEv4AAKhBCGS5JfwBAFCDEMgyS/gDAKAOIZBllvAHAEAdesmXWUfvJW+dsVhSACTxw11aCX8AANQiBLK8Ev4AAKhFCGRZJfwBAFCPEMiySvgDAKAeveTLqpP0krfOWCwtAJIkr9J+MqnT13UAAKhoneRt2q8X1WnrS4Q/AACqOo9g9hLqY4Q/AACquoxg9hLqbYQ/AACquk779aI6fb3KibTOWCwxAJI4UWH00mgGAFCfExXGLacMAwDU53a+scspwwAA9bmdb+w6ySnDAAAclV7yseukveStMxZLDYAk0xfrYXq8Ev4AAOiHEMh4JfwBANAPIZAxS/gDAKAfQiBjlvAHAEA/hEDGqy+ZoZe8dcZiyQGQxMP0SPUlyUUAAOiNh+lx6mOSswAA0BvB7HFKoxkAQH8Es8cqh5YCAPTnInrJR6nZDi1tnbFYegAkmb7oT2k/6dT+9SlOGQYA6Jnb+fqv93HKMABAz67Tfk2pDqvr332rAAD0Yp3pHWvrNaXav2Y5ZRgAgJPRS95/zdpL3jpjIQAyWSd5m/aTT+1eb6PRDABgBOdxylmvpdEMAGAMlxHM7rG+PHx3AAD0TzC7z/oYh5YCAIxAL3m/NXsveeuMhQDIt16l/SRU29erp79GAAA6tU5yk/brTLVdfcl0FSoAAOM4i2B2T/Xx4TsDAGAcFxHM7qlu4tBSAIDR6CXvq5r0krfOWAiA/J5rfOrXrNf0AAAwu6vY4Kpe72NTCwBgZE4erl9u4gMAGNc60zvY1mtO9Xx9ybSXAQDAmPSS16+mveStMxYCIE9zjU/dmv2aHgAAmjiPk4erlkYzAIBluIxgdsX68vDdAAAwPsHsmvUxDi0FAFgCveR1q3kveeuMhQDI972KDa4q9SWNrukBAKCZdWxwVapPSS6++40BADCaszh5uFK9f/hOAABYjos4ebhSXcehpQAAS6OXvE6V6SVvnbEQAPkxCa729TY2tQAAluwibgNpXTa1AACW7So2uFrWl4fvAACAZXJYUvv6GAckAQAs2Vn0kreu5rd+PNY6YyEAsj2nKsxfThgGAOAxpyrMX04YBgBgQ9NZmxLGBgBgww1981eZE4YBAChBL/n8VbKXvHXGQgBkd9fRdDZHXW/7hQAAsCjrJDdpv14dvb4kudzyOwEAYFnOo+lsjnr/8GcNAAC/dRl9K3PUTYSxAQB4msOSTl9fUriXvHXGQgBkP67yOV05YRgAgG1cZLpyvfX6dcRywjAAANtwQ99pygnDAABsww19p6uPKXjCMAAA5bih73T1NsV7yVtnLARADnMRP95j1ft4gAYAYHdXcb3mseomxR+gAQAoZ9N0JghyeG1OMxPGBgBgF2dxa/ax6lOmPQcAANiFXvLjVTe95K0zFqUDIL1UpsnmRpDBf6wAAJR2FTeC7FuCHwAAHEoQZP/6FMEPAAAOJwiyf32M4AcAAIcTBNm/3j78+TXPBPRYzQfQaz3igXr7uklyHgAAOC4P1NuV04UBADgVt/RtV04XBgDgFISzty8HlgIAcArn0Uu+bf3uwNLWmYAeq/kAeq0nCILs8GMFAIATEAR5ugQ/AACYiyDI0yX4AQDAHARBni/BDwAA5qCX/Pl6tpe8dSagx1o9E2bgB1ar1XP/1TrJ5UMt+eHxQ5J3D3XXeCwAACzLWab1+FWWHUR+k6/rcgAAmNN5vq7JlxpEvsu0Jn+X5LbxWAAAWJ5Nz8qSg8if83VN/rnxWAAAWBa95JOtesllGXYnALKn7wRAHlta49nnTD/SN/HwDABADUtrPLvN1w0tQWwAACpYWuOZIDYAAJVsGs+uMr0vH50gNgAA1ZxlWo9fZjm95DsFsWUZdicAsqctAyCPbRrPRvsBf860mfUmHp4BAKjt8ekKI4VBbvN1TS6IDQBAVSOfeOZGbAAAerBpPLvIWGGQu0xrcUFsAACqO8/XNfloveSbd+Q795LLMuxOAGRPewRAHjvL1wfqy/TVfHaX6aH5Nq7JBACgX+eZ1uSb6skmhL0pDWYAAPTo8Xq8t+azTQh7UwAA0Jt1vl2T99Z8tmks2/SvAABAb84y9ZBv+ld66yV/vCY/qJdclmF3AiB7OjAA8lubH2/FH/HjwIcHZwAARvW48axaIGQT+DjKgzMAABS0aT57/K68ksfvx4WwAQAY0eODTCsGQh6vx4WwAQAY0WJ7yWUZdicAsqcjB0B+a53pB3z+6D//Kcm/OOFn/p8k/zXTj/Lu4a+b/wwAAEtzlq8bXsm0Jv+7JH91ws/8hyT/JVPAY1M2sgAAWKrzTGvyzXvyx+vzU9kErjfvyD/HoUgAACzXJgiyqX+X+fpWkq/rc4ciAQCwRE/1kv/bJP/0hJ/5D0n+R2buJZdl2MP9/b3aoxq4TnJ/wno/3z8KAAB06X1Ouya/nu8fBQAAunTK9bgdJgAA+D59KwAA0NaQfSutMwE91k8tvigAAAAAAAAAAAAAAAC2JwACAAAAAAAAAAAAAABQnAAIAAAAAAAAAAAAAABAcQIgAAAAAAAAAAAAAAAAxQmAAAAAAAAAAAAAAAAAFCcAAgAAAAAAAAAAAAAAUJwACAAAAAAAAAAAAAAAQHECIAAAAAAAAAAAAAAAAMUJgAAAAAAAAAAAAAAAABQnAAIAAAAAAAAAAAAAAFCcAAgAAAAAAAAAAAAAAEBxAiAAAAAAAAAAAAAAAADFCYAAAAAAAAAAAAAAAAAUJwACAAAAAAAAAAAAAABQnAAIAAAAAAAAAAAAAABAcQIgAAAAAAAAAAAAAAAAxQmAAAAAAAAAAAAAAAAAFCcAAgAAAAAAAAAAAAAAUJwACAAAAAAAAAAAAAAAQHECIAAAAAAAAAAAAAAAAMUJgAAAAAAAAAAAAAAAABQnAAIAAAAAAAAAAAAAAFCcAAgAAAAAAAAAAAAAAEBxAiAAAAAAAAAAAAAAAADFCYAAAAAAAAAAAAAAAAAUJwACAAAAAAAAAAAAAABQnAAIAAAAAAAAAAAAAABAcQIgAAAAAAAAAAAAAAAAxQmAAAAAAAAAAAAAAAAAFCcAAgAAAAAAAAAAAAAAUJwACAAAAAAAAAAAAAAAQHECIAAAAAAAAAAAAAAAAMUJgAAAAAAAAAAAAAAAABQnAAIAAAAAAAAAAAAAAFDcH1oPoFf39/ezfdZqtZrtswAAAAAAAAAAAAAAWJ45e+TZjxtAAAAAAAAAAAAAAAAAihMAAQAAAAAAAAAAAAAAKE4ABAAAAAAAAAAAAAAAoDgBEAAAAAAAAAAAAAAAgOIEQAAAAAAAAAAAAAAAAIoTAAEAAAAAAAAAAAAAAChOAAQAAAAAAAAAAAAAAKA4ARAAAAAAAAAAAAAAAIDiBEAAAAAAAAAAAAAAAACKEwABAAAAAAAAAAAAAAAoTgAEAAAAAAAAAAAAAACgOAEQAAAAAAAAAAAAAACA4gRAAAAAAAAAAAAAAAAAihMAAQAAAAAAAAAAAAAAKE4ABAAAAAAAAAAAAAAAoDgBEAAAAAAAAAAAAAAAgOIEQAAAAAAAAAAAAAAAAIoTAAEAAAAAAAAAAAAAAChOAAQAAAAAAAAAAAAAAKA4ARAAAAAAAAAAAAAAAIDiBEAAAAAAAAAAAAAAAACKEwABAAAAAAAAAAAAAAAoTgAEAAAAAAAAAAAAAACgOAEQAAAA4P+zb8cCAAAAAIP8raexozwCAAAAAAAAAGBOAAEAAAAAAAAAAAAAAJgTQAAAAAAAAAAAAAAAAOYEEAAAAAAAAAAAAAAAgDkBBAAAAAAAAAAAAAAAYE4AAQAAAAAAAAAAAAAAmBNAAAAAAAAAAAAAAAAA5gQQAAAAAAAAAAAAAACAOQEEAAAAAAAAAAAAAABgTgABAAAAAAAAAAAAAACYE0AAAAAAAAAAAAAAAADmBBAAAAAAAAAAAAAAAIA5AQQAAAAAAAAAAAAAAGBOAAEAAAAAAAAAAAAAAJgTQAAAAAAAAAAAAAAAAOYEEAAAAAAAAAAAAAAAgDkBBAAAAAAAAAAAAAAAYE4AAQAAAAAAAAAAAAAAmBNAAAAAAAAAAAAAAAAA5gQQAAAAAAAAAAAAAACAOQEEAAAAAAAAAAAAAABgTgABAAAAAAAAAAAAAACYE0AAAAAAAAAAAAAAAADmBBAAAAAAAAAAAAAAAIA5AQQAAAAAAAAAAAAAAGBOAAEAAAAAAAAAAAAAAJgTQAAAAAAAAAAAAAAAAOYEEAAAAAAAAAAAAAAAgDkBBAAAAAAAAAAAAAAAYE4AAQAAAAAAAAAAAAAAmBNAAAAAAAAAAAAAAAAA5gQQAAAAAAAAAAAAAACAOQEEAAAAAAAAAAAAAABgTgABAAAAAAAAAAAAAACYE0AAAAAAAAAAAAAAAADmBBAAAAAAAAAAAAAAAIA5AQQAAAAAAAAAAAAAAGBOAAEAAAAAAAAAAAAAAJgTQAAAAAAAAAAAAAAAAOYEEAAAAAAAAAAAAAAAgDkBBAAAAAAAAAAAAAAAYE4AAQAAAAAAAAAAAAAAmBNAAAAAAAAAAAAAAAAA5gQQAAAAAAAAAAAAAACAOQEEAAAAAAAAAAAAAABgTgABAAAAAAAAAAAAAACYE0AAAAAAAAAAAAAAAADmBBAAAAAAAAAAAAAAAIA5AQQAAAAAAAAAAAAAAGBOAAEAAAAAAAAAAAAAAJgTQAAAAAAAAAAAAAAAAOYEEAAAAAAAAAAAAAAAgDkBBAAAAAAAAAAAAAAAYE4AAQAAAAAAAAAAAAAAmBNAAAAAAAAAAAAAAAAA5gQQAAAAAAAAAAAAAACAOQEEAAAAAAAAAAAAAABgTgABAAAAAAAAAAAAAACYE0AAAAAAAAAAAAAAAADmBBAAAAAAAAAAAAAAAIA5AQQAAAAAAAAAAAAAAGBOAAEAAAAAAAAAAAAAAJgTQAAAAAAAAAAAAAAAAOYEEAAAAAAAAAAAAAAAgDkBBAAAAAAAAAAAAAAAYE4AAQAAAAAAAAAAAAAAmBNAAAAAAAAAAAAAAAAA5gQQAAAAAAAAAAAAAACAOQEEAAAAAAAAAAAAAABgTgABAAAAAAAAAAAAAACYE0AAAAAAAAAAAAAAAADmBBAAAAAAAAAAAAAAAIA5AQQAAAAAAAAAAAAAAGBOAAEAAAAAAAAAAAAAAJgTQAAAAAAAAAAAAAAAAOYEEAAAAAAAAAAAAAAAgDkBBAAAAAAAAAAAAAAAYE4AAQAAAAAAAAAAAAAAmBNAAAAAAAAAAAAAAAAA5gQQAAAAAAAAAAAAAACAOQEEAAAAAAAAAAAAAABgTgABAAAAAAAAAAAAAACYE0AAAAAAAAAAAAAAAADmBBAAAAAAAAAAAAAAAIA5AQQAAAAAAAAAAAAAAGBOAAEAAAAAAAAAAAAAAJgTQAAAAAAAAAAAAAAAAOYEEAAAAAAAAAAAAAAAgDkBBAAAAAAAAAAAAAAAYE4AAQAAAAAAAAAAAAAAmBNAAAAAAAAAAAAAAAAA5gQQAAAAAAAAAAAAAACAOQEEAAAAAAAAAAAAAABgTgABAAAAAAAAAAAAAACYE0AAAAAAAAAAAAAAAADmBBAAAAAAAAAAAAAAAIA5AQQAAAAAAAAAAAAAAGBOAAEAAAAAAAAAAAAAAJgTQAAAAAAAAAAAAAAAAOYEEAAAAAAAAAAAAAAAgDkBBAAAAAAAAAAAAAAAYE4AAQAAAAAAAAAAAAAAmBNAAAAAAAAAAAAAAAAA5gQQAAAAAAAAAAAAAACAOQEEAAAAAAAAAAAAAABgTgABAAAAAAAAAAAAAACYE0AAAAAAAAAAAAAAAADmBBAAAAAAAAAAAAAAAIA5AQQAAAAAAAAAAAAAAGBOAAEAAAAAAAAAAAAAAJgTQAAAAAAAAAAAAAAAAOYEEAAAAAAAAAAAAAAAgDkBBAAAAAAAAAAAAAAAYE4AAQAAAAAAAAAAAAAAmBNAAAAAAAAAAAAAAAAA5gQQAAAAAAAAAAAAAACAOQEEAAAAAAAAAAAAAABgTgABAAAAAAAAAAAAAACYE0AAAAAAAAAAAAAAAADmBBAAAAAAAAAAAAAAAIA5AQQAAAAAAAAAAAAAAGBOAAEAAAAAAAAAAAAAAJgTQAAAAAAAAAAAAAAAAOYEEAAAAAAAAAAAAAAAgDkBBAAAAAAAAAAAAAAAYE4AAQAAAAAAAAAAAAAAmBNAAAAAAAAAAAAAAAAA5gQQAAAAAAAAAAAAAACAOQEEAAAAAAAAAAAAAABgTgABAAAAAAAAAAAAAACYE0AAAAAAAAAAAAAAAADmBBAAAAAAAAAAAAAAAIA5AQQAAAAAAAAAAAAAAGBOAAEAAAAAAAAAAAAAAJgTQAAAAAAAAAAAAAAAAOYEEAAAAAAAAAAAAAAAgDkBBAAAAAAAAAAAAAAAYE4AAQAAAAAAAAAAAAAAmBNAAAAAAAAAAAAAAAAA5gQQAAAAAAAAAAAAAACAOQEEAAAAAAAAAAAAAABgTgABAAAAAAAAAAAAAACYE0AAAAAAAAAAAAAAAADmBBAAAAAAAAAAAAAAAIA5AQQAAAAAAAAAAAAAAGBOAAEAAAAAAAAAAAAAAJgTQAAAAAAAAAAAAAAAAOYEEAAAAAAAAAAAAAAAgDkBBAAAAAAAAAAAAAAAYE4AAQAAAAAAAAAAAAAAmBNAAAAAAAAAAAAAAAAA5gQQAAAAAAAAAAAAAACAOQEEAAAAAAAAAAAAAABgTgABAAAAAAAAAAAAAACYE0AAAAAAAAAAAAAAAADmBBAAAAAAAAAAAAAAAIA5AQQAAAAAAAAAAAAAAGBOAAEAAAAAAAAAAAAAAJgTQAAAAAAAAAAAAAAAAOYEEAAAAAAAAAAAAAAAgDkBBAAAAAAAAAAAAAAAYE4AAQAAAAAAAAAAAAAAmBNAAAAAAAAAAAAAAAAA5gQQAAAAAAAAAAAAAACAOQEEAAAAAAAAAAAAAABgTgABAAAAAAAAAAAAAACYE0AAAAAAAAAAAAAAAADmBBAAAAAAAAAAAAAAAIA5AQQAAAAAAAAAAAAAAGBOAAEAAAAAAAAAAAAAAJgTQAAAAAAAAAAAAAAAAOYEEAAAAAAAAAAAAAAAgDkBBAAAAAAAAAAAAAAAYE4AAQAAAAAAAAAAAAAAmBNAAAAAAAAAAAAAAAAA5gQQAAAAAAAAAAAAAACAOQEEAAAAAAAAAAAAAABgTgABAAAAAAAAAAAAAACYE0AAAAAAAAAAAAAAAADmBBAAAAAAAAAAAAAAAIA5AQQAAAAAAAAAAAAAAGBOAAEAAAAAAAAAAAAAAJgTQAAAAAAAAAAAAAAAAOYEEAAAAAAAAAAAAAAAgDkBBAAAAAAAAAAAAAAAYE4AAQAAAAAAAAAAAAAAmBNAAAAAAAAAAAAAAAAA5gQQAAAAAAAAAAAAAACAOQEEAAAAAAAAAAAAAABgTgABAAAAAAAAAAAAAACYE0AAAAAAAAAAAAAAAADmBBAAAAAA3/qJgwAAIABJREFUAAAAAAAAAIA5AQQAAAAAAAAAAAAAAGBOAAEAAAAAAAAAAAAAAJgTQAAAAAAAAAAAAAAAAOYEEAAAAAAAAAAAAAAAgDkBBAAAAAAAAAAAAAAAYE4AAQAAAAAAAAAAAAAAmBNAAAAAAAAAAAAAAAAA5gQQAAAAAAAAAAAAAACAOQEEAAAAAAAAAAAAAABgTgABAAAAAAAAAAAAAACYE0AAAAAAAAAAAAAAAADmBBAAAAAAAAAAAAAAAIA5AQQAAAAAAAAAAAAAAGBOAAEAAAAAAAAAAAAAAJgTQAAAAAAAAAAAAAAAAOYEEAAAAAAAAAAAAAAAgDkBBAAAAAAAAAAAAAAAYE4AAQAAAAAAAAAAAAAAmBNAAAAAAAAAAAAAAAAA5gQQAAAAAAAAAAAAAACAOQEEAAAAAAAAAAAAAABgTgABAAAAAAAAAAAAAACYE0AAAAAAAAAAAAAAAADmBBAAAAAAAAAAAAAAAIA5AQQAAAAAAAAAAAAAAGBOAAEAAAAAAAAAAAAAAJgTQAAAAAAAAAAAAAAAAOYEEAAAAAAAAAAAAAAAgDkBBAAAAAAAAAAAAAAAYE4AAQAAAAAAAAAAAAAAmBNAAAAAAAAAAAAAAAAA5gQQAAAAAAAAAAAAAACAOQEEAAAAAAAAAAAAAABgTgABAAAAAAAAAAAAAACYE0AAAAAAAAAAAAAAAADmBBAAAAAAAAAAAAAAAIA5AQQAAAAAAAAAAAAAAGBOAAEAAAAAAAAAAAAAAJgTQAAAAAAAAAAAAAAAAOYEEAAAAAAAAAAAAAAAgDkBBAAAAAAAAAAAAAAAYE4AAQAAAAAAAAAAAAAAmBNAAAAAAAAAAAAAAAAA5gQQAAAAAAAAAAAAAACAOQEEAAAAAAAAAAAAAABgTgABAAAAAAAAAAAAAACYE0AAAAAAAAAAAAAAAADmBBAAAAAAAAAAAAAAAIA5AQQAAAAAAAAAAAAAAGBOAAEAAAAAAAAAAAAAAJgTQAAAAAAAAAAAAAAAAOYEEAAAAAAAAAAAAAAAgDkBBAAAAAAAAAAAAAAAYE4AAQAAAAAAAAAAAAAAmBNAAAAAAAAAAAAAAAAA5gQQAAAAAAAAAAAAAACAOQEEAAAAAAAAAAAAAABgTgABAAAAAAAAAAAAAACYE0AAAAAAAAAAAAAAAADmBBAAAAAAAAAAAAAAAIA5AQQAAAAAAAAAAAAAAGBOAAEAAAAAAAAAAAAAAJgTQAAAAAAAAAAAAAAAAOYEEAAAAAAAAAAAAAAAgDkBBAAAAAAAAAAAAAAAYE4AAQAAAAAAAAAAAAAAmBNAAAAAAAAAAAAAAAAA5gQQAAAAAAAAAAAAAACAOQEEAAAAAAAAAAAAAABgTgABAAAAAAAAAAAAAACYE0AAAAAAAAAAAAAAAADmBBAAAAAAAAAAAAAAAIA5AQQAAAAAAAAAAAAAAGBOAAEAAAAAAAAAAAAAAJgTQAAAAAAAAAAAAAAAAOYEEAAAAAAAAAAAAAAAgDkBBAAAAAAAAAAAAAAAYE4AAQAAAAAAAAAAAAAAmBNAAAAAAAAAAAAAAAAA5gQQAAAAAAAAAAAAAACAOQEEAAAAAAAAAAAAAABgTgABAAAAAAAAAAAAAACYE0AAAAAAAAAAAAAAAADmBBAAAAAAAAAAAAAAAIA5AQQAAAAAAAAAAAAAAGBOAAEAAAAAAAAAAAAAAJgTQAAAAAAAAAAAAAAAAOYEEAAAAAAAAAAAAAAAgDkBBAAAAAAAAAAAAAAAYE4AAQAAAAAAAAAAAAAAmBNAAAAAAAAAAAAAAAAA5gQQAAAAAAAAAAAAAACAOQEEAAAAAAAAAAAAAABgTgABAAAAAAAAAAAAAACYE0AAAAAAAAAAAAAAAADmBBAAAAAAAAAAAAAAAIA5AQQAAAAAAAAAAAAAAGBOAAEAAAAAAAAAAAAAAJgTQAAAAAAAAAAAAAAAAOYEEAAAAAAAAAAAAAAAgDkBBAAAAAAAAAAAAAAAYE4AAQAAAAAAAAAAAAAAmBNAAAAAAAAAAAAAAAAA5gQQAAAAAAAAAAAAAACAOQEEAAAAAAAAAAAAAABgTgABAAAAAAAAAAAAAACYE0AAAAAAAAAAAAAAAADmBBAAAAAAAAAAAAAAAIA5AQQAAAAAAAAAAAAAAGBOAAEAAAAAAAAAAAAAAJgTQAAAAAAAAAAAAAAAAOYEEAAAAAAAAAAAAAAAgDkBBAAAAAAAAAAAAAAAYE4AAQAAAAAAAAAAAAAAmBNAAAAAAAAAAAAAAAAA5gQQAAAAAAAAAAAAAACAOQEEAAAAAAAAAAAAAABgTgABAAAAAAAAAAAAAACYE0AAAAAAAAAAAAAAAADmBBAAAAAAAAAAAAAAAIA5AQQAAAAAAAAAAAAAAGBOAAEAAAAAAAAAAAAAAJgTQAAAAAAAAAAAAAAAAOYEEAAAAAAAAAAAAAAAgDkBBAAAAAAAAAAAAAAAYE4AAQAAAAAAAAAAAAAAmBNAAAAAAAAAAAAAAAAA5gQQAAAAAAAAAAAAAACAOQEEAAAAAAAAAAAAAABgTgABAAAAAAAAAAAAAACYE0AAAAAAAAAAAAAAAADmBBAAAAAAAAAAAAAAAIA5AQQAAAAAAAAAAAAAAGBOAAEAAAAAAAAAAAAAAJgTQAAAAAAAAAAAAAAAAOYEEAAAAAAAAAAAAAAAgNi7v1e70vs84M8xpmgTaLLTtKDTNLi7EBcdKIENKUQHksIpbUC6PKE39l3VXrWXkz9hfFsodKbQiyQXE4sSwwxMjAdqw9gQEYU4ZdSMwaqZpBrqTKrOQNBQBKsXa2/pSKMjnR977/e71vp84DCeH9Z5be11Zq13Pc/3LU4BBAAAAAAAAAAAAAAAoDgFEAAAAAAAAAAAAAAAgOIUQAAAAAAAAAAAAAAAAIpTAAEAAAAAAAAAAAAAAChOAQQAAAAAAAAAAAAAAKA4BRAAAAAAAAAAAAAAAIDiFEAAAAAAAAAAAAAAAACKUwABAAAAAAAAAAAAAAAoTgEEAAAAAAAAAAAAAACgOAUQAAAAAAAAAAAAAACA4hRAAAAAAAAAAAAAAAAAilMAAQAAAAAAAAAAAAAAKE4BBAAAAAAAAAAAAAAAoDgFEAAAAAAAAAAAAAAAgOIUQAAAAAAAAAAAAAAAAIpTAAEAAAAAAAAAAAAAAChOAQQAAAAAAAAAAAAAAKA4BRAAAAAAAAAAAAAAAIDiFEAAAAAAAAAAAAAAAACKUwABAAAAAAAAAAAAAAAoTgEEAAAAAAAAAAAAAACgOAUQAAAAAAAAAAAAAACA4hRAAAAAAAAAAAAAAAAAilMAAQAAAAAAAAAAAAAAKE4BBAAAAAAAAAAAAAAAoDgFEAAAAAAAAAAAAAAAgOIUQAAAAAAAAAAAAAAAAIpTAAEAAAAAAAAAAAAAAChOAQQAAAAAAAAAAAAAAKA4BRAAAAAAAAAAAAAAAIDiFEAAAAAAAAAAAAAAAACKUwABAAAAAAAAAAAAAAAoTgEEAAAAAAAAAAAAAACgOAUQAAAAAAAAAAAAAACA4hRAAAAAAAAAAAAAAAAAilMAAQAAAAAAAAAAAAAAKE4BBAAAAAAAAAAAAAAAoDgFEAAAAAAAAAAAAAAAgOIUQAAAAAAAAAAAAAAAAIpTAAEAAAAAAAAAAAAAAChOAQQAAAAAAAAAAAAAAKA4BRAAAAAAAAAAAAAAAIDiFEAAAAAAAAAAAAAAAACKUwABAAAAAAAAAAAAAAAoTgEEAAAAAAAAAAAAAACgOAUQAAAAAAAAAAAAAACA4hRAAAAAAAAAAAAAAAAAilMAAQAAAAAAAAAAAAAAKE4BBAAAAAAAAAAAAAAAoDgFEAAAAAAAAAAAAAAAgOIUQAAAAAAAAAAAAAAAAIpTAAEAAAAAAAAAAAAAAChOAQQAAAAAAAAAAAAAAKA4BRAAAAAAAAAAAAAAAIDiFEAAAAAAAAAAAAAAAACKUwABAAAAAAAAAAAAAAAoTgEEAAAAAAAAAAAAAACgOAUQAAAAAAAAAAAAAACA4hRAAAAAAAAAAAAAAAAAilMAAQAAAAAAAAAAAAAAKE4BBAAAAAAAAAAAAAAAoDgFEAAAAAAAAAAAAAAAgOIUQAAAAAAAAAAAAAAAAIpTAAEAAAAAAAAAAAAAAChOAQQAAAAAAAAAAAAAAKA4BRAAAAAAAAAAAAAAAIDiFEAAAAAAAAAAAAAAAACKUwABAAAAAAAAAAAAAAAoTgEEAAAAAAAAAAAAAACgOAUQAAAAAAAAAAAAAACA4hRAAAAAAAAAAAAAAAAAilMAAQAAAAAAAAAAAAAAKE4BBAAAAAAAAAAAAAAAoDgFEAAAAAAAAAAAAAAAgOIUQAAAAAAAAAAAAAAAAIpTAAEAAAAAAAAAAAAAAChOAQQAAAAAAAAAAAAAAKA4BRAAAAAAAAAAAAAAAIDiFEAAAAAAAAAAAAAAAACKUwABAAAAAAAAAAAAAAAoTgEEAAAAAAAAAAAAAACgOAUQAAAAAAAAAAAAAACA4hRAAAAAAAAAAAAAAAAAilMAAQAAAAAAAAAAAAAAKE4BBAAAAAAAAAAAAAAAoDgFEAAAAAAAAAAAAAAAgOIUQAAAAAAAAAAAAAAAAIpTAAEAAAAAAAAAAAAAAChOAQQAAAAAAAAAAAAAAKA4BRAAAAAAAAAAAAAAAIDiFEAAAAAAAAAAAAAAAACKUwABAAAAAAAAAAAAAAAoTgEEAAAAAAAAAAAAAACgOAUQAAAAAAAAAAAAAACA4hRAAAAAAAAAAAAAAAAAilMAAQAAAAAAAAAAAAAAKE4BBAAAAAAAAAAAAAAAoDgFEAAAAAAAAAAAAAAAgOIUQAAAAAAAAAAAAAAAAIpTAAEAAAAAAAAAAAAAAChOAQQAAAAAAAAAAAAAAKA4BRAAAAAAAAAAAAAAAIDiFEAAAAAAAAAAAAAAAACKUwABAAAAAAAAAAAAAAAoTgEEAAAAAAAAAAAAAACgOAUQAAAAAAAAAAAAAACA4hRAAAAAAAAAAAAAAAAAilMAAQAAAAAAAAAAAAAAKE4BBAAAAAAAAAAAAAAAoDgFEAAAAAAAAAAAAAAAgOIUQAAAAAAAAAAAAAAAAIpTAAEAAAAAAAAAAAAAAChOAQQAAAAAAAAAAAAAAKA4BRAAAAAAAAAAAAAAAIDiFEAAAAAAAAAAAAAAAACKUwABAAAAAAAAAAAAAAAoTgEEAAAAAAAAAAAAAACgOAUQAAAAAAAAAAAAAACA4hRAAAAAAAAAAAAAAAAAilMAAQAAAAAAAAAAAAAAKE4BBAAAAAAAAAAAAAAAoDgFEAAAAAAAAAAAAAAAgOIUQAAAAAAAAAAAAAAAAIpTAAEAAAAAAAAAAAAAAChOAQQAAAAAAAAAAAAAAKA4BRAAAAAAAAAAAAAAAIDiFEAAAAAAAAAAAAAAAACKUwABAAAAAAAAAAAAAAAoTgEEAAAAAAAAAAAAAACgOAUQAAAAAAAAAAAAAACA4hRAAAAAAAAAAAAAAAAAilMAAQAAAAAAAAAAAAAAKO7LrRfwKnt7e62XAAAAAAAAAAAAAAAAoya73+u6rvUSTuUEEAAAAAAAAAAAAAAAgOIUQAAAAAAAAAAAAAAAAIpTAAEAAAAAAAAAAAAAAChOAQQAAAAAAAAAAAAAAKA4BRAAAAAAAAAAAAAAAIDiFEAAAAAAAAAAAAAAAACKUwABAAAAAAAAAAAAAAAoTgEEAAAAAAAAAAAAAACgOAUQAAAAAAAAAAAAAACA4hRAAAAAAAAAAAAAAAAAilMAAQAAAAAAAAAAAAAAKE4BBAAAAAAAAAAAAAAAoDgFEAAAAAAAAAAAAAAAgOK+3HoBbNJ+kisv+OufJ3mw47UAAABAdd3ilL/xMNl7uNOlAAAAQGndLMnVU/7mx8neo12uBgAAAHgRWfIpUAAp68kG2uqP//Yryck9s/XfuqhHST4++ec/n3zzaPUXV3/TJh0AAABD0c2TnPxK+t2ttdPKHqf9es//hYerr6R/bl7/5/v9H/bun+/XBwAAgJa6dSJk/cdZnj5Pr//6eX695//Cg/TpkqR/hn6Up2mTz5M9qRMAAAB4qeez5L/1889mxzedJZ99JflPsuQDoADS3JOAyiJPQyov2Ez7jV9MPtzg953l2ezLL/xcksPn1pb0G3DrkMvH/Z+bggoAAEAr3X76Z+er6Z+fTxY+tum077N6ln4SdLmfp8GW+7EpBgAAQFPd8++hd/Uc/YoCSZc8TZqsyyIPDFgAAABgerr1M/vVvDRL/us/l3yywe/7fJb8q7+YV2fJV+/DZclbUgDZqW59paxDKuecPtrEfr7wQ6RL+gv4QfoNufvCLAAAAGxed3JgwiLnnj7axMln/XU55GSg5b4wCwAAANvRrd9BnxycUNn6/fmJZ+ku6QMl63fRSiEAAACMyOCz5CcHJMqSN6IAslXdLMm1PL1AdzFJZVee34hbt7rWYRbNLgAAAM6pmyc5yLOne4zByUDL4YkpKasTQmyGAQAAcBHdfp6+j76a/vlzDNbTTg/6P30mVGKwAgAAAAPSnRx2OKUs+T3vwLdHAWTjuvWHeSiTSTdlnmS5+krSrYMsNuAAAAB4iW5d+DjIuDa7XuW5Eze71TN07id7DxqtCQAAgNKeGUB4LeMpfJzFycEKj/LkGdpwQgAAAKqRJU9yU5Z8exRANqI7SH+RTm2T7WXWQZb1Bty99BfwB22XBQAAQFtPwiqLPJnkSZ6ZjtI9TPJB+qkoyiAAAACT9uS0zHXxg/6d/EGenhCymiyaD5RBAAAAaEOW/AVkybdEAeTCXKjnMMuTRld3Iy5gAACAiVH6OKd5ksP+SxkEAABgepQ+zmkdKDlSBgEAAGB3ZMnPQZZ8gxRAzqU7eTSNC/Vinr+A7/ZfNt8AAADGp1sXPmx4XdzzZZD1c/SjtssCAABg87r1M7ThCRd3sgxyP0+HKniOBgAAYANkyTdAlvySFEDOpFum32RbtF7JyMzyNMSy2nzbu9t4TQAAAFxKd2KzJvPGixmbeZKj/qu7GxNRAAAARuBJcOQgnqM3bbH6Okq6e+nDJE7XBAAA4AJkybdElvwCFEBOpaG1Y6vNt+4omlwAAAAD1K1Pqli2XslErCeinHyONs0UAABgMLpF+udowZHtOzlZVJgEAACAM5Il3zFZ8jNSAPkCgZXGTja51hevKSwAAABlCaw0tj4V5PqJ52ibYAAAAGV16+DIfuuVTNQ6THIYAxUAAAB4IVnyxp7Pkr/vHfizFECeEFgp6OQUlveTvfutFwQAAMCawEoxNsEAAADK6mZJric5SF/kp73nByp8XxEEAABg6mTJC5IlfwEFEBfrEKynsLh4AQAAmuuW6Z+jBVbqWm+CKYIAAAA01y3TFw1mrVfCC60HKiwVQQAAAKZKlnwAZMlPmHABpJsnuRkX65C4eAEAAJqx6TVAiiAAAADNGKAwMIogAAAAk+Md+ACdzJK/l+w9aL2gFiZYAOnmebJxw0CtL94P0l+8AiwAAABbY9NrBNZFkPcjwAIAALBl3UH6Ez8UP4bpZBHk+8ne+60XBAAAwKZ18/TP7getV8KFLZLcmuowxAkVQLpZkuvpQw+O1x2Hg/5LgAUAAGDzuln6TS8DFMZjHWB5L9m723oxAAAA49Ltp3+ONkBhHFb7It219EMJ77deEAAAAJclSz5CyyTXpnaa50QKII7XHbnDPCmCCLAAAABcXrcuftj0Gp9ZkpurvRIBFgAAgEszQGHk9pN8Pek+SP8cPamJogAAAOMhSz5i69M8J5MlH3kBpJsnuRlTVqZg9XvdHSR528YbAADARXSL9M/RNr3Gbx1guZs+wDKJSSgAAACb1S3Tlz8MUBi/gzwNkrzXejEAAACclSz5hEwmSz7iAohppRO1SPLvbbwBAACcx5Ojbg9br4SdWx+J+06y90HrxQAAAAyD8MiEHa4GaLyT7D1ovRgAAABepjuKd+BTtEhyqx+GOM4s+QgLIN1+khvpJ1kyXTbeAAAAzqQ7SP8cbYDCdM2SHCfdtfSngYx2EgoAAMDlGURI9tMHSd5P8n2nagIAAFQjS05mGXGWfGQFEE0tnnFi422cDS4AAICL62bpN70OWq+EMg6SLJwGAgAA8CLdPMlxhEd46jDJQdLdHluQBAAAYLhkyXnGKLPkIymAOGKXl1o3uG6bYgoAAJCsnpFuJpm3XgnlnDwN5B1TTAEAAJKkWyY5ilM/+KJ5RhgkAQAAGB6DG3ipw9XJMG+PIUs+ggJId5B+YqnNNl5m3eB6L9m723oxAAAA7Zh4wpkcJNlPureTvfutFwMAANCG0zM5s1EFSQAAAIbF4AbOZJGRZMkHXADpZukv1mXrlTAYsyQ3V5NuTTEFAAAmxsQTzm2e5OummAIAANPU7ad/jnZ6Jmc1miAJAADAMBjcwLmts+T7Sd4bapZ8oAUQoRUu5SDJPOneSfYetF4MAADA9nWL9M/RJp5wEYervRjDFAAAgInoDtMPI4TzWgdJ5oYpAAAAbFO3n778IUvORSyTXE2620M8yfNLrRdwft1BkltxwXI5+0m+tvo8AQAAjFh3mOTrUf7gclb7MZ39GAAAYMS6WdLdjPIHl3eYdF9fTaMFAABgo7qDJF+LLDmXs5/+HfjgsuQDK4B0RzGxlM2ZJTlefa4AAABGppsl3XGEVticefphCsvWCwEAANi8bvXME888bMoiyb8zTAEAAGCTZMnZqEFmyQdSAHkyaeWw9UoYpcM+FGX6CgAAMBbdLH1oZXCTKihvluTm0DbAAAAAXq5bTXw0OZSNW+3RGKYAAABwOU8GIMqSsw2HfVdhGFnyL7dewKs9Ca3YbGObDpLMk+53k71HrRcDAABwcd1++ufoQWxMMFiH/Z7N3tutFwIAAHA53TL96Zmeo9mW9TCFWbL3fuvFAAAADI8sOTuxTHJ1CFnyVxZA9vb2drGOU3T7SW7EBcturCb7dLeTvQetFwMAAHB+3UH652ihFXZhmXRXk5TfAAMAAHix7jB9+QN24Sjp5oYpAAAAnEe3n+Q4ybz1SpiE1cDN7p29vTZZ8q7rXvnP7L3qH2pXADGxNLmzSB5dST7eT/7yq8nf/ML2vtff+pvkH/5p8rMPk7/zMPnV+9v7XuU9Sh9eUQIBAJi2efp2/2L19a+T/PwWv9+fJvl2krtJ7q/+COfQLZPcbL0KJulBktvJ3sPWCwFgdNb34utg7mtb/n7fWP3xvfT35FPeJweYgO5m+r0f2LUPkrxjmAIDsd4jXyb5F0l+ZYvf6/8k+c95ei9+N4n9JgCASZMl77Pkfz1PPp0n//NXkv/3M9v7Xj/zSfKLHyZXHySzz2XJ22TJB1wAmeIFe2eR3F8kf301+b/7yeMrrVeUfPnz5OceJH/n42Rxf2IX8qMk7yV7QncAANMwTx8qW66+qkx+XL/kups+hOb+lFMof9CcYQoAXNa66LE88VXB3Tx7Tz6lfXKAEVP+oLkHcaIm9az3xtf344u2y3livTe+vidXCgEAmIRufX8qS97U5LPkt5O9nf5vHmgBZCqhlXtXkx8tkp/uJx9fa72as/uF+8nfv5/88v3k2setV7MDbyuBAACM1tGJr6G88H+Y/gXX+mtKD9acqjtKcth6FRAlEADOZ13CXn9VCZe9yv08e08ufAYwOMoflKEEQmvrEvb6a952OWe2LoKsvwAAGJ2pZcn/1yL5ZCh75Emu3kv+3gNZ8u0YYAFkzBfsp1eSHxwkf7FI/mpRo5V1WV/+PPm795N/cD/5tQ+Sn/289Yq2RAkEAGAcFkmO8/Rl1hicDJ/dbrwWmhBaoRwlEABeZpmn9+RjuYdZh89ux4l9AMV1syRfS7LfeiVwghIIu3Zyj3xAAbOXOrlHbmgSAMDgyZIPiyz5pg2sADLWC/Z715KfLJKfjOVl1kt85W7ylfvJr99rvZItUAIBABimefoXWuuXWmP2MMmbETybEOUPylICAeCkdRH7VsYTMDvN/Ty9Jxc8AyhF+YPSlEDYtnUR+1aGc8rHRa2LILfjtD4AgAGSJR8+WfLLGlABZGwX7L2ryZ8dJB9dSx6N/eH5Bb78efKP7ib/5IORHe2jBAIAMBzrwset1gtpRPBs9JQ/KE8JBGDaplTEPo3gGUAZyh8MghIImzalIvaLPEx/L+70bACAwRhrlvzHy3Gc9HFes4fJL92TJT+/gRRAxnTBvrtM/nyZfHa19UrqmD1Mfvlu8s/ujuRYHyUQAIC65kleS/9Sa4ovtE7zXp6WQRiF7ijJYetVwBkogQBMzzJ9wOw4458sfFbr4NmbcVIfQCOGKDAYSiBswvp+fKpF7Be5n/6e/BtRzgYAKGosWfJPryT/bZn8aDnNAwRO87c/Tv7x3eQ3x7JHvtUs+QAKIN1+Bj+R99MrybuH021ondX6VJDffH8ERRAlEACAWhbpix8Df7bYuvvpX3C92XohXMZYNr6YECUQgGk4Sn9PLmT2cu+lvyd/r/VCAKZD+YPBUQLhom6lvyc3HOnl3kx/T+7kbACAMsbwDlyW/GxGlSV/c1vvwIsXQLr99Eftzrb0DbbMxXoxo7h4hVcAAGpQ/LgYRZDBGsPGFxP1KMl/EF4BGCXFj4tRBAHYCeUPBksJhPNQ/LgYRRAAgBJkyadJlvxlChdAhnzBulg3Y33x/trd5JeGeMSmEggAQDuKH5uhCDIo3UGS49argEsQXgEYF8WPzVAEAdia7ijJYetVwCXcTfbebr0ISlP82AxFEACAZoacJf9onvxgKUt+WYMvgmwlS160ANLN0l+w+xv+hXfgrSMX6zZ89fsDvXgfpj/CR3gFAGA3FD+242GS344iSGFD3viCZ9xP9n6n9SIAuJSjJK/HNPVNu5v+nlwRBGAjnKDJaLyf7Lk/4Hm30t+Tz1svZGQB89vPAAAgAElEQVTeTH9PPsQBpgAAA9TN0t/bDuy+dn2IwIfXW69kXNZFkH81xGfgjQ9CLFgAGWr5484i+e6N5NHAftAMyexh8k/fS379XuuVnJMJpgAAu/Ha6ss9+fa8l/4F193WC+Gkbp5+40v5g7EwwRRgmOZ5ek/O9nxj9SV0BnBh3SLJ11uvAjbo7WTPfh1JX8J+PU7h26aHeXpPDgDA1gw1S/69a8kfHcmSb9PsYfIb7yS/OrQT+jaaJa9YALmZQU0G+2ie/OFR8vG11iuZjqv3kn/5XvJLQ3rB9UGyd7v1IgAARsqE4d0TOitjqBtf8ErvJXvvt14EAGdmwvBuOaEP4MKcoMlo/U6yN7TwC5ujjL17TugDANiq7jjJQetVnJ0s+e4NMku+sUGIxQog3VGSww39Yjvw1lHy42Xy+ErrlUzPII/ycfwuAMBmzdOHzG61XshE3U//gkvRuamhbXzBudxO9j5ovQgAXsqE4bac0AdwLt0s/T6SwiJj9Cj9JNEHrRfCzh2nvydftF7IRL2Z/p58SKEzAIDiZMk5q+lmyQsVQLqD9A+mA3BnkXz3hiN6KhjcUT7CKwAAm7GeZuaevL33kvyb9IUQdmpoG19wbsIrAHWZMFyLE/oAzsQQBUbvQfrn6EetF8JOLJK8EWXsCh7m6T05AACXIkvORUwvS16kANLN009bGcBRu28dJR9eb70KnvfV7w+kwSW8AgBwOfP0L7UG8sA/GQ/Tl0CcBrIzQ9r4gksRXgGoZ5n+nnzZeiE84276e3KngQC8kCEKTMbdZO/t1otg647T35MLmtVyO/09uWI2AMCFdPtJvhZZci5sUFnyN5O9Cz87nKUA8qWL/uJnXMIs/cNp8Qv20yvJf/yaC7aqD6/3vz+fVj9CaZbkxupzDwDA+SyT/HGE3iuaJ/lmktdbL2QaunmSG61XATuyH5MsASq5leQ7Uf6oaJn+9+ZW64UA1NMdRPmD6Vgmnc/7uL2efi9W+aOe4/TvMDwvAQCcW7fK1sqScxmDypIfbztLvuUTQLqbKf/wc2eRfOc4eVz9A0G+/Hnyz28P4BifD5I905EBAM7utSgXDMXdJL+VpPo9+YB1t9KH4mFK3kv23m+9CIAJm6e/H1cuGIY3k/x2TB4GyGqIwq2UD5DAxv1Osmd/blwW6YsfxfM1rPx2km+0XgQAwHB0x0kOWq/i5WTJh2MwWfILn+J5lhNAtlgA6Q5SfnqvY3qGaRDH+Lyd7N1tvQgAgOLm6Y+yL/7cwHMepj/qXul547qjmFrKdL2Z7D1ovQiACVqmvycXNBuWu+nvye1BAxNniAKT9TD9c/Sj1gthI47T35M79WNYbqe/J1fMBgB4qW6Z5GbrVbycLPkwDSJLfjvZ++C8/6WzFEC+dKHlvPpbz9Mf11OUY3qGbRDH+BytrgMAAF5smf64dOWP4Zmnn0bn1JaN6hZR/mDabmz7GFwAvuBWku9E+WOIlul/75zaAkxYdxTlD6areB6Dc3g9/V6rbMHwHKd/x+F5CgDgVN08yVHrVZxOlnzYBpElv7GtLPmWCiC5mbJH7X40T/7L15NPFq1XwmV8suh/H+9dbb2SU8wizAgAcJqj9GEl9+TD9lq8nNyQzvMD9MEtm6sAu/N6TBkeuvWJiq+1XgjA7nX7MUQBDlaTdBmm9ZAd93LDtkj/rqNwqBEAoKnjlM2S37sqSz4G6yz5R1XfdcyypRNwtlAA6Y5SNsh172ryu7eSz6qWBjiXz64mf1C5BLK/uh4AAHhqPWW46sMX53Mcv5+bcCNlN75gpw6T7qD1IgAmQGlgXNZlHoCJMEQBTjja1iRRtmqefk/Vz7JxWP9+Op0PAOAZlU/uvLfKHsuSj8Nnq25A2Sz5YhtZ8g0XQCpPW1lfsI8rH/XCuT2+UrwEcri6LgAA6F+ACCaNzzJKIJfQLZMIvMNTN1aBLgC2440IJo2RZy1gSq7HHgSsbW2SKFuzLgs4vWV8PGsBADxROUt+ZyFLPkbTy5Jv+gSQGxv+9Tbk3aULdsweX0lu3+p/n0sqel0AAOyUqbTjtkzy43hxeU7dLIlTA+FZs/SBLgA2a57kjyOQNGZOWwQmoFukbIAEmlkknetiGOyhjt8b6d+FAABMXdHM7LvL5N2vyZKP1boEMo0s+QYLIN1hSh7X8+4yuXPDBTsFd24UvXD3t3F8DwDAgLyR5LXWi2DrTK87vxvpw+7Asw5XwS4ANsN92nQcRQkEGK3OSQdwuutO0yzPKcrT8VoMwwIAJq07SuksOeP2+ErxLPnGBjhsqADSzVNyOqMLdnru3Ei+VfCzmOXqOgEAmBrHnk+LcOGZdQdJDlqvAgq7KbwCsBHuz6ZHuBAYq+vxsw1OM0vZCbvE/dkU3YoSCAAwSd08JU/u/NZ1WfKpKVsCub6pLPmmTgC5mXJTS5U/puuHRwUvXFOJAIApUv6YJiHDV+pm6aczA6crOmwEYFDcl02XkCEwMt1+SgZIoJSD1cARanFfNl1KIADAFBXMyL677DPFTE/JEsjGsuQbKIB0B0kWl/91Nkn5g5IX7iLpqq0JAGBblD+mTdjw5UwthbM5dJomwIW5H0PYEBgTQQ04myOnaZbifgwlEABgQrplZMkpp2yW/NIDHDZxAkixDbd7V5M/KbYm2rhzo/88lHJo0w0AmIBbUf6gf7H5zXjB+Zyqx95CWQUnBQEMwhtR/qD/DLzeehEAl1MxQAJlOU2zDnujrHlfAgBMQDdLuXfg964qf9D7k6OCWfJL9xwuWQDpjlLqgfXe1eQPvp48vtJ6JVTxB18vduHadAMAxs5EK05axJS75wmzw/kskk7YC+B83khy3HoRlOEZDRiwigESKG/pNM3m1qfx2c9gzYnpAMDYXU+pTMA6Sw5J3ymomCXvLlUCuUQBpJul1ASxj+bKH3xRyQvXphsAMFbHESzii5ZRAlnpFvHiFy5CcQrg7ASLeJFbcRIIMEzFAiQwCIpTba3LH4WyNBShqA8AjFQ3T6n7XwcJ8CLrLPlHlfaZlqsuxoVc5gSQo/SbBwV8eiX5r8cuWF7s8ZXk2zf7z0kJNt0AgDFaRvmD0y0jcJYIscNFzZPOczTAq92K8geney0+H8CgVAuQwKAsnabZzOvxs4vTvRGfDwBgfA5TKkv+7Zuy5LzY41XXoFSW/MKngFywAFJtw+33jpPPKp3wQDmfXe0/J2XYdAMAxmQ91axSU556Jj51uFvGNQKXcf0yE1AAJuAoCtm82hu5xAslgB0rFCCBQTJIYfdej8ItL+ddCgAwMt0isuQMSsks+YWeDy56AkihzYJvXU8+EaTnDD5ZJG9VerlV6DoCALiUb8YLC87mtUw3cOb+Hy5nluR660UAFDVPf08OZ+H5DRiAasMIYZAWBhLu1FH6vU94Fc9vAMCYFHoH/taRLDln88mi7x6UcaHr6AIFkEobbveuJj+caniIC/nwenKnyg95m24AwBi8nukG+rmYCQbOnP4BG7J0CgjAC03w/opLEDgDhqBQgAQGzbW0G+6vOK+jTPq0bABgHLpFkiL51zuLPhsMZ/XDo76DUMKFTgG5yAkgNy/w39mCT68k71Q6hoXB+M5x//kpwaYbADBkpppxEVN8Ieq+HzbDKSAAX6SQzUUInAGFVRpGCINnIOFuKGRzEVM+LRsAGIci78A/vdJnguG83qmUJT93N+OcBZBKja3fv5k88hDNBTy+kvxelR/4Nt0AgKGaYoifzZlQ4MzpH7BhTgEBeEohm8sQOAOqKhIggdFwTW2XQjaXoTwEAAxUpSz57x33mWA4r0fzvotQwrmz5Oc9AaTItJVvXU8+vtZ6FQzZJ4vkrSobMTbdAIAh8mKCy5pK4Mz9PmyWU0AAegrZbILnOqAYp3/AFhhIuD0K2VyW5zoAYKiKvAN/66jPAsNFfXyt7ySUcK49sXMUQLp5koNzLmYL7l1NfjiFkBBb9+H15E6FH/6L1fUFADAUppqxKSMPnDn9A7ZEIAxg9PdR7IjAGVBNkQAJjI5ra/PcR7EpikQAwMB085Q4/ePOos8Aw2X98KjvJjR3cJ4s+XlOACmyKfDtKsetMArfvdF6BStFri8AgFdaJLnVehGMxjx9oWishNRhO2arghXAVN2KQjabc5TkuPUiAJJuluRa61XASC2Sbr/1Ikbm9ShkszmvpUSIEgDgTIpkXctkfxmFMt2EM19fZyyAVNlw+9b15LMKLRtG49G8PwaquaVTQACAgXgjXmyxWSMNMHaLJF6sw/YU2VwG2LmxF2hpw3MeUMH1JLPWi4ARM0hhc45iSBKbNU9/Tw4AUFw3T4lni7eO+uwvbMpnV/uOQnPXVp2NVzrrCSAFNtw+vZJ84OU+W/DjZfJRhX8ZFPgXIwDASx1nlEF9ChhjiNHzK2zXPOkOWi8CoIHXIqjP5s3Tf7YAWvKeDLbLQMLNGeNeJu05mQ8AGIICz+4fzfvML2zaB4cFsuSz9J2NVzprAaTAxfL7N5PHV1qvgjF6fCX5wwpBxgLXGQDAqUwaZpuWGVXgrJsnWbReBUyA52hgakZ2z0Qxr8W/W4FmumWaDyOESfDv+stzz8Q2vR6FfwCgtgL3wn94JEvOdgwrS/6lvb29vOxrNU2x8YbbnUXy8bW2a2DcPr6WfK/1Z2y22uAGAKjotQi0s11jmmbtvh52Y2F6KTAxCtlsm88Y0IrT/WA3XGuX49Q0tm0RnzEAoKwKwxu+d02WnO36+FrfWWhqtreXg1f1O85yAkiBi+W7N1qvgCn4o6Pk09bNQJtuAEBFXjqwC/Mkb7RexIYogMDuuN6AqbiVpMLkKcbtKP1nDWCHnKIJOzRfDQDlYt7IeAbYUJdhXABAVY2fJT690md8YdtKdBZe2d14RQGkm6f5RfvWUfLIQzQ78GievHvYeBGmlwIAFY0llE99xxl8sLHC5BOYFMEVYArmcTIDu/N6BBuB3VLqht0qMAB0kI7S713CLngnAwAUU2F4w7uHsuTsxqN5311o6uBVWfJXnQDSeMPt0yvJj236sUMfXi9wCojPPABQyVEGH8hnYIZ+2owwOuyW6aXAFLwWgXx2Z57h35MDw+K9GOzWK0MkvJD7I3bJexkAoJoCWfIPr7ddA9Py42X1LPmrCiCNX6C/e5g8bv1/IJPT/BQQG90AQCVebLFrA365VWHyCUyS6aXAmM2T3Gq9CCbnVpSOgJ1wiiY0YpDC+Qx4v5IB824GAKikcaa1eaaXyXl8pcDn7qXP7i8pgHT7abrB7/QPWmne3JqZXgoAFOHFFq0M9eWW+3ho4yDphMaAsXL6By04BQTYFUMUoA05jPNxX0QL3s8AAEV0B2k6vEGWnFaaZ8nnqy7HC73sBJDG0xOd/kErJZpbNrwBgAq82KKVob7ccgoBtOP6A8bI6R+05BQQYMu6WQxSgFZeGiLhGUPdp2QcvKMBACponGWVJaeVElnyU9+Bv6wA0rAxpbFFa82bW4IrAEBrXmzR2sBebnXzJF6cQzsGKQBj5PQPWnIKCLBt3oVBW67Bs3E/REve0wAAFTR8dpAlp7XmWfJTP/+nFEBaH9nzgwONLdpq3tyara5DAIBWTBqmtaG93HL/Dm0drCYIA4yF0z+owGcQ2CYlbmjLXtarDW1/knFyTw4ANNQ6S+70D1p7fKXvNDRzapb8tBNAGm+4/ffrbb8/JAWaWza+AYBWFkmOWy8CMqyXW6YmQnuuQ2BMjuP0D9pTRAK2pJtF+Bxamyed02xfzn0QFRxHdgQAaKfhfYjTP6iieafhhdfhaQWQhi/M310mj7zYooDmzS3BFQCgFcfaU8VAXm518yRemEN7A/h5AXBm7smpwmcR2AbvwKAG1+LpDEmiEvfkAEArDZ8ZfnDg9A9qeDTvuw3NvPA6fEEBpNtP0yN7/lxji0Kafh5npq4AAA2Y8Eo1Q/g8mloKNbgWgbEYSAmWiRB+BLbB+y+owT3n6YawJ8l03IoTIgGAnesWkSWHlXpZ8hedANLwIf+jefLZ1XbfH5732dXkXsvPpKkrAMCuCfZQzRBetnqOhTI6JRBgDI5aLwCe4zMJbJr3X1DDftI1DHSVNoQ9SabFuxsAYNcaZsnvXZUlp5bPrvYdh2a+cD0WK4D8QGOLgv6sZXjE1BUAYNe82KKaeeq/3BI4hzpsBgND50Q+KjJxGNigbj9NJ4gCz1HI+qLjuPehHs+JAMCuNcyuNs3swimadhxeVQDpZi/6h3bnI5sLFPTjlhetqSsAwC4tkihlU1HhicNOG4BiXJPA0FUvvjJdPpvApngfDLXst15AQYX3IpmwZQwQBQB2ppul6bNC08wunKJpx2HxfJb8+RNAGj4s3Fkkj0xRoKDHV5LvtbxwbYQDALtighRVVZ447LQBqGWedFV/XgCchXtyqlIAATZFeBVq8S76WU7kozKfTQBgVxo+J3zvWp/ZhWoezfuuQzPPfO/nCyANgyv/w8YChf2k5UVr6goAsCsCPVRW9fMpuAL1uC6BoXIiH5Udxb9jgc3w3gtqmSWd6/KpqnuQkPh8AgC70/AZoWlWF16hadfhmY5HoRNA/vKg3feGV/nJMvm0VavQRGEAYBeEeaiu6nQzL8ihHtclMFRV73dgzWcUuKTO3hPU5H30UwL2VLZI/y4HAGDbGj0jfHqlz+pCVU27Di89AaTRC/J3l47sob4ftLpw95Nu1uh7AwDT4cUW1S1TrqQkuAJFuTaBoXJPTnU+o8BluVeHmgxS6AnXMwTuyQGALetmafaM0CyjC2f0+ErfeWjimevyRAGkZXDlpyZKMAB/0XJT2oY4ALBtXhowBNU+p+7Toaa5QQrAABUsu8IXLNJ/VgEuSsgcanIf2qu29wgv4nMKAGxbw+eDphldOKOWnYenXY+TJ4A0vHD+t4uWAfirlp9TJSkAYJuWSeatFwFnUC1sJrgCddlrAobGpGGGwmcVuAzvu6AmgxR61fYe4UXm8VkFALar4bN704wunFHTzsMLCyCNgiv3riaPhM0YgMdX+s9rE4JlAMA2CfAwFNU+q4IrUJfrExgaAR6GwmcVuKBuP4mAOdQlaFVv7xFO47MKAGxTwyz54yttvjecx6N5hSz5yQJIo8X8yEYCA9Ls8yq4AgBskwAPQ1Foulk3j+AKVGaQAjA0AjwMhc8qcFEGAkJtU38f7ZRshqTIHjkAMFKNMrKy5AxJ+yz5qgDSzdIsuPJTL+QZkGaf19kqYAYAsA0CPAxJlc+rZ1mozTM0MCTCZgxJoVI2MDBTD5dDdVO/H62y5whn4fMKAGxJy4yqLDlD0jRLPkuengDScMPtr7S2GJCPrzX85lPfdAMAtkPYjKGpEjYTXIHa5uvNL4ABEN5haHxmgYsQ5IDapn6NVtlzhLNQygYAtqVhdqRpNhfOqWn34WrytADS6GH+3tXk8ZU23xsu6k6rC1dZCgDYBsEdhua49QJWFKegPkUtYCgEdxgan1ngIjxHQ21Tv0btkzM0PrMAwDY0yqg2y+TCBT2+0ncgmthPnhZAGj3M/8hFywDdb/W5nfqmGwCwHYI7DFGFl1vuz6G+qU8vBYajwr0NnIfPLHBO3Syeo2EAuqnmN47iZxTD490OALANje6Lm2Vy4RKadSDmSfMCyE+9iGeA/rpVa2vW6PsCAOMmuMMQVfjcep6F+pw6CwyBsBlDNI/AGXA+TueDYZjqfWmFvUY4L59bAGAbGmVUm2Vy4RKadSCeKYA0unj+ZqobCAza/2/vfkIkTe/7gH9r6MM2SmbUlixpxrJYWkFyZmJkPPEetAuyYYxY2IX1YSVdrIMPuzcHcomOOXqvBpO4j9LFyVwEsyCMG4yhJwcnbWLiHmKDK0KYbtvIKUlx6E4iqBzerume2flTVV1Vz/O87+cDjcRKTD07/b7dz5/v7/cUe25VOQIAq7ab4R7q0bbCz+3UewNtUKgFtMCeH61SAAIswjoa2jDUd3Wo/960bSfWkwDA6hWaX8iS06Jiz+3N5KIApFDV1k9UbdGgU79sAIC+cDhAq0o/u9YE0AY3gAAtKD2vgWV5doFFWEdDGwrlRoozr6FVnl0AYIWmBdcDMrm0qFgNxHaSXEumhbohPlL8QcP+tNBCemoBDwCsko6ttKr09fZuFYA2eFeBFtjvo1WeXWARQw2VQ2uGGroqvdcIy3LGAwCsUqFMd6ksLqxCqVqI6a1rKdYN8R9t9NGw01JdRL03AMAqDfVAj34o+fy6VQCaUbJbEcBcHG7RKs8usAh7UNCGIb6rQ/x3pj88vwDAKhU6UyuWxYUVKFYL8cq1FOuGOHY4QMNOSnURdXMOALBKukPRspLPr4M1aId1NFA7c3Ja5dkFFmEdDW0Y4rtqTkPLPL8AwCoVOlMrlsWFFShWC3FrK8U6l/4fVVs07H/8UvJ7BX7h/cnbSf7n5j8XAOip10sPAK7g3yX5fpmP/tc3k8+7VQCa8O/vJTktPQqA5zCfoHUH8XsWmMvvaQwIzfj0ryZ/9/9Kj2KDfq70AOAKXk/yR6UHAQD0xdd+JvnKxzf/uT/59OY/E1alWC3EK1uFPjjJPw6xewS98X8/lvzQZjUAAJTzz86/CviHJDfKfDSwoM/sJn9RehAA0FeaCgBz+mHpAQBz+5gzcGjHdpJ7pQcBAPSJ9TssplwtxLUkha7P+ZFre2BhmgICAEB5zsEBAABgPo6EAQAAoH6yqbC4YrUQt64V+uAkPy117QkAAAAAAAAAa+dIGNoi9AUAAADzKVcLUagA5AfFrjyBtnl1AAAAYH7W0QAAADC/m6UHAAAAFOFMDZZTpibiWpLdzX/s3/pJAUvx6gAAQFmlbvAElqNzKQAAlGVODgAAAPWTTYXlFKmJ2C10AwgAAAC0qNgNngAAANAgtwkAAAAAwCopAAEAAAAAAAAAAAAAAKhcoQKQY61eAAAAAAAAAACqcav0AAAAAKAhZWoiChWAnG2X+VzoA68PAAAAzGe39AAAAAAAAACgYjKpsLwyNRGFCkCA5blABwAAAAAAAAAAAICrkkmF1igAAQAAAAAAAAAAAAAAqJwCEAAAAAAAAAAAAAAAgMopAAEAAAAAAAAAAAAAAKicAhAAAAAAAAAAAAAAAIDKKQCB5pyUHgAAAAAAAAAAAAAAzZNJhdYUKgC5MSnzudAHp6UHAAAAAI0Ylx4AAAAAAAAAVEwmFZZXpiaiUAHIJxSAAAAAAAAAAABU47j0AAAAAKAhZWoiChWAAAAAAAAAAAAAAAAAMC8FIAAAADC3s9IDAAAAgIaclB4AAAAAAPTKtSTjzX/sF90bCkspclMQAADwmOUstOW09AAAAGDgzMkBAACgfrKpsJwiNRHjQjeA3NAyFZbilywAAADMzzoaAAAA5ufWHgAAGCZnarCcMjURhQpAkmRLEQgAAAAAAABAbwmQQFvc2gMAAADzKVcLcS1JiatHkny80OdCy2y4AQBAeePSAwAAAIBGKAABAACA+smmwuKK1UIcbxX64CSfOEl+uFvu8+Eq/unfJrf+evOfe/I3Sb6/+c8FAHrq/SQfLz0IWNIfJvmvZT76i/8i2fXuQBP+8C+S/Kj0KACe4+Pp5uTQqt+P37PAXL74RukRAPP66X9JUqyDaQG/lOSrpQcBS/pRujk5AMAK/MyryRc/u/nPPf588r8+s/nPhVX4xEmpTx4l0zeS3Nv8R//BveQvX9/858IqfPFh8o39Ah98kIxKfC4A0E9/lCJrAViJX09SaG48fTvJ3TKfDSzo28nItT1AzaalBwBXMCo9AKAV03+VZKf0KIB5jP5t6RFs2L10++TQov10++QAACswvZekQAMHWXJaVixLvn8tSaHrR3YdvtOwm6Wu7fHeAACrdFh6AHAFJZ9f999CO4p1XQGYk2YvtMqzCyxiUnoAwFyG+K7aI6dlnl8AYJUKZVOLZXFhBYrVQhxfS7HrO/+JwAwN2x7StbcAQH8N8UCPfpik7PPr3YFmjOw/AbUzr6BVnl1gEcIc0IYh/n4vvc8IV+HZBQB6QBaXln2m1Jz87FoyKrThdlsHRhr2WqGqrZEbQACAVdIdilaVfnYdrEEbhMyAFtjvo1WeXQDon6HueZXea4RleXYBgBUqlU0tlcWFVfhcoXX06Pja+X8r1A3xuiIQGrQ91I0vAKB/HA7QqtKbQNYE0AYdg4AWlJ7XwLKsJ4FFOBOGNgz1Fk1zclplTg4A9IRMLi0qVgNxmiSzApBCg/iYl5YGFXtubTwBAKvmentaVXhuPPLeQBvcAAK0QGCHVtmvBhYx1FA5tGaoe17mNbTI+Q4AsA6F5say5LSo2HN7klwUgBQaxKccxNOgnyu1AeSXHACwDvulBwBLqOG5tZ6F+rkBBGjBYez70Z5JFC8BCxkJV0MbhjovrWGvERbluQUA1qHQmqBYJheuoFgNxCQpXgDyBS8tDSr23OqOBACsg9AOraklbDbUA3FoiUItoBWCO7TGMwsswzoaqjfYYi1F2bSohj1yAKB/CmVUZclpUbHn9okCkEIH4rdPki3dGGnI1ln33BbhlxwAsA6CO7SmlmfWoTDUr9T6HWBRgju0xjMLLMM6Guo29CYKtew5wrw8swDAOhTKqMqS05qiWfLj5KIApOCB+M8KtdOQos+rjXEAYB10N6M1tYTNrGWhbpNk5CZNoBWCO7TGMwssY+jhcqjd0PeIa9lzhHnUcks2ANA/BdcFsuS0pOjzepI8LgAZnabYi/vzXloa8qlSm9OnyWjom24AwPoI79CSWp5X83Oom3cUaImibFoibAYsyw19ULehz0dr2XOEeXheAYA1GU2SFGqwViybC0soVvvwuAnitSf/YQl3FIDQkC+Uel5tigMA6yS8QysqCpuV3PwC5mCTGGiNAA+tuF96AECzhh4uh9oNPbehKJuWVLJHDgD0VKGsarFsLiyhWO3D4zPwa5OkkQoAACAASURBVM/6h5v1uUmybSFNA7bOktulCjEEVwCAdRLgoRW1BSNtQkG9NFIAWiPAQys8q8CSRsfRSAFqZh1d394jPI8zHQBgnQplVW+fdBldqN32pKt9KOLx514uACkYXPm00AwN+NmSz6l3BABYp3HMN2hDbWEzzQygXn6vAa0R4KEVgpHAVZinQ52Ok5ECrfr2HuFZnOcAAOtWcK5RNKMLcypa8/D4sy8VgIwKDuhVLy0N+PmSz6mOKwDAugnx0ILagpHWslAnwRWgRUI8tMBzClyVRgpQJ2fRndr2HuFZnOUAAOtWcH1QNKMLcypZ8zB6VgFIkmJX93zlkat7qNvWWfLlo0IfLrgCAGzCXukBwEvsp7qwWclGCsALCK4ArTInp3aeUeCqrKOhToVyItUZRxEI9TMnBwDWbHSaYmuELx/JklO3rbOu5qGIJ/bVni4AKbjp9tlS4XqYw2ePkhulfrHYDAcANuEw5h3UrdbDV+8N1EdwBWhVrfMdmPGMAlekkQJUyrt5we0K1Gyc7iwHAGDdCq0RbpzJklO3os/nE2fgTxeAFOyQ+CsWKVTsn5eq2Epchw0AbI4wD7WapN7nU9Ac6iO4ArRqHIEz6nU/fscCq+FnCdRlkoycR1+4H+fz1MvtHwDAphScE79q34CKFa11eKLGo6IbQG6fJNsW0lRoe5K8VvKXSsniEwBgWBweUKuaD15tQEFdjgVXgMbVWvQKipOAVbGOhrp4J59UcyMa8GwCAJtSMLP6lUey5NRpe9LVOhTzxPr9qQKQ0enT/4fN+pygOxUq+lwen7+XAACboOMwtar4uRyNk5izQz0EV4DW1Vz4ynAJQgKrZM4OdfFOflTFe5EM2H68rwDAxoxOkxyX+3xZcmpU9LkcP50lf/oGkPP/UylfLnk1CjxH0efSAh4A2DShHmozTv3PpXk71KNk1xWAVRC0p0YKk4AVGh3HzxSoiX2tj7offy/UxzoRANg0WXJ4Ql1Z8soKQD43ST5pIU1Frp90z2UxKhkBgE1ziEBtWngmrWOhGqOj0iMAWAEdh6mNZxJYNetoqMPx0x1EeayFPUmGxTMJAGxawezq5yZddhdq8clx4Sz5PAUgpbuu7Aq8U5FfKFmxdXr+PgIAbNIkyV7pQcAlLTyPgitQB8UfQF/oOExNWriRD2iP8y+ogznn87WwJ8lw7MXtWQDAxo2OkxQsGC+a3YWnFK1tmDwrS/6sG0CSogfmbx4m2xYuVGB70j2PxSiGAgBK+aD0AODcXpo4iB5NIrwCNWjg5wXA3MzJqYVnEVgHZ2BQB4Gq5xtHEQj1MCcHAEopuH6XJacWxbPkz6zpeF4BSOFNt198WPbzIangORRcAQBKcbhFLVo62BJegfK8h0CfNFIIS89ZGwJrMjqNG/ygtOPzpiY8X0t7k/SXtSEAUFLheUjxDC+kgufwmWfgzykAGR2n6PWBKrcobess+XLJjefTZGTjGwAoyeEWpe2n+IbSQszfoayj8xAZQJ+Yk1OaZxBYp5bW/NBHmii83DjJ/dKDYPDMyQGAgkZHSQqev335qMvyQinFb/+YnNd0fMTzbgBJiodXilfMMGifP0xulPzFYcMNAChtnC6AD6U0drA1miR55sIb2AjhMaCP7qdooyYGbhK3fwDr5SwMytLMZD7mQ5R0P/a8AIDyCq7fb5x1WV4opXgtw3PX7i8qACm86aZyi1K2zpI3DwoPwiIeAKhBYwF8emQ/bRYgCa9AOd4/oI8E8CnJswes2eg0iRAHlHF83syEl2t1n5J+MCcHAGpQOMv65oEsOWVsnXW1DEU99wz8BQUgo+MU7S6mcotSit/+MTm/OgsAoDSHW5TSavGReTyUcXQeHgPoow/iFhA2b5J25+RAWzREgzI0UViMeRElOJ8BACoxOoosOYNURZb8+Hn/44tuAEmKd11RucWmVXH7h9AYAFATh1tsWsMHW6NJzOehBMEVoM/cAkIJe1F4BGxE6RAJDJbw1GIa3q+kYc5mAICaFD4DlyVn06rIkr9w7X5tOp3mWV/nCr+0N86SO6X/AhmU4hVbiQ03AKAu+0nulx4Eg9L6wZYgOmyWWzSBIXALCJs0TvtzcqAt5vOwWW7RXI75EZt0P4qOAIC6FM60ugWETbtzUEGW/Oh5NR7T6fRlN4DU0L30nYfJ9ZOyY2AYtifJN0ovoo/O3zsAgJp8KwJnbMZemj/Y0r0UNkxYDBiCSZL3Sw+CwbD+AzZNgAM2S/OS5ezHzXxsxiTdnBwAoCI1ZMm/sd9lfGHdrp90tQtFvTRL/pICkCRVbAC83ngAiDb86oelR5CuuxoAQG3GcbjF+vXpYEsgHTZHWAwYCh1g2QQ3QAIFjCZxPgab4hbNq1Eoyybsxe9FAKBOFcxRqsj40ntV1Cy8tHZjjgKQGrqXvjZOXnWgzxrdfNQ9Z0WdJiPPOQBQq2+ligU9PdanA1TzetgMt2gCQ+MWENbNMwaUIpAOm+Fdu5o+NbChTuN4xgCAao0Ok5yWHcNr4y7rC+vy6mEFWfK5mjfMcwNIUsVGwDv7ydZZ6VHQR1tnydcflB5FhMQAgPoJA7Eu++nVLTM1XIELg2AdDQzNOMkHpQdBb30QRf9AMaPD9KcpBNTsYekB9MBe3MzH+jiDAQBqV8HZ3NcfyJKzHltnXa1CcXNlTeYtAHmY4pVbN86SOwdlx0A/3Tnonq+iTmPDDQCo336S+6UHQS/1satZBZtf0GuTZCSkCgyRkD7roLgIqIF1NKzXYTIqnPnojT7uZVLe/SguAgDqV0HGVZacdWkrSz5nAcjoNFVsur3zMPmkwy1W6PpJ91wV98iGGwDQiG9FR0ZW64NUsd5ctdE4wpmwTjZ2gaGaROCM1bPOA2pwmOINCaHXrKNX5zCKZ1kt6zwAoBE1Zcmvn5QeBX3yyXElWfK5mzfMewPI+R9ag1/bd30Pq/PVB6VHcM6GGwDQCp1hWaW+P09zXc0JLGySjCrZpwIo4n7czMfqeJ6AStQSIoFeOkpGij1Xy818rJLnCQBoSSVZ12qyvzRv66yrTajC3HtjCxSAjCaL/MHrc/vE9T2sxpf2u+epOBtuAEBrPoiAEKvxtfS60/DoML3+94NiFFcBJO9HQIirG6d7lgBqUcFZNPSSd2v1Jun2NuGq7qffTZIAgN4ZTVLFWd3tky4DDFd156CSLPnhIlnyRW4ASaqp3HrnYXLzUelR0LKbjyq5riex4QYAtEngjKv6VoYxF65kHQ29cZqklvU8QEkCZ6xCzwuygfbU0pAQemWcjOzjrsdhuj1OWJaCbACgVZWs3WXJuaqqsuQLZUsWLACpadPt6w+SbQcTLGF70j0/VbDhBgC0SuCMqxhQVzO3gMCKHSaj09KDAKiEwBlXMZSCbKA9GinAanmn1stt2VyFgmwAoFGjcappGCpLzrKqypIvdPtHsvgNIEk1GwQ3zpK3LKRZwlv3u+enCrX88AAAWIbAGcsYYlezStbR0Dy3fwB8lMAZyxhQQTbQnpoaEkLzNCPcDLdlswwF2QBA6yrJvsqSs6yqsuQLZ0qWKACpadPt9knypf3So6AlX9rvnpsqLFyxBQBQIYEzFjXArmZuAYEVcfsHwLMJnLGIIRZkA+3RSAFWw7u0GW7LZlEKsgGAHpAlp2XtZ8mXuQEkqWqj4J2Hyc1HpUdBC24+6p6XalT0HgEAXInAGfMaclcz83+4mkkysnEL8GwCZyxigAXZQHtGk1hHw1W5/WOz3JbNvBRkAwB9UtHaXZacefUjS75kAUhtm25ff5Bcr6UShypdP+mek2q4/QMA6JNZ4Mz8hhfZy6C7mo0OkxyXHgU0rKJ9KIAqHUaIiJd7P8MtyAba8zCJGwBheZoobN4H6fZA4XmcpQAAPVPTLSCJLDkvV12W/GDZLPmyN4AkVW263ThLfuvbXlyebev8+bhxVnok505jww0A6J/DJL8eBxc82/0IJCbWAbCs4/MiKgBebC+6DvN870cgEWjK6DRVhUigKYfJSCOSMt5PtxcKT5ukO0Pxuw0A6Jv9VJcl36olK0xVrp9UmCVf+iaSKxSAjK70wat34yz56gMvLk/aOkt+o6YXNuk23Cr5hQcAsFKuuedZdKN+bDSOAz5YhuIpgPnpOsyz7MVzATRptB/NRmBRmhGW59Y1nuVb8VwAAL1UWwOHG+eZYVlyLts6rzGoKkv+8CpZ8qvcAJJkdJCqNt1un3hxuTAr/rhd080wk/PNagCAvtqLsD8X3AzzUQeppgMKNOHovHgKgPm56YHLrNGA1j0oPQBojGaE5bnpgadZowEAPVdbAwdZci6rNkt+cJU/4IoFIEmq23SbvbjwxoPKXthEtxUAYBj24iYQLg46K9roqcFoEoe/sAjraIDlvB8/Q+meAcUfQONG4ySKwmE+mhHWw94oM9+K4g8AYBgqW4vcPukyxFBd8UeygtqLFRSAjMZJjq7+56zS7ZPktQ9Lj4KSXvsw+cqj0qN4yjgZVfauAACszQdxqDFkDjhf7GH83cA8Ds6LpgBYztei8HTIDtM9AwB9ILAB8/Gu1MUeKXvpzkoAAAZgdJTqGjh85ZEs+dC99mGFxR9H57UXV7KKG0CS5MMklV0j+uahF3eoXvuw+/5X5TQ23ACA4XGt+TDNDjZrm5NXZGR9AC93rGspwJWZlw3XYYQNgV4ZTZIclB4FVO5wFQESVs68bLj24jY+AGB4HkSWnGpUmyVfyfO4ogKQ0Wm6DqaV8eIOT5UvbJI81LUUABgoRSDDImQ4t9E4/p7gReznAKyG+dnwCBkCPTXaT3JcehRQqdMkmijUy/xseBR/AAADNZpElpwqVJ0lX0mR1KpuAEkyOkh11/ck3Tfw3b1k66z0SFinrbPkze9U+sKOz98PAIChej8OO4bgMMm/jHDhIvZTXQcUqMJBMhLsAlidWRGIwuz+20s3JxcuBPpKWAOe7cNVBUhYG3unw+E8BAAYuJqz5G9+R5a877bOupqB/mfJV1gAkqTK63uS5PZJ8hvf9uL21dZZ9/19rcJfGkl0WwEASHS86rtZF7ta5+SVGq3sek/okUo7AwE0bxK38/WdNRcwAKPjJJquwZPGyeio9CCYyzhu5+s7ay4AgE6lmdnXxrLkfTbLkt8+KT2SZzhNV2OxMisuAKn1+p7kogjkeo3fWJa2Pan4hU2SfV1LAQAe20vytehG2zf76Q4ufV+XMjpK4pAeLjzQtRRgrd5P8kHpQbByH0TxBzAcD5M4e4POaZL7pQfBQma381UaiGNJk3RnH4o/AACSnGdmK53zzrLk2/INvXL9pPIs+cPzGouVWfUNIKn3+p6k+8b+liKQ3rh+kry/V/ELu9LregAAeuJ+FAv0yV58P1fhw/g7hCQ5SEaV7ikB9Mq3oligT95P9z0FGAi3acIlH2qi0KRZEYhigX6YfT8VYwEAPKH2LPn7e7LkfXH9vDZgWFnyNRSAJOkWNpVuNNw4677RNx+VHglXcfNR9328UetVTCu/rgcAoEcO46r7PtBleGVG1g+QHCejSjsBAfSS2/nap8swMGA1dxKFjTk4v1mWdrmdr33OOgAAXuxBZMlZqyay5GspFh9Np9Nn/w+j0RX/6OmdJO9e8Q9Zs+++nvz5vdKjYFFf2k/eeVh6FC9x34YbAMBL7ST5nSTvlR4IC5kFzQQtVm56L8kbpUcBBZwm2Vv1tbcAzGU3yX9Mcrf0QFjIYbo5eaUd9AA2ZfrNdL/LYGiOk3zH7R+9cS/dnHyn9EBYyF66m/jsZwEAvJAsOevS/yz582o8krUWgCRthFce3Uw+fDc5tZiu3vYkeet+xdf0zBwmI917AQDm9166QhBz8vrtR6foNZu+l+RW6VHAhj1IRjolApT1O0n+TelBMJcP0gXNAMh0O8lvJ9kuPRLYsL3zm3Doj510RSBCZ/WbpJuPu4kPAGBu07dTfRMiWfJ2NJMlP0hGV2qsWrAAJGkjvPLjV5Lv3ku+X/kPmCG7+Sj5+oOKr+mZOU5GFvoAAIu7m+T3U/2if9AEzTZCeIXB0UQBoB7vppuTO+Cq0yTJ+1nTdfEA7ZruJvlm6VHABmmi0G8Ks+t2mG5O7h0EAFjIdDvJb6aJLPl/eDs5uV16JDzPq4fJO/tDyZKXLgBpKLzyvbvJn91LfvpK6ZFwWRPX9CTJabpuK7ohAwAsZyfdAdd7pQfCEybpbv24UmcCFiG8wmBoogBQn910nYcVZtflMN2cfFx6IAB1mr4RXfMZBk0UhuFeujm5wuy6fHD+JQ8CALCU6U66LEgDWfLvvp78uX2GqmydJb+8n7zZQjH2aZLfTUanV/2DCheAJMn0VpoJcT26mfzxveSHu6VHwvWT5KsPGrimZ+bbycgBHADA1b2brhDEnLy8++k6mjnU2jjhFXpPEwWAus0Ks4XOypok2Yub+ADmMH07ChjpN00UhmUn3e1875YeCBmnm4+7iQ8A4MpaaoT46Gbyh28nP7lZeiR8cpz82v4Qs+QVFIAk7YVX3AZSztZZcuegkVs/ZvaT0UHpQQAA9MhOuqvuXXdfxjhd4YdbP4oSXqHXNFEAqN9uutBZQ/v6vbKfbk7u9yXAXKbbSX4zya3SI4E10ERhuO6lm5NrllSGWz8AAFautSz5d19Pjt6QJS+hqVs/ZlaaJa+kACRpL7zy41eS795Lvt/QmFv36mHyzn5y46z0SBbgql0AgPW5m677cEMbAE3TYbgqwiv01oNk1NJGHcDQuaFvs3QYBlja9Fa6dfR26ZHAiu0lo+PSg6AoN/Rt1n66Obn9KwCAtZAl52VkyZOqCkCSZPrNNHdQ9Ke7ycN7rvJZp+snyev7yWutdTNz1S4AwGa8l+6QywHX+txPd6jV2py856bbcbhLv2iiANAmN/Rthg7DAFemCITe0USBmd10e+Tvlh5Ij03S7ZHLgAAArN30vTTXCFGWfP2azZKPk9G3V/2H1lYA0nAHU1f5rN7WWfL5w+Qb+6VHsoTjJN9JRqelBwIAMBBCZ+sxTvJ+uq5mVEl4hd5Q/AHQvt0kvx839K3afro5eWuHWgCVmt5N8nbpUcAK7Cejg9KDoDr30s3JG2u8Wj3F2AAAG9VylvwP7iV/fVeWfJW2zpI7B8k7D0uPZAlry5JXVgCSnL+4v50mwys/fiX53hte3quaFX68edDYFT0zp+mu2rX4BwDYvN10RSDvlR5I48bpDrR0M2vCdDfJN0uPAq5AEwWAfrmXbk6uEORq9tPNyRVjA6zc9I34PUXbNFHgZd5LNydXCHI1e+nm5IqxAQA2brqTbl4rSz5YvciS/+66zsArLABJ+tHB9Ht3k//2enK6U3ok7dieJF84TH7tsNGXNele2O8ko+PSAwEAGLjddJsB76W7HYT57Ce5H4UfDdLBlGYp/gDor7u5mJMzv73zr8PSAwHot+nb6X5XQWsUf7CI95K8G0Vvi5jkovBD008AgKJaz5L/+JXkj+8mf3VXlnwR25PkFx8mb7a8R772LHmlBSBJ+y/ujEKQl+vFy5oo/gAAqNFOLm4EMSd/Pt2Fe0ERCM05P1BX/AHQc27pm4/uwgAbpwiE5miiwLLc0vdyCj8AAKokSz4csuSLqLgAJOnPi5t0L+/4dvJDV2w+dv0k+YXDHrysM99ORg7nAADqNLse9L249v6yvXQ3fij86A1FIDRDEwWA4XFL30fNQmZ7UfgBUIgiEJqh+INVuJfuRhDF2RfGuZiTK/wAAKjSdDfJN0uPYjW+dzf573eTn9wsPZJ6fHKc7D7qSZZ8Y2fglReAJMn0TroFaE/8YCf5s9vDvdJne5J87lHy5cPkc31aPD9IRn344QMAMAR3c3HINcA5eQ5zUfjRpzk5j03fiG5+1E3xBwDvXvoaor10Rdj3Sw8EgEQRCA1Q/MGq7eRij3yIP/9mhdj30+2XAwBQvb41QvzBTvKf7iY/uD3cLPkXDpNffiRLvpwGCkCS/r24M49uJv/5bvI3d5KfvlJ6NOuzdZZ89ij5lcPk9knp0ayB4g8AgHYNJXg2TneYpbPwYAivUC3FHwBcNqTgmUJsgKpZR1MtxR+s2+ymvnfT/9uz71/6AgCgObLkbZMlX6VGCkCS85tA3kqyXeDDN+BPbiff303+brcf1Vzbk+TT4+TVcfKVR6VHs0aKPwAA+mEWPLt3/tWDOXkOc9FV2Jx1kPq6AUbDFH8A8CK7eXJO3gf7uZiTK8QGqJ4iEKqj+INNm92efS/9+Hk4yZNzcoXYAADN6/sZuCx5g06T7G86S95QAUiSTG8l+c30tghk5gc7ydFu8vc323mJZ5VZnzpJ7ox7diXPs5wmuZ+MHNoBAPTT3VwccrVSEDK75WNW+NH3OTlz6fsGGA2ZpFtHK/4AYF73Ln21Ej6bzcVnXwA0RxEI1VD8QWk7uZiLt3I7yKzg4/DSfwIA0DvTWTOhAWXJW7kdZFbwMagseZEGiEsVgJTSFZ4MpQjkskc3k7/aTf7+VvK/d5Kf3Cw9ouT6SfKxSfKp4+QL455ex/M8OpYCAAzP5eDZbuo47NpPV/RxeOm/wzMoAqE4oRUArupy+Gz2VbpIe5JuLj77UoQN0BuKQCjuKMmH1tFUZjdP7pHXcGvfOE/ukSvCBgAYDFlyWfLiTpN8ZzpNdVnySgtAkmG+uE/7wU7ytzvJ+Dx49g83kx/dWm2F19ZZ8vHj5BPnL+TuOPnMZAAVWS+i+AMAgJnZQdcsfLaOQ6/LB1iXA2ZDnpOzFEUgFKP4A4B1upeLAu3Z16oDu4e5mJfPvgTLAHpvei/JG6VHwSAdJqMHpQcBc9rJkwXa62qgNGuANNsjn+2ZAwAwaLLksuTFPM6S11ZrkVRdAJIk0+10L+6tQsOp3J9eWlD/w07y4xd0Q7sxST5x6UX84nFy42x9Y2vWcZL7yWjIP7QAAJjP7LBr5mUdip8u6hAoYw1sgLFxOpYCUNLTwbOXFWtfnoPPCj0AGDTNFNi4g2RkX5A+uTwHf3rP/Gmz4o4ZjZAAAJjDdCfJu5Elf4Yfv5L85aW/l0Wz5K/ZI3+2Jxog1lZrkVRfAJKcF4G8m9V3D4Cn6VgKAAD0wPRWkrdiA4z107EUAADogeluuvNozRRYtwfJyI0GAAAAC3OhABszTneRwOMseW21FkkTBSAz07ez+mvdYUZoBQAA6BEbYKyd0AoAANAjbtRkrU7ThUd0VgUAALgSWXLW6plZ8tpqLZKmCkCSZPpGXn6FOyxqPxkdlB4EAADA6tkAY+VOk3yYjI5KDwQAAGC1NFNgLY7TraOPSw8EAACgH2TJWYvnZslrq7VImisASXRfYYV0WgEAAAZgejfJ26VHQS8cp1tHT0oPBAAAYH2m95K8UXoU9MJRuuKP09IDAQAA6JfpbpJ3I0vO1Z0m+c6LGjfUVmuRNFkAkui+wgoIrQAAAAMyvZVuA2yn9Eho1mG6ridCKwAAwABM76brJipIwrIOktF+6UEAAAD013Qn3Rm4LDnLOk5X/PHCM/Daai2SZgtAZnRfYSk22wAAgAGabqfbANstPRKa89zrbgEAAPpreivJWxEkYTGn6RoRjksPBAAAYBhkyVnK3Fny2motkuYLQJJkeifdxpvuK7zMabordo9KDwQAAKCc6RvpupjCyxynW0c/97pbAACAfptuJ3k9giTM5yjdOtrtmQAAABslS87cFs6S11ZrkfSiACQ533h7K8mdFQ+H/hin67Risw0AAEAXU17uIMlD62gAAIBEkISXOE23hnZ7JgAAQDHT7STvJtktPRKqtVTjhtpqLZLeFIDMTN9I14HFxhuX7dtsAwAAeJoupjyT2zMBAACeSZCEZ3J7JgAAQFWmbyS5V3oUVOVKjRtqq7VIelcAkiTTnSRvx8Yb3a0fD5LRpPRAAAAA6jXdTbeO3ik9Eoo7TNdEwa0fAAAAz6UpIY8dJKP90oMAAADgabLkPHblLHlttRZJLwtAZmy8DZgrdgEAABbiNpCBm6Tb9BqXHggAAEAbpttJ3kpyp/RIKEIjQgAAgCbIkg/YyrLktdVaJL0uAElsvA3SUbpupTbbAAAAFja9lW4dfav0SNiYg3QbX279AAAAWNj0TpJ7cavmUGhECAAA0JzpTrq1uyz5cBwl+XBVZ+C11VokvS8AmZnuprvKx8Zbf+lWCgAAsDLTu+k2wXRC6a9xugYKx6UHAgAA0Da3ag7EYbp1tAYKAAAATZIlH4C1ZMlrq7VIBlMAMuMqnx7SZQUAAGAtBFh6apIusHJUeiAAAAD9oqNoT2mgAAAA0Cuy5D201ix5bbUWyeAKQBIBll7RZQUAAGDtpjvpOqHslh4JV3Ka5DAZ7ZceCAAAQL9Nd9MVgtwqPRKuZJLkIBkdlh4IAAAAqzbdTrd2v1t6JFzZQbrij7VlyWurtUgGWQAyM91JVwTi5W3PYbrNtknpgQAAAAzHdDfdOlohSFvOCz/Wu+kFAADA06Z3062jd0qPhIUo/AAAABgMWfKGbSxLXlutRTLoApAZL29DFH4AAAAUpxCkEQo/AAAAqqAQpBFuzgQAABgsWfKGbDxLXlutRaIA5BIvb8UUfgAAAFRHIUilZoUfh9bRAAAANVEIUqlJkqNooAAAAIAsec2KZclrq7VIFIA8w3Qn3Yt7N8l24cEMmcAKAABAE6a3crGOphyBFQAAgCZoqFCJ43Rn0YelBwIAAEBtZMkrUUWWvLZai0QByAtMt3Px8urCsjkCKwAAAE2yCVaIwAoAAECTNFQoZJyuY+i49EAAAACo3XQ7yetJ7kSWfJMmuSj8KJ4lr63WIlEAMqfpnSS3073ArMdRkkfJ6Kj0QAAAALiK6XYu1tC6ma7HaZJH6Ta8jksPBgAAgKvQmHADZk0Ii3YMBQAAoGWy5BtQZZa8tlqLRAHIgmy+rZiNNgAAgF5zK8iKnd/2kUc1Djz4ewAAAl9JREFUdDoBAABg1aa76YIkbgVZjSqDIwAAALTs8Rm4W0FWo6rbPp6ltlqLRAHIFUxv5aKSyws8v1nRxyNdSgEAAIZkOrsR5HYUgyziON1tH0eaJwAAAAzF49s1ZwUhzO8oyTiaJwAAALB2suRLaipLXlutRaIAZEW8wC/R1IsKAADAuikGeQlFHwAAAJxTDDKH8fmXdTQAAACFyJK/RLNZ8tpqLRIFIGswvZVu8232NVTji6+2XlQAAAA26fFG2G6SW4UHU8ppnlxHC6sAAADwHNM7SW5m2IGSSZ5cR7vpAwAAgIrIkp/rRZa8tlqLRAHIBjzegJu9zH01Tteh9CQ22QAAAFjK466mt3Kxlu6r2Tp6nIzGpQcDAABAi6Y7uSgE2U1/C0JmjRNmZ9HNhkYAAAAYmul2ujX7wLLko6PSg1mV2motEgUgBUxn1Vw76V7kFjfhJule0PPOKoIqAAAArMNHNsNuJtkuOqTlzNbQgioAAACs0XR2Bt16qGScizNpN2UCAADQM7LkLamt1iJRAFKJ6W66F/iVXLzINbzMp+nCKcdJznJRleV2DwAAAAqZbqcLsuymKwbZST2FIZM8udE16fNGFwAAAC14oihkJ936uZbCkKfOoTPRNAEAAIDheXwGfjlLXuMZ+Pkaflhn4LXVWiQKQCo3vfwiv3L+D29d+j8s+3LPCjtmZptos821MxtrAAAAtGc6C7BcDrJcXkcvG3CZbWol3Zp68tQ/n+hGCgAAQHs+so6eNVpILs6plzELhSRPrqNP8visWtNBAAAAeDlZ8tJqq7VIkv8P2nP/rz257qAAAAAASUVORK5CYII=;" vertex="1" parent="KC83Han23VEneGRMz_ao-47">
                    <mxGeometry x="95" y="337" width="153" height="153" as="geometry"/>
                </mxCell>
                <mxCell id="7" value="" style="shape=image;verticalLabelPosition=bottom;labelBackgroundColor=default;verticalAlign=top;aspect=fixed;imageAspect=0;image=data:image/png,iVBORw0KGgoAAAANSUhEUgAAAUAAAAFACAIAAABC8jL9AAAAAXNSR0IB2cksfwAAAAlwSFlzAACxKgAAsSoBYacs7wAAACB0RVh0U29mdHdhcmUAR1BMIEdob3N0c2NyaXB0IDEwLjA0LjCw1ZitAAAIYElEQVR4nO3aWXYbORBFwbI3bu1c/SEftkxxqAFVyAdEbKApIG8nKOvX5+fnQoKPjzH/WxzxS8AF1eyn5qeanID7yw0j95MPQ8AdjDr3o/5clQn4IrMN92w/by8CPpc5dgKnEnB7RvYZJ9OcgJsxnes5q1YEfJRZPMLpHSTgnUxeW85zHwFvZtTO42y3EvBaZutKTnslAb9hkvpy/q8J+CmjU4e7eEbADxiXmtzLTwL+hxGpzx19J+C/jEUW9/VFwEYhmLubOmDXP4aZ73HSgGe+8lHNeafTBTznNc9jtvv93fsDXGq2253QbFc8ywae7V6Z5Man2MCT3CXfTXLpg2/gSW6RF8aegWEDHvva2GrUeRjzCT3qbbHbqCMx2gYe9Z5oZbAJGWoDD3Y3nGGwIRlkAw92K1xgjJkZYQOPcRNcbIyxiQ94jGugiwGGJ/gJPcDpU0TuLKVu4NwTp6DccYoMOPe4KSt0qMKe0KGnTJCsGUvawFknS6isMYsJOOtYiRY0bBkBBx0oY0gZuYCAU46SwUQMXvWAIw6RUdUfv9IB1z8+hld8COsGXPzgmEflUSwacOUjY0JlB7LcH3KUPSlY6s1nrQ1c7XTgTrURLRRwtaOBh0oNapWASx0KvFZnXEsEXOc4YKUiQ1siYGCf/gEX+T8ZbFVhdDsHXOEIYLfuA9wz4O4/PBzXd4y7BaxehtFxmPsErF4G02ukOwSsXobUZbCvDli9DOz68b40YPUyvIuH/LqA1cskrhz1/n/IAex2UcDWL1O5bOCvCFi9TOiasT89YPUyrQuG33dgCHZuwNYvkzs7gRMDVi8sJ4dwVsDqhZvzcvAdGIKdErD1C3dOiqJ9wOqFh85IwxMagjUO2PqFF5oH0jJg9cJbbTPxhIZgzQK2fmGlhrHYwBCsTcDWL2zSKpkGAasXdmgSjic0BDsasPULux3P51DA6oWDDkbkCQ3B9gds/UITR1KygSHYzoCtX2hod1A2MATbE7D1C83ty8oGhmCbA7Z+4SQ74rKBIdi2gK1fONXWxGxgCLYhYOsXLrApNBsYgq0N2PqFy6zPzQaGYKsCtn7hYiujs4EhmIAh2PuAvZ+hizXp2cAQTMAQ7E3A3s/Q0dsAbWAI9ipg6xe6e52hDQzBBAzBngbs/QxFvIjRBoZgAoZgjwP2foZSniVpA0MwAUOwBwF7P0NBD8O0gSGYgCGYgCHYfcC+AENZP/O0gSGYgCHYPwF7P0Nxd5HawBBMwBBMwBDs/4B9AYYI31O1gSGYgCGYgCGYgCHY34D9BguC3IK1gSGYgCGYgCGYgCGYgCHY78WvoCHQV7Y2MAQTMAQTMAQTMAQTMAQTMAT79efPZ+/PAOxkA0MwAUMwAUMwAUMwAUMwAUMwAUMwAUMwAUMwAUMwAUMwAUMwAUMwAUMwAUMwAUMwAUMwAUMwAUMwAUMwAUMwAUMwAUMwAUMwAUMwAUMwAUMwAUMwAUMwAUMwAUMwAUMwAUMwAUMwAUOw3x8fvT8CsMvHhw0MyQQMwQQMwQQMwQQMwQQMwX4vy+JfkiDOV7Y2MAQTMAQTMAQTMAQTMAT7G7BfREOQW7A2MAQTMAQTMAQTMAT7P2C/x4II31O1gSGYgCGYgCHYPwH7GgzF3UVqA0MwAUOw+4C9oqGsn3nawBBMwBBMwBDsQcC+BkNBD8O0gSGYgCHY44C9oqGUZ0nawBBMwBDsacBe0VDEixhtYAgmYAj2KmCvaOjudYY2MAR7E7AlDB29DdAGhmAChmDvA/aKhi7WpGcDQzABQ7BVAXtFw8VWRmcDQ7C1AVvCcJn1udnAEGxDwJYwXGBTaDYwBNsWsCUMp9qamA0MwTYHbAnDSXbEZQNDsD0BW8LQ3L6sbGAItjNgSxga2h2UDQzB9gdsCUMTR1KygSHYoYAtYTjoYERHN7CGYbfj+XhCQ7AGAVvCsEOTcNpsYA3DJq2S8YSGYM0CtoRhpYax2MAQrGXAljC81TaTxhtYw/BC80A8oSFY+4AtYXjojDRO2cAahjsnReEJDcHOCtgShpvzcjhxA2sYlpNDOPcJrWEmd3YCvgNDsNMDtoSZ1gXDf8UG1jATumbsL3pCa5ipXDbwvgNDsOsCtoSZxJWjfukG1jDDu3jIr35Ca5iBXT/eHb4Da5ghdRnsPr/E0jCD6TXS3X4LrWGG0XGYe/4zkoYZQN8x7vzvwBomWvcB7v+HHN2PAPapMLr9AwZ2KxFwhf+TwSZFhrZEwEuZ44A16oxrlYCXSocCL5Qa1EIBL8WOBn6qNqK/Pj8/e3+GB6odE9ScyVob+KbmYTGtsgNZNOCl8JExm8qjWDfgpfbBMYniQ1g64KX88TG2+uNXPeAl4RAZUsTgBQS8hBwlI0kZuYyAl5wDZQBBwxYT8BJ1rOTKGrOif8jxWtYRkyJxrpI28E3iQVNc6FBFBrzEHjc15Y5T5BP6u9yjp4L0+UndwDfpF0BHAwxPfMDLENfA9cYYm/gn9HdjXAlnG2lORtjANyNdDCcZbEiG2sA3g10STQw5FUNt4Jshr4ojRh2JMTfwzajXxnpjz8DgAX8Z+wp5ZoZ7H/MJfWeGi+TOJJc+xQa+meRSJzfVLU+xgW+muto5zXbFc23gm9mueQZz3umkAX+Z88rHM/M9Th3wl5mvP527E/BfRiGL+/oi4H8Yi/rc0XcCfsCI1ORefhLwU8alDnfxjIDfMDp9Of/XBLyWSbqS015JwJuZrfM4260EvJNRa8t57iPgo0zeEU7vIAE3YxbXc1atCLg90/mMk2lOwOcysk7gVAK+yGxzPNvP24uAOxh1uEf9uSoTcH+5c5/7yYch4IpqhlHzU01OwDGu7EerKf4Dj7wetxjUC+IAAAAASUVORK5CYII=;" vertex="1" parent="KC83Han23VEneGRMz_ao-47">
                    <mxGeometry x="96" y="510" width="10" height="10" as="geometry"/>
                </mxCell>
                <mxCell id="KC83Han23VEneGRMz_ao-123" value="$$x$$" style="text;html=1;align=center;verticalAlign=middle;whiteSpace=wrap;rounded=0;" parent="KC83Han23VEneGRMz_ao-47" vertex="1">
                    <mxGeometry x="215" y="127" width="60" height="30" as="geometry"/>
                </mxCell>
                <mxCell id="8" value="" style="shape=image;verticalLabelPosition=bottom;labelBackgroundColor=default;verticalAlign=top;aspect=fixed;imageAspect=0;image=data:image/png,iVBORw0KGgoAAAANSUhEUgAAAUAAAAFACAIAAABC8jL9AAAAAXNSR0IB2cksfwAAAAlwSFlzAACxKgAAsSoBYacs7wAAACB0RVh0U29mdHdhcmUAR1BMIEdob3N0c2NyaXB0IDEwLjA0LjCw1ZitAAAH8UlEQVR4nO3aa3biOhBGUdLznzP3R7K4efAwtizVJ+09gQa5TpcgfFyv1wsJPj4+uv1bpiLFh0dVUM9WtzMqBQl4vJq5bmF4hhPwALnFPmeW+hNwJ7NG+4i56kPA51qt278M2KkE3J5oHzFszQm4Gd1uZ+paEfBRuj3C+B0k4J1025Y53EfAb5PueUzjuwS8lW57MpYbCfgF3Y5lPp8T8EPSrcOUPiLgO6Rbk1n9S8A/SLc+E/udgL9IN4u5/SRg6QYzvUsHLN05LD3Da7556c5n0Ule7W1Ld26rzfO/0S+gK/VOb7VHvMoGXu25sshgL7GB1bugRR765Bt4kafIE5NP+KxvT7p8N+ucz3mFVi+/zDoSs23gWZ8TrUw28FNtYPXy0mRDMskGnuyp0MEckz/DBlYvO8wxNvEBz/EYGGKC4Qm+Qk9w+hSRW0HqBlYvDeWOU2TAucdNWaFDFXaFDj1lgmQVkbSB1UsHWWMWE3DWsRItaNgyAg46UOaQMnIBAaccJZOJGLzqAUccIrOqP36lA65/fEyv+BDWDbj4wbGOyqNYNODKR8aCyg5kuR9ylD0puNT7mUetDaxeiqs2ooUCrnY0cFepQa0ScKlDgefqjGuJgOscB2xUZGhLBAzsMz7gIv+TwbsqjO7ggCscAew2fIBHBjz8zcNxY8d4WMDqZRoDh3lMwOplMqNGekDA6mVKQwa7d8DqZWL9x7trwOplep2HvF/A6mURPUd9/A85gN06BWz9spRuA98jYPWyoD5jf3rA6mVZHYbfZ2AIdm7A1i+LOzuBEwNWL1xODuGsgNULN+fl4DMwBDslYOsXfjkpivYBqxfuOiMNV2gI1jhg6xeeaB5Iy4DVCy+1zcQVGoI1C9j6hY0axmIDQ7A2AVu/8JZWyTQIWL2wQ5NwXKEh2NGArV/Y7Xg+hwJWLxx0MCJXaAi2P2DrF5o4kpINDMF2Bmz9QkO7g7KBIdiegK1faG5fVjYwBHs7YOsXTrIjLhsYgr0XsPULp3o3MRsYgr0RsPULHbwVmg0MwbYGbP1CN9tzs4Eh2KaArV/obGN0NjAEEzAEex2w+zMMsSU9GxiCCRiCvQjY/RkGehmgDQzBngVs/cJwzzO0gSGYgCHYw4Ddn6GIJzHawBBMwBDsfsDuz1DKoyRtYAgmYAh2J2D3Zyjobpg2MAQTMAQTMAT7HbAPwFDW3zxtYAgmYAj2I2D3ZyjuV6Q2MAQTMAQTMAT7P2AfgCHC91RtYAgmYAgmYAgmYAj2FbBvsCDILVgbGIIJGIIJGIIJGIIJGJJdr9fRLwHY43q92sAQTMAQTMAQTMAQTMAQTMAAAAAAAAAAAAAAAAAAAAAAAAAAAAAAAAAAAAAAAAAAAAAAM7per6NfArDH9Xr9N/o1APsJGIIJGIIJGIIJGIIJGIL9u/hLEgT6zNYGhmAChmAChmAChmAChmBfAfsiGoLcgrWBIZiAIZiAIZiAIdj/AfseCyJ8T9UGhmAChmAChmA/AvYxGIr7FakNDMEEDMF+B+wWDWX9zdMGhmAChmAChmB3AvYxGAq6G6YNDMEEDMHuB+wWDaU8StIGhmAChmAPA3aLhiKexGgDQzABQ7BnAbtFw3DPM7SBIdiLgC1hGOhlgDYwBBMwBHsdsFs0DLElPRsYggkYgm0K2C0aOtsYnQ0MwbYGbAlDN9tzs4Eh2BsBW8LQwVuh2cAQ7L2ALWE41buJ2cAQ7O2ALWE4yY64bGAItidgSxia25eVDQzBdgZsCUNDu4OygSHY/oAtYWjiSEo2MAQ7FLAlDAcdjOjoBtYw7HY8H1doCNYgYEsYdmgSTpsNrGF4S6tkXKEhWLOALWHYqGEsNjAEaxmwJQwvtc2k8QbWMDzRPBBXaAjWPmBLGO46I41TNrCG4ZeTonCFhmBnBWwJw815OZy4gTUMl5NDOPcKrWEWd3YCPgNDsNMDtoRZVofh77GBNcyC+ox9pyu0hllKt4H3GRiC9QvYEmYRPUe96wbWMNPrPOS9r9AaZmL9x3vAZ2ANM6Uhgz3mSywNM5lRIz3sW2gNM42Bwzzyz0gaZgJjx3jw34E1TLThAzz+hxzDjwD2qTC64wMGdisRcIX/yeAtRYa2RMCXMscBW9QZ1yoBXyodCjxRalALBXwpdjTwV7UR/aj2gj59fHyMfgnwQ81Sam3gm5qHxbLKDmTRgC+Fj4zVVB7FugFfah8ciyg+hKUDvpQ/PuZWf/yqB3xJOESmFDF4AQFfQo6SmaSMXEbAl5wDZQJBwxYT8CXqWMmVNWZFf8jxnJ95cIbEFpI28E3iQVNc6FBFBnyJPW5qyh2nyCv0d67THJE+/6kb+Cb9ATDQBMMTH/BlisdAf3OMTfwV+jvXabaYaeZn2MA3Mz0YTjLZkEy1gW+sYv6actSn2sA3Uz4qjph1JObcwDdWMZNP+Nxv75OM17TCbM95hf5lhQfJL4s89CU28I1VvIKlRnqJDXyz1KNd02qPeK0NfGMVz2fRSV7zbX+S8RyWnuGV3/wnGecyvQL+IuMs5vaTgH+QcX0m9jsB3yHjmszqXwJ+SMZ1mNJHBPyCjMcyn88JeCsl92QsNxLw25R8HtP4LgHvJOO2zOE+Aj5KyUcYv4ME3IyStzN1rQi4PSU/YtiaE/C5xGzATiXgTlYr2Vz1IeABZo3ZLPUn4PFyezY8wwm4oppJG5WCBByjZ9WmIsV/c4vdXZzjiqUAAAAASUVORK5CYII=;" vertex="1" parent="KC83Han23VEneGRMz_ao-47">
                    <mxGeometry x="96" y="494" width="10" height="10" as="geometry"/>
                </mxCell>
                <mxCell id="10" value=": Displacement node&lt;div&gt;&lt;span style=&quot;color: rgb(0, 0, 0); line-height: 200%;&quot;&gt;: Pressure node&lt;/span&gt;&lt;/div&gt;" style="text;html=1;align=left;verticalAlign=middle;whiteSpace=wrap;rounded=0;fontFamily=Times New Roman;fontSize=10;spacing=0;textShadow=0;horizontal=1;labelBorderColor=none;spacingBottom=0;" vertex="1" parent="KC83Han23VEneGRMz_ao-47">
                    <mxGeometry x="108" y="494" width="96" height="30" as="geometry"/>
                </mxCell>
                <mxCell id="KC83Han23VEneGRMz_ao-80" value="" style="group" parent="1" vertex="1" connectable="0">
                    <mxGeometry x="376" y="451" width="243" height="206.05" as="geometry"/>
                </mxCell>
                <mxCell id="KC83Han23VEneGRMz_ao-11" value="" style="html=1;whiteSpace=wrap;shape=isoCube2;backgroundOutline=1;isoAngle=15.395683453237437;fillColor=#fff2cc;strokeColor=#000000;" parent="KC83Han23VEneGRMz_ao-80" vertex="1">
                    <mxGeometry width="174.18" height="197" as="geometry"/>
                </mxCell>
                <mxCell id="KC83Han23VEneGRMz_ao-49" value="" style="html=1;whiteSpace=wrap;shape=isoCube2;backgroundOutline=1;isoAngle=15.395683453237437;fillColor=#FF0000;strokeColor=none;opacity=20;" parent="KC83Han23VEneGRMz_ao-80" vertex="1">
                    <mxGeometry x="44.23619047619047" y="42.950078961221266" width="85.70761904761905" height="43.58093525179856" as="geometry"/>
                </mxCell>
                <mxCell id="KC83Han23VEneGRMz_ao-53" value="" style="endArrow=blockThin;html=1;rounded=0;endSize=4;startFill=0;endFill=1;flowAnimation=0;" parent="KC83Han23VEneGRMz_ao-80" edge="1">
                    <mxGeometry width="50" height="50" relative="1" as="geometry">
                        <mxPoint x="87.09" y="69.44604316546763" as="sourcePoint"/>
                        <mxPoint x="87.09" y="86.45323741007194" as="targetPoint"/>
                    </mxGeometry>
                </mxCell>
                <mxCell id="KC83Han23VEneGRMz_ao-71" value="" style="endArrow=blockThin;html=1;rounded=0;endSize=4;startFill=0;endFill=1;flowAnimation=0;" parent="KC83Han23VEneGRMz_ao-80" edge="1">
                    <mxGeometry width="50" height="50" relative="1" as="geometry">
                        <mxPoint x="129.56142857142856" y="47.60431654676259" as="sourcePoint"/>
                        <mxPoint x="129.56142857142856" y="64.61151079136691" as="targetPoint"/>
                    </mxGeometry>
                </mxCell>
                <mxCell id="KC83Han23VEneGRMz_ao-72" value="" style="endArrow=blockThin;html=1;rounded=0;endSize=4;startFill=0;endFill=1;flowAnimation=0;" parent="KC83Han23VEneGRMz_ao-80" edge="1">
                    <mxGeometry width="50" height="50" relative="1" as="geometry">
                        <mxPoint x="107.82571428571428" y="58.94244604316547" as="sourcePoint"/>
                        <mxPoint x="107.82571428571428" y="75.94964028776978" as="targetPoint"/>
                    </mxGeometry>
                </mxCell>
                <mxCell id="KC83Han23VEneGRMz_ao-73" value="" style="endArrow=blockThin;html=1;rounded=0;endSize=4;startFill=0;endFill=1;flowAnimation=0;" parent="KC83Han23VEneGRMz_ao-80" edge="1">
                    <mxGeometry width="50" height="50" relative="1" as="geometry">
                        <mxPoint x="87.09" y="26.345323741007192" as="sourcePoint"/>
                        <mxPoint x="87.09" y="43.352517985611506" as="targetPoint"/>
                    </mxGeometry>
                </mxCell>
                <mxCell id="KC83Han23VEneGRMz_ao-75" value="" style="endArrow=blockThin;html=1;rounded=0;endSize=4;startFill=0;endFill=1;flowAnimation=0;" parent="KC83Han23VEneGRMz_ao-80" edge="1">
                    <mxGeometry width="50" height="50" relative="1" as="geometry">
                        <mxPoint x="107.82571428571428" y="36.68345323741007" as="sourcePoint"/>
                        <mxPoint x="107.82571428571428" y="53.690647482014384" as="targetPoint"/>
                    </mxGeometry>
                </mxCell>
                <mxCell id="KC83Han23VEneGRMz_ao-76" value="" style="endArrow=blockThin;html=1;rounded=0;endSize=4;startFill=0;endFill=1;flowAnimation=0;" parent="KC83Han23VEneGRMz_ao-80" edge="1">
                    <mxGeometry width="50" height="50" relative="1" as="geometry">
                        <mxPoint x="44.61857142857143" y="47.60431654676259" as="sourcePoint"/>
                        <mxPoint x="44.61857142857143" y="64.61151079136691" as="targetPoint"/>
                    </mxGeometry>
                </mxCell>
                <mxCell id="KC83Han23VEneGRMz_ao-77" value="" style="endArrow=blockThin;html=1;rounded=0;endSize=4;startFill=0;endFill=1;flowAnimation=0;" parent="KC83Han23VEneGRMz_ao-80" edge="1">
                    <mxGeometry width="50" height="50" relative="1" as="geometry">
                        <mxPoint x="64.97190476190475" y="58.10791366906475" as="sourcePoint"/>
                        <mxPoint x="64.97190476190475" y="75.11510791366906" as="targetPoint"/>
                    </mxGeometry>
                </mxCell>
                <mxCell id="KC83Han23VEneGRMz_ao-78" value="" style="endArrow=blockThin;html=1;rounded=0;endSize=4;startFill=0;endFill=1;flowAnimation=0;" parent="KC83Han23VEneGRMz_ao-80" edge="1">
                    <mxGeometry width="50" height="50" relative="1" as="geometry">
                        <mxPoint x="66.73666666666666" y="36.26618705035971" as="sourcePoint"/>
                        <mxPoint x="66.73666666666666" y="53.273381294964025" as="targetPoint"/>
                    </mxGeometry>
                </mxCell>
                <mxCell id="KC83Han23VEneGRMz_ao-79" value="" style="endArrow=blockThin;html=1;rounded=0;endSize=4;startFill=0;endFill=1;flowAnimation=0;" parent="KC83Han23VEneGRMz_ao-80" edge="1">
                    <mxGeometry width="50" height="50" relative="1" as="geometry">
                        <mxPoint x="87.09" y="46.76978417266187" as="sourcePoint"/>
                        <mxPoint x="87.09" y="63.776978417266186" as="targetPoint"/>
                    </mxGeometry>
                </mxCell>
                <mxCell id="KC83Han23VEneGRMz_ao-6" value="$$L$$" style="text;html=1;align=center;verticalAlign=middle;whiteSpace=wrap;rounded=0;" parent="KC83Han23VEneGRMz_ao-80" vertex="1">
                    <mxGeometry x="-3" y="171" width="60" height="30" as="geometry"/>
                </mxCell>
                <mxCell id="KC83Han23VEneGRMz_ao-90" value="" style="line;strokeWidth=1;html=1;rotation=27;" parent="KC83Han23VEneGRMz_ao-80" vertex="1">
                    <mxGeometry x="90" y="196" width="10" height="10" as="geometry"/>
                </mxCell>
                <mxCell id="KC83Han23VEneGRMz_ao-106" value="" style="endArrow=none;html=1;rounded=0;exitX=0.5;exitY=0.5;exitDx=0;exitDy=0;exitPerimeter=0;entryX=0.456;entryY=0.545;entryDx=0;entryDy=0;entryPerimeter=0;" parent="KC83Han23VEneGRMz_ao-80" target="KC83Han23VEneGRMz_ao-90" edge="1">
                    <mxGeometry width="50" height="50" relative="1" as="geometry">
                        <mxPoint x="182" y="158" as="sourcePoint"/>
                        <mxPoint x="110" y="206" as="targetPoint"/>
                    </mxGeometry>
                </mxCell>
                <mxCell id="KC83Han23VEneGRMz_ao-107" value="$$L$$" style="text;html=1;align=center;verticalAlign=middle;whiteSpace=wrap;rounded=0;" parent="KC83Han23VEneGRMz_ao-80" vertex="1">
                    <mxGeometry x="118" y="171" width="60" height="30" as="geometry"/>
                </mxCell>
                <mxCell id="KC83Han23VEneGRMz_ao-108" value="" style="shape=parallelogram;perimeter=parallelogramPerimeter;whiteSpace=wrap;html=1;fixedSize=1;rotation=-90;fillColor=#ffe6cc;strokeColor=none;opacity=70;size=42.51000000000016;" parent="KC83Han23VEneGRMz_ao-80" vertex="1">
                    <mxGeometry x="-32.65" y="77.05" width="152.87" height="86.05" as="geometry"/>
                </mxCell>
                <mxCell id="KC83Han23VEneGRMz_ao-109" value="" style="shape=parallelogram;perimeter=parallelogramPerimeter;whiteSpace=wrap;html=1;fixedSize=1;rotation=-90;fillColor=#ffe6cc;strokeColor=none;opacity=70;size=42.03999999999985;flipH=1;" parent="KC83Han23VEneGRMz_ao-80" vertex="1">
                    <mxGeometry x="54.75" y="77.25" width="151.63" height="85.05" as="geometry"/>
                </mxCell>
                <mxCell id="KC83Han23VEneGRMz_ao-110" value="" style="line;strokeWidth=1;html=1;rotation=0;" parent="KC83Han23VEneGRMz_ao-80" vertex="1">
                    <mxGeometry x="178" y="38" width="10" height="10" as="geometry"/>
                </mxCell>
                <mxCell id="KC83Han23VEneGRMz_ao-111" value="" style="line;strokeWidth=1;html=1;rotation=0;" parent="KC83Han23VEneGRMz_ao-80" vertex="1">
                    <mxGeometry x="178" y="149" width="10" height="10" as="geometry"/>
                </mxCell>
                <mxCell id="KC83Han23VEneGRMz_ao-112" value="" style="endArrow=none;html=1;rounded=0;exitX=0.52;exitY=0.6;exitDx=0;exitDy=0;exitPerimeter=0;entryX=0.52;entryY=0.46;entryDx=0;entryDy=0;entryPerimeter=0;" parent="KC83Han23VEneGRMz_ao-80" source="KC83Han23VEneGRMz_ao-110" target="KC83Han23VEneGRMz_ao-111" edge="1">
                    <mxGeometry width="50" height="50" relative="1" as="geometry">
                        <mxPoint x="192" y="168" as="sourcePoint"/>
                        <mxPoint x="104" y="211" as="targetPoint"/>
                    </mxGeometry>
                </mxCell>
                <mxCell id="KC83Han23VEneGRMz_ao-113" value="$$L$$" style="text;html=1;align=center;verticalAlign=middle;whiteSpace=wrap;rounded=0;" parent="KC83Han23VEneGRMz_ao-80" vertex="1">
                    <mxGeometry x="162" y="82" width="60" height="30" as="geometry"/>
                </mxCell>
                <mxCell id="KC83Han23VEneGRMz_ao-114" value="$$P$$" style="text;html=1;align=center;verticalAlign=middle;whiteSpace=wrap;rounded=0;" parent="KC83Han23VEneGRMz_ao-80" vertex="1">
                    <mxGeometry x="45" y="13" width="60" height="30" as="geometry"/>
                </mxCell>
                <mxCell id="KC83Han23VEneGRMz_ao-121" value="" style="endArrow=classic;html=1;rounded=0;endSize=5;endFill=1;strokeWidth=1;targetPerimeterSpacing=0;arcSize=20;exitX=0.994;exitY=0.779;exitDx=0;exitDy=0;exitPerimeter=0;" parent="KC83Han23VEneGRMz_ao-80" edge="1">
                    <mxGeometry width="50" height="50" relative="1" as="geometry">
                        <mxPoint x="174.00491999999997" y="154.00300000000016" as="sourcePoint"/>
                        <mxPoint x="219.26999999999998" y="176.54999999999995" as="targetPoint"/>
                    </mxGeometry>
                </mxCell>
                <mxCell id="KC83Han23VEneGRMz_ao-115" value="$$u_x=0$$" style="text;html=1;align=center;verticalAlign=middle;whiteSpace=wrap;rounded=0;" parent="KC83Han23VEneGRMz_ao-80" vertex="1">
                    <mxGeometry x="11" y="109" width="60" height="30" as="geometry"/>
                </mxCell>
                <mxCell id="KC83Han23VEneGRMz_ao-125" value="$$y$$" style="text;html=1;align=center;verticalAlign=middle;whiteSpace=wrap;rounded=0;" parent="KC83Han23VEneGRMz_ao-80" vertex="1">
                    <mxGeometry x="183" y="145" width="60" height="30" as="geometry"/>
                </mxCell>
                <mxCell id="KC83Han23VEneGRMz_ao-127" value="$$u_y=0$$" style="text;html=1;align=center;verticalAlign=middle;whiteSpace=wrap;rounded=0;" parent="KC83Han23VEneGRMz_ao-80" vertex="1">
                    <mxGeometry x="101" y="110" width="60" height="30" as="geometry"/>
                </mxCell>
                <mxCell id="KC83Han23VEneGRMz_ao-81" value="" style="shape=parallelogram;perimeter=parallelogramPerimeter;whiteSpace=wrap;html=1;fixedSize=1;rotation=90;size=61.05000000000007;sketch=1;curveFitting=1;jiggle=0;fillStyle=hachure;fillColor=#000000;strokeColor=none;hachureAngle=30;" parent="1" vertex="1">
                    <mxGeometry x="66.5" y="565.5" width="73.5" height="128" as="geometry"/>
                </mxCell>
                <mxCell id="KC83Han23VEneGRMz_ao-82" value="" style="shape=parallelogram;perimeter=parallelogramPerimeter;whiteSpace=wrap;html=1;fixedSize=1;rotation=90;size=62.750000000000114;sketch=1;curveFitting=1;jiggle=0;fillStyle=hachure;fillColor=#000000;strokeColor=none;hachureAngle=30;flipH=1;hachureGap=-1;" parent="1" vertex="1">
                    <mxGeometry x="194" y="566" width="73.5" height="128" as="geometry"/>
                </mxCell>
                <mxCell id="KC83Han23VEneGRMz_ao-87" value="" style="line;strokeWidth=1;html=1;rotation=334;" parent="1" vertex="1">
                    <mxGeometry x="451" y="647" width="10" height="10" as="geometry"/>
                </mxCell>
                <mxCell id="KC83Han23VEneGRMz_ao-88" value="" style="line;strokeWidth=1;html=1;rotation=334;" parent="1" vertex="1">
                    <mxGeometry x="364" y="604" width="10" height="10" as="geometry"/>
                </mxCell>
                <mxCell id="KC83Han23VEneGRMz_ao-89" value="" style="endArrow=none;html=1;rounded=0;entryX=0.482;entryY=0.491;entryDx=0;entryDy=0;entryPerimeter=0;exitX=0.545;exitY=0.5;exitDx=0;exitDy=0;exitPerimeter=0;" parent="1" source="KC83Han23VEneGRMz_ao-87" target="KC83Han23VEneGRMz_ao-88" edge="1">
                    <mxGeometry width="50" height="50" relative="1" as="geometry">
                        <mxPoint x="339" y="614" as="sourcePoint"/>
                        <mxPoint x="389" y="564" as="targetPoint"/>
                    </mxGeometry>
                </mxCell>
                <mxCell id="KC83Han23VEneGRMz_ao-116" value="$$u_x=u_y=0$$" style="text;html=1;align=center;verticalAlign=middle;whiteSpace=wrap;rounded=0;" parent="1" vertex="1">
                    <mxGeometry x="498" y="237" width="60" height="30" as="geometry"/>
                </mxCell>
                <mxCell id="KC83Han23VEneGRMz_ao-120" value="" style="endArrow=classic;html=1;rounded=0;endSize=5;endFill=1;strokeWidth=1;targetPerimeterSpacing=0;arcSize=20;" parent="1" edge="1">
                    <mxGeometry width="50" height="50" relative="1" as="geometry">
                        <mxPoint x="463" y="451" as="sourcePoint"/>
                        <mxPoint x="463" y="401" as="targetPoint"/>
                    </mxGeometry>
                </mxCell>
                <mxCell id="KC83Han23VEneGRMz_ao-122" value="" style="endArrow=classic;html=1;rounded=0;endSize=5;endFill=1;strokeWidth=1;targetPerimeterSpacing=0;arcSize=20;exitX=0.144;exitY=0.47;exitDx=0;exitDy=0;exitPerimeter=0;" parent="1" edge="1">
                    <mxGeometry width="50" height="50" relative="1" as="geometry">
                        <mxPoint x="376.74350000000004" y="605.0047200000001" as="sourcePoint"/>
                        <mxPoint x="336" y="624.76" as="targetPoint"/>
                    </mxGeometry>
                </mxCell>
                <mxCell id="KC83Han23VEneGRMz_ao-126" value="$$z$$" style="text;html=1;align=center;verticalAlign=middle;whiteSpace=wrap;rounded=0;" parent="1" vertex="1">
                    <mxGeometry x="421" y="397" width="60" height="30" as="geometry"/>
                </mxCell>
                <mxCell id="KC83Han23VEneGRMz_ao-129" value="" style="curved=1;endArrow=open;html=1;rounded=0;exitX=0.745;exitY=0.15;exitDx=0;exitDy=0;exitPerimeter=0;fillColor=#1ba1e2;strokeColor=#006EAF;endFill=0;" parent="1" source="KC83Han23VEneGRMz_ao-5" edge="1">
                    <mxGeometry width="50" height="50" relative="1" as="geometry">
                        <mxPoint x="292" y="433" as="sourcePoint"/>
                        <mxPoint x="375" y="494" as="targetPoint"/>
                        <Array as="points">
                            <mxPoint x="266" y="470"/>
                            <mxPoint x="300" y="483"/>
                            <mxPoint x="307" y="548"/>
                        </Array>
                    </mxGeometry>
                </mxCell>
            </root>
        </mxGraphModel>
    </diagram>
</mxfile>